<svg width="344" height="238" viewBox="0 0 344 238" fill="none" xmlns="http://www.w3.org/2000/svg">
<g filter="url(#filter0_i_123_128)">
<g filter="url(#filter1_d_123_128)">
<rect x="6" y="4" width="332" height="225.22" rx="20" fill="white"/>
</g>
<path d="M159.865 186.075L177.108 169.253L184.468 150.327L195.403 177.033L202.762 164.416L210.543 85.1406L230.519 162.734L245.029 136.87L272.786 186.075L281.407 173.669L286.664 153.061L302.856 136.87" stroke="#1748C9" stroke-width="3" stroke-linecap="round" stroke-linejoin="round"/>
<path d="M103.831 159.51C103.038 160.304 102.28 161.065 101.52 161.826C100.871 162.476 100.221 163.125 99.5708 163.772C99.3582 163.984 99.1018 164.049 98.8127 163.964C98.5236 163.879 98.3515 163.673 98.2878 163.384C98.2263 163.102 98.3339 162.87 98.5311 162.671C99.4325 161.77 100.333 160.869 101.233 159.968C101.9 159.301 102.568 158.635 103.236 157.968C103.602 157.605 104.026 157.603 104.391 157.963C104.898 158.463 105.401 158.966 105.902 159.474C105.958 159.531 105.994 159.608 106.034 159.668L110.247 155.452C110.187 155.448 110.129 155.442 110.071 155.441C109.584 155.441 109.096 155.446 108.609 155.438C108.287 155.433 108.044 155.277 107.912 154.984C107.785 154.705 107.827 154.433 108.024 154.195C108.095 154.106 108.185 154.035 108.287 153.987C108.39 153.939 108.502 153.915 108.615 153.917C109.781 153.915 110.951 153.912 112.12 153.918C112.561 153.921 112.887 154.256 112.889 154.696C112.893 155.859 112.893 157.021 112.889 158.183C112.889 158.625 112.543 158.971 112.124 158.967C111.705 158.963 111.381 158.633 111.374 158.19C111.367 157.716 111.372 157.241 111.372 156.766V156.569L111.304 156.525C111.261 156.591 111.214 156.655 111.162 156.715C109.67 158.209 108.177 159.703 106.683 161.195C106.295 161.583 105.874 161.584 105.487 161.198C104.978 160.692 104.47 160.184 103.964 159.674C103.92 159.63 103.885 159.576 103.831 159.51Z" fill="#04CE00"/>
<path d="M43.2627 162.29V155.568H44.6001V162.29H43.2627ZM40.5731 159.595V158.263H47.2947V159.595H40.5731ZM49.164 164V162.886L52.6093 159.317C52.9772 158.929 53.2805 158.589 53.5191 158.298C53.761 158.003 53.9417 157.723 54.061 157.457C54.1803 157.192 54.24 156.911 54.24 156.612C54.24 156.274 54.1604 155.982 54.0013 155.737C53.8422 155.489 53.6251 155.298 53.3501 155.165C53.075 155.03 52.7651 154.962 52.4204 154.962C52.0558 154.962 51.7376 155.036 51.4658 155.185C51.194 155.335 50.9852 155.545 50.8394 155.817C50.6936 156.089 50.6206 156.407 50.6206 156.771H49.154C49.154 156.152 49.2965 155.61 49.5816 155.146C49.8666 154.682 50.2577 154.322 50.7549 154.067C51.252 153.808 51.8171 153.679 52.4502 153.679C53.0899 153.679 53.6533 153.807 54.1405 154.062C54.6311 154.314 55.0139 154.658 55.289 155.096C55.5641 155.53 55.7016 156.021 55.7016 156.567C55.7016 156.945 55.6304 157.315 55.4878 157.676C55.3486 158.037 55.105 158.44 54.757 158.884C54.409 159.325 53.9251 159.86 53.3053 160.49L51.2819 162.608V162.683H55.8657V164H49.164ZM61.6128 153.818V164H60.0716V155.359H60.012L57.5759 156.95V155.479L60.1164 153.818H61.6128ZM64.7785 164.094C64.5067 164.094 64.2731 163.998 64.0775 163.806C63.882 163.611 63.7842 163.375 63.7842 163.1C63.7842 162.828 63.882 162.596 64.0775 162.404C64.2731 162.209 64.5067 162.111 64.7785 162.111C65.0503 162.111 65.2839 162.209 65.4795 162.404C65.675 162.596 65.7728 162.828 65.7728 163.1C65.7728 163.282 65.7264 163.45 65.6336 163.602C65.5441 163.751 65.4248 163.871 65.2757 163.96C65.1265 164.05 64.9608 164.094 64.7785 164.094ZM70.9197 164.169C70.1341 164.166 69.463 163.959 68.9062 163.548C68.3493 163.137 67.9234 162.538 67.6285 161.753C67.3335 160.967 67.186 160.021 67.186 158.914C67.186 157.81 67.3335 156.867 67.6285 156.085C67.9268 155.303 68.3543 154.706 68.9111 154.295C69.4713 153.884 70.1408 153.679 70.9197 153.679C71.6985 153.679 72.3664 153.886 72.9232 154.3C73.48 154.711 73.9059 155.308 74.2009 156.09C74.4992 156.869 74.6483 157.81 74.6483 158.914C74.6483 160.024 74.5009 160.972 74.2059 161.758C73.9109 162.54 73.485 163.138 72.9282 163.553C72.3714 163.964 71.7019 164.169 70.9197 164.169ZM70.9197 162.842C71.609 162.842 72.1476 162.505 72.5354 161.832C72.9265 161.16 73.1221 160.187 73.1221 158.914C73.1221 158.069 73.0326 157.355 72.8536 156.771C72.6779 156.185 72.4244 155.741 72.093 155.439C71.7648 155.134 71.3737 154.982 70.9197 154.982C70.2336 154.982 69.695 155.32 69.3039 155.996C68.9128 156.672 68.7156 157.645 68.7123 158.914C68.7123 159.763 68.8001 160.48 68.9758 161.067C69.1547 161.65 69.4083 162.093 69.7364 162.394C70.0645 162.692 70.459 162.842 70.9197 162.842ZM80.2749 153.818V164H78.7338V155.359H78.6741L76.238 156.95V155.479L78.7785 153.818H80.2749ZM88.3438 162.091V161.554C88.3438 161.17 88.4234 160.818 88.5825 160.5C88.7449 160.179 88.9802 159.922 89.2884 159.729C89.6 159.534 89.9762 159.436 90.417 159.436C90.8678 159.436 91.2456 159.532 91.5505 159.724C91.8554 159.917 92.0858 160.174 92.2416 160.495C92.4007 160.817 92.4802 161.17 92.4802 161.554V162.091C92.4802 162.475 92.4007 162.828 92.2416 163.15C92.0825 163.468 91.8488 163.725 91.5406 163.92C91.2356 164.113 90.8611 164.209 90.417 164.209C89.9695 164.209 89.5917 164.113 89.2835 163.92C88.9752 163.725 88.7416 163.468 88.5825 163.15C88.4234 162.828 88.3438 162.475 88.3438 162.091ZM89.5022 161.554V162.091C89.5022 162.376 89.5702 162.634 89.7061 162.866C89.8419 163.098 90.0789 163.214 90.417 163.214C90.7517 163.214 90.9854 163.098 91.118 162.866C91.2506 162.634 91.3169 162.376 91.3169 162.091V161.554C91.3169 161.269 91.2522 161.01 91.123 160.778C90.997 160.546 90.7617 160.43 90.417 160.43C90.0856 160.43 89.8502 160.546 89.711 160.778C89.5718 161.01 89.5022 161.269 89.5022 161.554ZM83.2231 156.264V155.727C83.2231 155.343 83.3026 154.99 83.4617 154.668C83.6241 154.347 83.8595 154.09 84.1677 153.898C84.4793 153.705 84.8554 153.609 85.2963 153.609C85.747 153.609 86.1249 153.705 86.4298 153.898C86.7347 154.09 86.9651 154.347 87.1208 154.668C87.2766 154.99 87.3545 155.343 87.3545 155.727V156.264C87.3545 156.649 87.2749 157.002 87.1159 157.323C86.9601 157.641 86.7281 157.898 86.4198 158.094C86.1149 158.286 85.7404 158.382 85.2963 158.382C84.8455 158.382 84.466 158.286 84.1578 158.094C83.8528 157.898 83.6208 157.641 83.4617 157.323C83.3026 157.002 83.2231 156.649 83.2231 156.264ZM84.3865 155.727V156.264C84.3865 156.549 84.4527 156.808 84.5853 157.04C84.7212 157.272 84.9582 157.388 85.2963 157.388C85.6277 157.388 85.8597 157.272 85.9923 157.04C86.1282 156.808 86.1961 156.549 86.1961 156.264V155.727C86.1961 155.442 86.1315 155.184 86.0022 154.952C85.873 154.72 85.6376 154.604 85.2963 154.604C84.9648 154.604 84.7295 154.72 84.5903 154.952C84.4544 155.184 84.3865 155.442 84.3865 155.727ZM83.6954 164L90.6954 153.818H91.8836L84.8836 164H83.6954Z" fill="#04CE00"/>
<path d="M52.112 114.66C54.3413 114.66 56.336 115.129 58.096 116.068C59.856 117.007 61.2347 118.312 62.232 119.984C63.2587 121.656 63.772 123.533 63.772 125.616C63.772 127.699 63.2587 129.576 62.232 131.248C61.2347 132.92 59.856 134.225 58.096 135.164C56.336 136.103 54.3413 136.572 52.112 136.572C49.912 136.572 47.9173 136.103 46.128 135.164C44.368 134.225 42.9893 132.92 41.992 131.248C40.9947 129.576 40.496 127.699 40.496 125.616C40.496 123.592 40.98 121.744 41.948 120.072H41.904L51.232 105.2H57.876L51.936 114.66H52.112ZM52.112 130.896C53.7547 130.896 55.1187 130.397 56.204 129.4C57.2893 128.373 57.832 127.112 57.832 125.616C57.832 124.12 57.2747 122.859 56.16 121.832C55.0747 120.805 53.7253 120.292 52.112 120.292C50.528 120.292 49.1787 120.805 48.064 121.832C46.9493 122.859 46.392 124.12 46.392 125.616C46.392 127.141 46.9493 128.403 48.064 129.4C49.1787 130.397 50.528 130.896 52.112 130.896ZM86.1058 119.632C87.3084 120.483 88.2471 121.539 88.9218 122.8C89.5964 124.032 89.9338 125.381 89.9338 126.848C89.9338 128.667 89.4204 130.309 88.3938 131.776C87.3964 133.243 86.0178 134.401 84.2578 135.252C82.5271 136.073 80.5911 136.484 78.4498 136.484C76.4551 136.484 74.6071 136.103 72.9058 135.34C71.2338 134.577 69.8844 133.536 68.8578 132.216C67.8311 130.867 67.2738 129.356 67.1858 127.684L73.1258 127.244C73.3898 128.359 74.0204 129.283 75.0178 130.016C76.0151 130.749 77.1591 131.116 78.4498 131.116C80.1218 131.116 81.5004 130.691 82.5858 129.84C83.6711 128.989 84.2138 127.904 84.2138 126.584C84.2138 125.264 83.6711 124.179 82.5858 123.328C81.5004 122.477 80.1218 122.052 78.4498 122.052H76.8218L76.8658 117.388H78.4498C79.9164 117.388 81.1191 117.036 82.0578 116.332C83.0258 115.628 83.5098 114.719 83.5098 113.604C83.5098 112.489 83.0258 111.58 82.0578 110.876C81.0898 110.143 79.8578 109.776 78.3618 109.776C77.3058 109.776 76.3231 110.025 75.4138 110.524C74.5044 111.023 73.8591 111.668 73.4778 112.46L67.8018 112.108C68.0071 110.7 68.5938 109.424 69.5618 108.28C70.5591 107.136 71.8204 106.241 73.3458 105.596C74.8711 104.951 76.5431 104.628 78.3618 104.628C80.4151 104.628 82.2484 105.024 83.8618 105.816C85.5044 106.579 86.7804 107.649 87.6898 109.028C88.6284 110.377 89.0978 111.903 89.0978 113.604C89.0978 114.807 88.8338 115.921 88.3058 116.948C87.8071 117.975 87.0738 118.869 86.1058 119.632ZM105.272 116.86C108.704 116.86 111.417 117.681 113.412 119.324C115.406 120.937 116.404 123.167 116.404 126.012C116.404 129.268 115.406 131.835 113.412 133.712C111.417 135.56 108.704 136.484 105.272 136.484C101.84 136.484 99.0822 135.721 96.9996 134.196C94.9462 132.671 93.8316 130.573 93.6556 127.904L99.1116 127.244C99.3756 128.447 100.05 129.4 101.136 130.104C102.25 130.779 103.629 131.116 105.272 131.116C107.061 131.116 108.469 130.661 109.496 129.752C110.522 128.843 111.036 127.596 111.036 126.012C111.036 124.692 110.522 123.651 109.496 122.888C108.469 122.125 107.061 121.744 105.272 121.744H99.1996V121.656L95.0196 121.744L97.0876 105.2H115.304V110.656H101.884L101.092 116.86H105.272ZM142.741 136H135.921L129.761 127.772L126.549 131.292V136H121.093V105.2H126.549V123.284L134.821 114H142.433L133.457 123.768L142.741 136Z" fill="#181D2D"/>
<path d="M51.1138 75H48.6118L47.6758 72.462H42.6898L41.7538 75H39.2338L43.9138 62.4H46.4338L51.1138 75ZM45.1918 65.766L43.5178 70.23H46.8478L45.1918 65.766ZM56.8934 62.4C57.6374 62.4 58.3274 62.586 58.9634 62.958C59.5994 63.318 60.0974 63.816 60.4574 64.452C60.8294 65.088 61.0154 65.778 61.0154 66.522C61.0154 67.266 60.8294 67.956 60.4574 68.592C60.0974 69.216 59.5994 69.714 58.9634 70.086C58.3274 70.458 57.6374 70.644 56.8934 70.644H54.6614V75H52.3034V62.4H56.8934ZM56.8934 68.394C57.4094 68.394 57.8474 68.214 58.2074 67.854C58.5794 67.482 58.7654 67.038 58.7654 66.522C58.7654 66.006 58.5794 65.562 58.2074 65.19C57.8474 64.818 57.4094 64.632 56.8934 64.632H54.6614V68.394H56.8934ZM62.2211 68.736C62.2211 67.56 62.5091 66.474 63.0851 65.478C63.6731 64.482 64.4651 63.696 65.4611 63.12C66.4571 62.532 67.5431 62.238 68.7191 62.238C69.9191 62.238 71.0291 62.55 72.0491 63.174C73.0691 63.786 73.8551 64.602 74.4071 65.622L72.3371 66.72C71.9771 66.084 71.4731 65.574 70.8251 65.19C70.1771 64.794 69.4751 64.596 68.7191 64.596C67.9751 64.596 67.2791 64.782 66.6311 65.154C65.9951 65.526 65.4911 66.03 65.1191 66.666C64.7471 67.302 64.5611 67.992 64.5611 68.736C64.5611 69.48 64.7471 70.17 65.1191 70.806C65.4911 71.442 65.9951 71.946 66.6311 72.318C67.2791 72.69 67.9751 72.876 68.7191 72.876C69.4991 72.876 70.2071 72.678 70.8431 72.282C71.4911 71.886 71.9951 71.358 72.3551 70.698L74.4251 71.832C73.8731 72.864 73.0871 73.692 72.0671 74.316C71.0471 74.928 69.9311 75.234 68.7191 75.234C67.5431 75.234 66.4571 74.946 65.4611 74.37C64.4651 73.782 63.6731 72.99 63.0851 71.994C62.5091 70.998 62.2211 69.912 62.2211 68.736Z" fill="#181D2D"/>
<path d="M43.5884 49.168C42.6644 49.168 41.8804 48.958 41.2364 48.538C40.6017 48.118 40.163 47.5487 39.9204 46.83L40.7884 46.326C40.975 46.886 41.311 47.3387 41.7964 47.684C42.2817 48.02 42.8837 48.188 43.6024 48.188C44.1157 48.188 44.545 48.104 44.8904 47.936C45.2357 47.7587 45.4924 47.53 45.6604 47.25C45.8284 46.97 45.9124 46.6713 45.9124 46.354C45.9124 45.906 45.7024 45.542 45.2824 45.262C44.8624 44.982 44.2277 44.7113 43.3784 44.45C42.6877 44.2353 42.137 44.0393 41.7264 43.862C41.325 43.6753 40.989 43.414 40.7184 43.078C40.457 42.742 40.3264 42.2987 40.3264 41.748C40.3264 41.2067 40.4617 40.7307 40.7324 40.32C41.003 39.9 41.3717 39.5827 41.8384 39.368C42.305 39.144 42.8184 39.032 43.3784 39.032C44.153 39.032 44.8157 39.2233 45.3664 39.606C45.9264 39.9793 46.351 40.488 46.6404 41.132L45.7724 41.594C45.567 41.0993 45.259 40.712 44.8484 40.432C44.447 40.152 43.957 40.012 43.3784 40.012C42.949 40.012 42.5804 40.096 42.2724 40.264C41.9644 40.4227 41.731 40.6373 41.5724 40.908C41.4137 41.1693 41.3344 41.4493 41.3344 41.748C41.3344 42.084 41.4277 42.3593 41.6144 42.574C41.801 42.7793 42.0437 42.9473 42.3424 43.078C42.641 43.1993 43.089 43.358 43.6864 43.554C44.4237 43.7967 45.0024 44.016 45.4224 44.212C45.8517 44.408 46.2064 44.6833 46.4864 45.038C46.7757 45.3833 46.9204 45.836 46.9204 46.396C46.9204 46.956 46.7804 47.446 46.5004 47.866C46.2204 48.2767 45.8284 48.5987 45.3244 48.832C44.8204 49.056 44.2417 49.168 43.5884 49.168ZM49.9696 46.914C49.9696 47.3993 50.0536 47.7353 50.2216 47.922C50.3896 48.0993 50.6696 48.188 51.0616 48.188C51.183 48.188 51.4303 48.1693 51.8036 48.132V49C51.4116 49.0467 51.099 49.07 50.8656 49.07C50.2403 49.07 49.7783 48.916 49.4796 48.608C49.181 48.2907 49.0316 47.74 49.0316 46.956V42.868H47.3796V42H49.0316V39.998L49.9696 39.648V42H51.7756V42.868H49.9696V46.914ZM58.9645 42H59.9025V49H58.9645V47.698C58.6472 48.1553 58.2412 48.5147 57.7465 48.776C57.2612 49.0373 56.7338 49.168 56.1645 49.168C55.4925 49.168 54.8858 49.0093 54.3445 48.692C53.8032 48.3653 53.3785 47.922 53.0705 47.362C52.7718 46.802 52.6225 46.186 52.6225 45.514C52.6225 44.8327 52.7718 44.212 53.0705 43.652C53.3785 43.092 53.8032 42.6533 54.3445 42.336C54.8858 42.0093 55.4925 41.846 56.1645 41.846C56.7338 41.846 57.2612 41.9813 57.7465 42.252C58.2318 42.5133 58.6378 42.8727 58.9645 43.33V42ZM56.2625 48.258C56.7572 48.258 57.2098 48.1367 57.6205 47.894C58.0312 47.6513 58.3532 47.32 58.5865 46.9C58.8292 46.48 58.9505 46.0133 58.9505 45.5C58.9505 44.9867 58.8292 44.5247 58.5865 44.114C58.3532 43.694 58.0312 43.3673 57.6205 43.134C57.2098 42.8913 56.7572 42.77 56.2625 42.77C55.7678 42.77 55.3152 42.8913 54.9045 43.134C54.4938 43.3767 54.1672 43.708 53.9245 44.128C53.6912 44.5387 53.5745 45.0007 53.5745 45.514C53.5745 46.0273 53.6912 46.494 53.9245 46.914C54.1672 47.3247 54.4938 47.6513 54.9045 47.894C55.3152 48.1367 55.7678 48.258 56.2625 48.258ZM63.6005 46.914C63.6005 47.3993 63.6845 47.7353 63.8525 47.922C64.0205 48.0993 64.3005 48.188 64.6925 48.188C64.8138 48.188 65.0611 48.1693 65.4345 48.132V49C65.0425 49.0467 64.7298 49.07 64.4965 49.07C63.8711 49.07 63.4091 48.916 63.1105 48.608C62.8118 48.2907 62.6625 47.74 62.6625 46.956V42.868H61.0105V42H62.6625V39.998L63.6005 39.648V42H65.4065V42.868H63.6005V46.914ZM67.3268 40.194C67.1401 40.194 66.9861 40.138 66.8648 40.026C66.7528 39.914 66.6968 39.7647 66.6968 39.578C66.6968 39.3913 66.7528 39.242 66.8648 39.13C66.9861 39.018 67.1401 38.962 67.3268 38.962C67.5228 38.962 67.6768 39.018 67.7888 39.13C67.9008 39.242 67.9568 39.3913 67.9568 39.578C67.9568 39.7647 67.9008 39.914 67.7888 40.026C67.6768 40.138 67.5228 40.194 67.3268 40.194ZM66.8508 49V42H67.7888V49H66.8508ZM70.2448 43.89C70.2448 44.1887 70.3848 44.408 70.6648 44.548C70.9448 44.688 71.3881 44.8327 71.9948 44.982C72.5548 45.122 73.0028 45.2573 73.3388 45.388C73.6748 45.5093 73.9641 45.71 74.2068 45.99C74.4588 46.2607 74.5848 46.6247 74.5848 47.082C74.5848 47.4927 74.4635 47.8567 74.2208 48.174C73.9875 48.4913 73.6655 48.7387 73.2548 48.916C72.8441 49.084 72.3821 49.168 71.8688 49.168C71.1688 49.168 70.5761 49.028 70.0908 48.748C69.6055 48.4587 69.2601 48.0713 69.0548 47.586L69.8528 47.166C70.0021 47.5673 70.2541 47.866 70.6088 48.062C70.9635 48.258 71.3835 48.356 71.8688 48.356C72.3541 48.356 72.7741 48.244 73.1288 48.02C73.4835 47.7867 73.6608 47.474 73.6608 47.082C73.6608 46.83 73.5768 46.6293 73.4088 46.48C73.2408 46.3213 73.0308 46.2 72.7788 46.116C72.5361 46.032 72.1955 45.9387 71.7568 45.836C71.2155 45.7053 70.7815 45.5793 70.4548 45.458C70.1375 45.3273 69.8621 45.1407 69.6288 44.898C69.4048 44.646 69.2928 44.3147 69.2928 43.904C69.2928 43.512 69.4001 43.1573 69.6148 42.84C69.8388 42.5227 70.1421 42.2753 70.5248 42.098C70.9168 41.9207 71.3555 41.832 71.8408 41.832C72.4195 41.832 72.9281 41.958 73.3668 42.21C73.8148 42.462 74.1508 42.812 74.3748 43.26L73.5908 43.652C73.4508 43.3347 73.2315 43.0873 72.9328 42.91C72.6341 42.7327 72.2701 42.644 71.8408 42.644C71.3461 42.644 70.9541 42.756 70.6648 42.98C70.3848 43.204 70.2448 43.5073 70.2448 43.89ZM77.7782 46.914C77.7782 47.3993 77.8622 47.7353 78.0302 47.922C78.1982 48.0993 78.4782 48.188 78.8702 48.188C78.9915 48.188 79.2389 48.1693 79.6122 48.132V49C79.2202 49.0467 78.9075 49.07 78.6742 49.07C78.0489 49.07 77.5869 48.916 77.2882 48.608C76.9895 48.2907 76.8402 47.74 76.8402 46.956V42.868H75.1882V42H76.8402V39.998L77.7782 39.648V42H79.5842V42.868H77.7782V46.914ZM81.5045 40.194C81.3178 40.194 81.1638 40.138 81.0425 40.026C80.9305 39.914 80.8745 39.7647 80.8745 39.578C80.8745 39.3913 80.9305 39.242 81.0425 39.13C81.1638 39.018 81.3178 38.962 81.5045 38.962C81.7005 38.962 81.8545 39.018 81.9665 39.13C82.0785 39.242 82.1345 39.3913 82.1345 39.578C82.1345 39.7647 82.0785 39.914 81.9665 40.026C81.8545 40.138 81.7005 40.194 81.5045 40.194ZM81.0285 49V42H81.9665V49H81.0285ZM89.8552 47.642C89.5098 48.118 89.0805 48.4913 88.5672 48.762C88.0538 49.0327 87.4985 49.168 86.9012 49.168C86.2385 49.168 85.6225 49.0047 85.0532 48.678C84.4932 48.3513 84.0498 47.908 83.7232 47.348C83.3965 46.7787 83.2332 46.1627 83.2332 45.5C83.2332 44.8373 83.3965 44.2307 83.7232 43.68C84.0498 43.12 84.4932 42.6767 85.0532 42.35C85.6225 42.0233 86.2385 41.86 86.9012 41.86C87.4892 41.86 88.0398 41.9953 88.5532 42.266C89.0665 42.5273 89.4958 42.8867 89.8412 43.344L89.0572 43.862C88.7958 43.526 88.4785 43.2647 88.1052 43.078C87.7318 42.882 87.3305 42.784 86.9012 42.784C86.4065 42.784 85.9492 42.9053 85.5292 43.148C85.1185 43.3907 84.7918 43.722 84.5492 44.142C84.3065 44.5527 84.1852 45.0053 84.1852 45.5C84.1852 45.9947 84.3065 46.452 84.5492 46.872C84.7918 47.2827 85.1185 47.6093 85.5292 47.852C85.9492 48.0947 86.4065 48.216 86.9012 48.216C87.3305 48.216 87.7318 48.1227 88.1052 47.936C88.4785 47.74 88.7958 47.474 89.0572 47.138L89.8552 47.642ZM91.9831 43.89C91.9831 44.1887 92.1231 44.408 92.4031 44.548C92.6831 44.688 93.1264 44.8327 93.7331 44.982C94.2931 45.122 94.7411 45.2573 95.0771 45.388C95.4131 45.5093 95.7024 45.71 95.9451 45.99C96.1971 46.2607 96.3231 46.6247 96.3231 47.082C96.3231 47.4927 96.2017 47.8567 95.9591 48.174C95.7257 48.4913 95.4037 48.7387 94.9931 48.916C94.5824 49.084 94.1204 49.168 93.6071 49.168C92.9071 49.168 92.3144 49.028 91.8291 48.748C91.3437 48.4587 90.9984 48.0713 90.7931 47.586L91.5911 47.166C91.7404 47.5673 91.9924 47.866 92.3471 48.062C92.7017 48.258 93.1217 48.356 93.6071 48.356C94.0924 48.356 94.5124 48.244 94.8671 48.02C95.2217 47.7867 95.3991 47.474 95.3991 47.082C95.3991 46.83 95.3151 46.6293 95.1471 46.48C94.9791 46.3213 94.7691 46.2 94.5171 46.116C94.2744 46.032 93.9337 45.9387 93.4951 45.836C92.9537 45.7053 92.5197 45.5793 92.1931 45.458C91.8757 45.3273 91.6004 45.1407 91.3671 44.898C91.1431 44.646 91.0311 44.3147 91.0311 43.904C91.0311 43.512 91.1384 43.1573 91.3531 42.84C91.5771 42.5227 91.8804 42.2753 92.2631 42.098C92.6551 41.9207 93.0937 41.832 93.5791 41.832C94.1577 41.832 94.6664 41.958 95.1051 42.21C95.5531 42.462 95.8891 42.812 96.1131 43.26L95.3291 43.652C95.1891 43.3347 94.9697 43.0873 94.6711 42.91C94.3724 42.7327 94.0084 42.644 93.5791 42.644C93.0844 42.644 92.6924 42.756 92.4031 42.98C92.1231 43.204 91.9831 43.5073 91.9831 43.89Z" fill="#181D2D"/>
</g>
<defs>
<filter id="filter0_i_123_128" x="6" y="4" width="336" height="229.22" filterUnits="userSpaceOnUse" color-interpolation-filters="sRGB">
<feFlood flood-opacity="0" result="BackgroundImageFix"/>
<feBlend mode="normal" in="SourceGraphic" in2="BackgroundImageFix" result="shape"/>
<feColorMatrix in="SourceAlpha" type="matrix" values="0 0 0 0 0 0 0 0 0 0 0 0 0 0 0 0 0 0 127 0" result="hardAlpha"/>
<feOffset dx="5" dy="5"/>
<feGaussianBlur stdDeviation="2"/>
<feComposite in2="hardAlpha" operator="arithmetic" k2="-1" k3="1"/>
<feColorMatrix type="matrix" values="0 0 0 0 0 0 0 0 0 0 0 0 0 0 0 0 0 0 0.25 0"/>
<feBlend mode="normal" in2="shape" result="effect1_innerShadow_123_128"/>
</filter>
<filter id="filter1_d_123_128" x="0" y="0" width="344" height="237.22" filterUnits="userSpaceOnUse" color-interpolation-filters="sRGB">
<feFlood flood-opacity="0" result="BackgroundImageFix"/>
<feColorMatrix in="SourceAlpha" type="matrix" values="0 0 0 0 0 0 0 0 0 0 0 0 0 0 0 0 0 0 127 0" result="hardAlpha"/>
<feOffset dy="2"/>
<feGaussianBlur stdDeviation="3"/>
<feComposite in2="hardAlpha" operator="out"/>
<feColorMatrix type="matrix" values="0 0 0 0 0.0509804 0 0 0 0 0.0392157 0 0 0 0 0.172549 0 0 0 0.08 0"/>
<feBlend mode="normal" in2="BackgroundImageFix" result="effect1_dropShadow_123_128"/>
<feBlend mode="normal" in="SourceGraphic" in2="effect1_dropShadow_123_128" result="shape"/>
</filter>
</defs>
</svg>
