<svg width="1056" height="550" viewBox="0 0 1056 550" fill="none" xmlns="http://www.w3.org/2000/svg">
<g filter="url(#filter0_d_122_259)">
<rect x="6" y="4" width="1044" height="537.024" rx="20" fill="white"/>
</g>
<path d="M979.647 136.2V144.796H982.489V146H975.279V144.796H978.373V137.53L976.497 138.426L975.881 137.418L978.373 136.2H979.647ZM987.135 146.168C986.342 146.168 985.66 145.958 985.091 145.538C984.522 145.118 984.088 144.525 983.789 143.76C983.49 142.995 983.341 142.108 983.341 141.1C983.341 140.092 983.49 139.205 983.789 138.44C984.088 137.675 984.522 137.082 985.091 136.662C985.66 136.242 986.342 136.032 987.135 136.032C987.928 136.032 988.61 136.242 989.179 136.662C989.758 137.082 990.196 137.675 990.495 138.44C990.794 139.205 990.943 140.092 990.943 141.1C990.943 142.108 990.794 142.995 990.495 143.76C990.196 144.525 989.758 145.118 989.179 145.538C988.61 145.958 987.928 146.168 987.135 146.168ZM987.135 144.894C987.928 144.894 988.544 144.572 988.983 143.928C989.431 143.275 989.655 142.332 989.655 141.1C989.655 139.868 989.431 138.93 988.983 138.286C988.544 137.633 987.928 137.306 987.135 137.306C986.351 137.306 985.735 137.633 985.287 138.286C984.839 138.93 984.615 139.868 984.615 141.1C984.615 142.332 984.839 143.275 985.287 143.928C985.735 144.572 986.351 144.894 987.135 144.894ZM995.393 146.168C994.6 146.168 993.918 145.958 993.349 145.538C992.78 145.118 992.346 144.525 992.047 143.76C991.748 142.995 991.599 142.108 991.599 141.1C991.599 140.092 991.748 139.205 992.047 138.44C992.346 137.675 992.78 137.082 993.349 136.662C993.918 136.242 994.6 136.032 995.393 136.032C996.186 136.032 996.868 136.242 997.437 136.662C998.016 137.082 998.454 137.675 998.753 138.44C999.052 139.205 999.201 140.092 999.201 141.1C999.201 142.108 999.052 142.995 998.753 143.76C998.454 144.525 998.016 145.118 997.437 145.538C996.868 145.958 996.186 146.168 995.393 146.168ZM995.393 144.894C996.186 144.894 996.802 144.572 997.241 143.928C997.689 143.275 997.913 142.332 997.913 141.1C997.913 139.868 997.689 138.93 997.241 138.286C996.802 137.633 996.186 137.306 995.393 137.306C994.609 137.306 993.993 137.633 993.545 138.286C993.097 138.93 992.873 139.868 992.873 141.1C992.873 142.332 993.097 143.275 993.545 143.928C993.993 144.572 994.609 144.894 995.393 144.894ZM1006.77 146H1005.25L1002.92 143.032L1001.73 144.334V146H1000.53V136.2H1001.73V142.57L1004.98 139H1006.65L1003.76 142.136L1006.77 146Z" fill="#615E83"/>
<path d="M984.665 200.834C985.122 201.058 985.472 201.371 985.715 201.772C985.967 202.164 986.093 202.645 986.093 203.214C986.093 204.129 985.785 204.852 985.169 205.384C984.553 205.907 983.708 206.168 982.635 206.168C981.562 206.168 980.717 205.907 980.101 205.384C979.485 204.852 979.177 204.129 979.177 203.214C979.177 202.645 979.298 202.164 979.541 201.772C979.793 201.371 980.152 201.058 980.619 200.834C979.844 200.414 979.457 199.719 979.457 198.748C979.457 197.908 979.737 197.245 980.297 196.76C980.866 196.275 981.646 196.032 982.635 196.032C983.624 196.032 984.404 196.275 984.973 196.76C985.542 197.245 985.827 197.908 985.827 198.748C985.827 199.719 985.44 200.414 984.665 200.834ZM982.635 197.208C982.028 197.208 981.552 197.343 981.207 197.614C980.871 197.885 980.703 198.263 980.703 198.748C980.703 199.224 980.876 199.602 981.221 199.882C981.566 200.153 982.038 200.288 982.635 200.288C983.242 200.288 983.718 200.153 984.063 199.882C984.408 199.602 984.581 199.224 984.581 198.748C984.581 198.263 984.408 197.885 984.063 197.614C983.718 197.343 983.242 197.208 982.635 197.208ZM982.635 204.964C983.316 204.964 983.858 204.805 984.259 204.488C984.67 204.161 984.875 203.718 984.875 203.158C984.875 202.589 984.674 202.15 984.273 201.842C983.872 201.534 983.326 201.38 982.635 201.38C981.954 201.38 981.408 201.539 980.997 201.856C980.596 202.164 980.395 202.598 980.395 203.158C980.395 203.718 980.596 204.161 980.997 204.488C981.408 204.805 981.954 204.964 982.635 204.964ZM990.893 206.168C990.1 206.168 989.418 205.958 988.849 205.538C988.28 205.118 987.846 204.525 987.547 203.76C987.248 202.995 987.099 202.108 987.099 201.1C987.099 200.092 987.248 199.205 987.547 198.44C987.846 197.675 988.28 197.082 988.849 196.662C989.418 196.242 990.1 196.032 990.893 196.032C991.686 196.032 992.368 196.242 992.937 196.662C993.516 197.082 993.954 197.675 994.253 198.44C994.552 199.205 994.701 200.092 994.701 201.1C994.701 202.108 994.552 202.995 994.253 203.76C993.954 204.525 993.516 205.118 992.937 205.538C992.368 205.958 991.686 206.168 990.893 206.168ZM990.893 204.894C991.686 204.894 992.302 204.572 992.741 203.928C993.189 203.275 993.413 202.332 993.413 201.1C993.413 199.868 993.189 198.93 992.741 198.286C992.302 197.633 991.686 197.306 990.893 197.306C990.109 197.306 989.493 197.633 989.045 198.286C988.597 198.93 988.373 199.868 988.373 201.1C988.373 202.332 988.597 203.275 989.045 203.928C989.493 204.572 990.109 204.894 990.893 204.894ZM1002.27 206H1000.75L998.423 203.032L997.233 204.334V206H996.029V196.2H997.233V202.57L1000.48 199H1002.15L999.263 202.136L1002.27 206Z" fill="#615E83"/>
<path d="M982.579 259.322C983.279 259.322 983.904 259.471 984.455 259.77C985.006 260.069 985.435 260.479 985.743 261.002C986.06 261.515 986.219 262.099 986.219 262.752C986.219 263.405 986.06 263.993 985.743 264.516C985.435 265.029 985.001 265.435 984.441 265.734C983.89 266.023 983.27 266.168 982.579 266.168C981.888 266.168 981.268 266.023 980.717 265.734C980.166 265.435 979.732 265.029 979.415 264.516C979.107 263.993 978.953 263.405 978.953 262.752C978.953 261.968 979.182 261.273 979.639 260.666L982.453 256.2H983.923L981.935 259.364C982.14 259.336 982.355 259.322 982.579 259.322ZM982.579 264.894C983.018 264.894 983.414 264.801 983.769 264.614C984.124 264.427 984.399 264.171 984.595 263.844C984.791 263.517 984.889 263.153 984.889 262.752C984.889 262.351 984.786 261.987 984.581 261.66C984.385 261.324 984.11 261.063 983.755 260.876C983.41 260.689 983.018 260.596 982.579 260.596C982.15 260.596 981.758 260.689 981.403 260.876C981.058 261.063 980.782 261.319 980.577 261.646C980.381 261.973 980.283 262.341 980.283 262.752C980.283 263.163 980.381 263.531 980.577 263.858C980.782 264.185 981.058 264.441 981.403 264.628C981.758 264.805 982.15 264.894 982.579 264.894ZM990.893 266.168C990.1 266.168 989.418 265.958 988.849 265.538C988.28 265.118 987.846 264.525 987.547 263.76C987.248 262.995 987.099 262.108 987.099 261.1C987.099 260.092 987.248 259.205 987.547 258.44C987.846 257.675 988.28 257.082 988.849 256.662C989.418 256.242 990.1 256.032 990.893 256.032C991.686 256.032 992.368 256.242 992.937 256.662C993.516 257.082 993.954 257.675 994.253 258.44C994.552 259.205 994.701 260.092 994.701 261.1C994.701 262.108 994.552 262.995 994.253 263.76C993.954 264.525 993.516 265.118 992.937 265.538C992.368 265.958 991.686 266.168 990.893 266.168ZM990.893 264.894C991.686 264.894 992.302 264.572 992.741 263.928C993.189 263.275 993.413 262.332 993.413 261.1C993.413 259.868 993.189 258.93 992.741 258.286C992.302 257.633 991.686 257.306 990.893 257.306C990.109 257.306 989.493 257.633 989.045 258.286C988.597 258.93 988.373 259.868 988.373 261.1C988.373 262.332 988.597 263.275 989.045 263.928C989.493 264.572 990.109 264.894 990.893 264.894ZM1002.27 266H1000.75L998.423 263.032L997.233 264.334V266H996.029V256.2H997.233V262.57L1000.48 259H1002.15L999.263 262.136L1002.27 266Z" fill="#615E83"/>
<path d="M986.177 324.782V326H979.177V325.622C979.252 324.735 979.536 323.877 980.031 323.046C980.526 322.215 981.216 321.609 982.103 321.226L982.579 321.016C983.083 320.792 983.47 320.605 983.741 320.456C984.021 320.297 984.254 320.101 984.441 319.868C984.628 319.625 984.721 319.331 984.721 318.986C984.721 318.613 984.618 318.291 984.413 318.02C984.208 317.749 983.951 317.549 983.643 317.418C983.335 317.278 983.027 317.208 982.719 317.208C982.084 317.208 981.538 317.339 981.081 317.6C980.624 317.861 980.353 318.258 980.269 318.79L979.051 318.65C979.135 318.099 979.35 317.628 979.695 317.236C980.05 316.835 980.493 316.536 981.025 316.34C981.557 316.135 982.122 316.032 982.719 316.032C983.26 316.032 983.778 316.149 984.273 316.382C984.768 316.606 985.169 316.937 985.477 317.376C985.794 317.815 985.953 318.333 985.953 318.93C985.953 319.537 985.808 320.041 985.519 320.442C985.23 320.843 984.87 321.165 984.441 321.408C984.012 321.651 983.396 321.94 982.593 322.276C982.117 322.491 981.716 322.822 981.389 323.27C981.062 323.709 980.815 324.213 980.647 324.782H986.177ZM990.893 326.168C990.1 326.168 989.418 325.958 988.849 325.538C988.28 325.118 987.846 324.525 987.547 323.76C987.248 322.995 987.099 322.108 987.099 321.1C987.099 320.092 987.248 319.205 987.547 318.44C987.846 317.675 988.28 317.082 988.849 316.662C989.418 316.242 990.1 316.032 990.893 316.032C991.686 316.032 992.368 316.242 992.937 316.662C993.516 317.082 993.954 317.675 994.253 318.44C994.552 319.205 994.701 320.092 994.701 321.1C994.701 322.108 994.552 322.995 994.253 323.76C993.954 324.525 993.516 325.118 992.937 325.538C992.368 325.958 991.686 326.168 990.893 326.168ZM990.893 324.894C991.686 324.894 992.302 324.572 992.741 323.928C993.189 323.275 993.413 322.332 993.413 321.1C993.413 319.868 993.189 318.93 992.741 318.286C992.302 317.633 991.686 317.306 990.893 317.306C990.109 317.306 989.493 317.633 989.045 318.286C988.597 318.93 988.373 319.868 988.373 321.1C988.373 322.332 988.597 323.275 989.045 323.928C989.493 324.572 990.109 324.894 990.893 324.894ZM1002.27 326H1000.75L998.423 323.032L997.233 324.334V326H996.029V316.2H997.233V322.57L1000.48 319H1002.15L999.263 322.136L1002.27 326Z" fill="#615E83"/>
<path d="M983.405 376.2V384.796H986.247V386H979.037V384.796H982.131V377.53L980.255 378.426L979.639 377.418L982.131 376.2H983.405ZM990.893 386.168C990.1 386.168 989.418 385.958 988.849 385.538C988.28 385.118 987.846 384.525 987.547 383.76C987.248 382.995 987.099 382.108 987.099 381.1C987.099 380.092 987.248 379.205 987.547 378.44C987.846 377.675 988.28 377.082 988.849 376.662C989.418 376.242 990.1 376.032 990.893 376.032C991.686 376.032 992.368 376.242 992.937 376.662C993.516 377.082 993.954 377.675 994.253 378.44C994.552 379.205 994.701 380.092 994.701 381.1C994.701 382.108 994.552 382.995 994.253 383.76C993.954 384.525 993.516 385.118 992.937 385.538C992.368 385.958 991.686 386.168 990.893 386.168ZM990.893 384.894C991.686 384.894 992.302 384.572 992.741 383.928C993.189 383.275 993.413 382.332 993.413 381.1C993.413 379.868 993.189 378.93 992.741 378.286C992.302 377.633 991.686 377.306 990.893 377.306C990.109 377.306 989.493 377.633 989.045 378.286C988.597 378.93 988.373 379.868 988.373 381.1C988.373 382.332 988.597 383.275 989.045 383.928C989.493 384.572 990.109 384.894 990.893 384.894ZM1002.27 386H1000.75L998.423 383.032L997.233 384.334V386H996.029V376.2H997.233V382.57L1000.48 379H1002.15L999.263 382.136L1002.27 386Z" fill="#615E83"/>
<path d="M986.893 440.064C987.938 440.064 988.76 440.311 989.357 440.806C989.964 441.301 990.267 441.987 990.267 442.864C990.267 443.881 989.964 444.684 989.357 445.272C988.76 445.86 987.938 446.154 986.893 446.154C985.941 446.154 985.162 445.939 984.555 445.51C983.948 445.071 983.584 444.474 983.463 443.718L984.695 443.578C984.826 443.998 985.087 444.329 985.479 444.572C985.871 444.815 986.342 444.936 986.893 444.936C987.565 444.936 988.092 444.754 988.475 444.39C988.867 444.017 989.063 443.508 989.063 442.864C989.063 442.341 988.867 441.931 988.475 441.632C988.092 441.324 987.565 441.17 986.893 441.17H984.695V441.142L983.897 441.17L984.541 436.2H989.973V437.404H985.591L985.269 440.064H986.893ZM998.273 446H996.747L994.423 443.032L993.233 444.334V446H992.029V436.2H993.233V442.57L996.481 439H998.147L995.263 442.136L998.273 446Z" fill="#615E83"/>
<line x1="38.5" y1="140.049" x2="956.857" y2="140.049" stroke="#E5E5EF" stroke-linecap="round"/>
<line x1="38.5" y1="200.049" x2="956.857" y2="200.049" stroke="#E5E5EF" stroke-linecap="round"/>
<line x1="38.5" y1="260.049" x2="956.857" y2="260.049" stroke="#E5E5EF" stroke-linecap="round"/>
<line x1="38.5" y1="320.049" x2="956.857" y2="320.049" stroke="#E5E5EF" stroke-linecap="round"/>
<line x1="38.5" y1="380.049" x2="956.857" y2="380.049" stroke="#E5E5EF" stroke-linecap="round"/>
<line x1="38.5" y1="446.524" x2="956.857" y2="446.524" stroke="#E5E5EF" stroke-linecap="round"/>
<g style="mix-blend-mode:multiply" opacity="0.33">
<path d="M90.6965 264.478C75.4094 288.463 49.9224 295.454 39.0898 295.952V446.239H957.357V217.339C944.346 221.74 913.645 241.546 894.932 285.564C871.539 340.585 836.286 305.661 822.119 295.118C807.952 284.575 782.912 281.28 767.427 282.928C751.942 284.575 727.561 288.199 716.03 267.772C704.498 247.345 692.857 234.062 661.338 239.108C633.333 240.097 621.142 239.767 607.964 229.883C594.785 219.999 555.578 196.936 527.573 225.271C499.568 253.605 470.575 266.454 440.263 228.236C409.952 190.017 377.664 194.63 365.144 207.15C352.625 219.67 344.38 257.833 314.21 269.05C288.571 274.146 273.592 282.526 246.535 310.603C211.612 346.845 190.526 314.886 174.382 276.009C158.238 237.132 109.805 234.496 90.6965 264.478Z" fill="#ADC5FF"/>
</g>
<g style="mix-blend-mode:multiply" opacity="0.33">
<path d="M90.6965 264.478C75.4094 288.463 49.9224 295.454 39.0898 295.952V446.239H957.357V217.339C944.346 221.74 913.645 241.547 894.932 285.564C871.539 340.585 836.286 305.661 822.119 295.118C807.952 284.575 782.912 281.281 767.427 282.928C751.942 284.575 727.561 288.199 716.03 267.772C704.498 247.345 692.857 234.062 661.338 239.108C633.333 240.097 621.142 239.767 607.964 229.883C594.785 219.999 555.578 196.936 527.573 225.271C499.568 253.605 470.575 266.454 440.263 228.236C409.952 190.017 377.664 194.63 365.144 207.15C352.625 219.67 344.38 257.833 314.21 269.05C288.571 274.146 273.592 282.526 246.535 310.603C211.612 346.845 190.526 314.886 174.382 276.009C158.238 237.132 109.805 234.496 90.6965 264.478Z" fill="#ADC5FF"/>
</g>
<path d="M40.5879 295.696C51.3856 295.198 76.7906 288.207 92.0285 264.222C111.076 234.24 159.352 236.876 175.444 275.753C191.536 314.63 212.555 346.589 247.366 310.347C282.177 274.106 285.349 278.715 315.347 269.493C345.634 260.182 346.329 228.859 367.884 207.235C380.364 194.715 410.257 189.761 440.471 227.98C470.684 266.198 499.584 253.349 527.499 225.015C555.414 196.68 594.495 219.743 607.631 229.627C620.768 239.511 636.475 242.579 660.834 238.852C691.181 234.209 703.855 247.089 715.349 267.516C726.844 287.943 751.146 284.319 766.581 282.672C782.017 281.025 806.976 284.319 821.097 294.862C835.219 305.405 870.359 340.329 893.676 285.308C912.33 241.29 942.932 221.484 955.901 217.083" stroke="#1748C9" stroke-width="3" stroke-linecap="round" stroke-linejoin="round"/>
<line x1="391.839" y1="218.247" x2="391.839" y2="445" stroke="#4A3AFF" stroke-width="2" stroke-linecap="round"/>
<g filter="url(#filter1_d_122_259)">
<ellipse cx="391.447" cy="217.247" rx="9.44702" ry="10.2472" fill="#4A3AFF"/>
<path d="M399.894 217.247C399.894 222.432 396.037 226.494 391.447 226.494C386.857 226.494 383 222.432 383 217.247C383 212.062 386.857 208 391.447 208C396.037 208 399.894 212.062 399.894 217.247Z" stroke="#C8D6F9" stroke-width="2"/>
</g>
<line x1="587.839" y1="246.961" x2="587.839" y2="445" stroke="#4A3AFF" stroke-width="2" stroke-linecap="round"/>
<g filter="url(#filter2_d_122_259)">
<ellipse cx="587.447" cy="245.961" rx="9.44702" ry="8.96091" fill="#4A3AFF"/>
<path d="M595.894 245.961C595.894 250.308 592.163 253.922 587.447 253.922C582.731 253.922 579 250.308 579 245.961C579 241.613 582.731 238 587.447 238C592.163 238 595.894 241.613 595.894 245.961Z" stroke="#C8D6F9" stroke-width="2"/>
</g>
<line x1="106.839" y1="274.76" x2="106.839" y2="446" stroke="#4A3AFF" stroke-width="2" stroke-linecap="round"/>
<g filter="url(#filter3_d_122_259)">
<ellipse cx="106.447" cy="273.76" rx="9.44702" ry="7.76041" fill="#4A3AFF"/>
<path d="M114.894 273.76C114.894 277.319 111.305 280.521 106.447 280.521C101.589 280.521 98 277.319 98 273.76C98 270.202 101.589 267 106.447 267C111.305 267 114.894 270.202 114.894 273.76Z" stroke="#C8D6F9" stroke-width="2"/>
</g>
<line x1="783.839" y1="294.86" x2="783.839" y2="446" stroke="#4A3AFF" stroke-width="2" stroke-linecap="round"/>
<g filter="url(#filter4_d_122_259)">
<ellipse cx="783.447" cy="293.86" rx="9.44702" ry="6.86003" fill="#4A3AFF"/>
<path d="M791.894 293.86C791.894 295.355 791.062 296.796 789.539 297.902C788.018 299.006 785.868 299.72 783.447 299.72C781.026 299.72 778.876 299.006 777.355 297.902C775.832 296.796 775 295.355 775 293.86C775 292.365 775.832 290.924 777.355 289.818C778.876 288.714 781.026 288 783.447 288C785.868 288 788.018 288.714 789.539 289.818C791.062 290.924 791.894 292.365 791.894 293.86Z" stroke="#C8D6F9" stroke-width="2"/>
</g>
<rect x="770" y="31.5" width="248" height="49" rx="14.7687" fill="#F8F8FF"/>
<rect x="924" y="37.5001" width="64" height="41" rx="13" fill="#1E1B39"/>
<path d="M947.149 61.2821V62.5001H940.149V62.1221C940.223 61.2354 940.508 60.3767 941.003 59.5461C941.497 58.7154 942.188 58.1087 943.075 57.7261L943.551 57.5161C944.055 57.2921 944.442 57.1054 944.713 56.9561C944.993 56.7974 945.226 56.6014 945.413 56.3681C945.599 56.1254 945.693 55.8314 945.693 55.4861C945.693 55.1127 945.59 54.7907 945.385 54.5201C945.179 54.2494 944.923 54.0487 944.615 53.9181C944.307 53.7781 943.999 53.7081 943.691 53.7081C943.056 53.7081 942.51 53.8387 942.053 54.1001C941.595 54.3614 941.325 54.7581 941.241 55.2901L940.023 55.1501C940.107 54.5994 940.321 54.1281 940.667 53.7361C941.021 53.3347 941.465 53.0361 941.997 52.8401C942.529 52.6347 943.093 52.5321 943.691 52.5321C944.232 52.5321 944.75 52.6487 945.245 52.8821C945.739 53.1061 946.141 53.4374 946.449 53.8761C946.766 54.3147 946.925 54.8327 946.925 55.4301C946.925 56.0367 946.78 56.5407 946.491 56.9421C946.201 57.3434 945.842 57.6654 945.413 57.9081C944.983 58.1507 944.367 58.4401 943.565 58.7761C943.089 58.9907 942.687 59.3221 942.361 59.7701C942.034 60.2087 941.787 60.7127 941.619 61.2821H947.149ZM951.865 62.6681C951.072 62.6681 950.39 62.4581 949.821 62.0381C949.252 61.6181 948.818 61.0254 948.519 60.2601C948.22 59.4947 948.071 58.6081 948.071 57.6001C948.071 56.5921 948.22 55.7054 948.519 54.9401C948.818 54.1747 949.252 53.5821 949.821 53.1621C950.39 52.7421 951.072 52.5321 951.865 52.5321C952.658 52.5321 953.34 52.7421 953.909 53.1621C954.488 53.5821 954.926 54.1747 955.225 54.9401C955.524 55.7054 955.673 56.5921 955.673 57.6001C955.673 58.6081 955.524 59.4947 955.225 60.2601C954.926 61.0254 954.488 61.6181 953.909 62.0381C953.34 62.4581 952.658 62.6681 951.865 62.6681ZM951.865 61.3941C952.658 61.3941 953.274 61.0721 953.713 60.4281C954.161 59.7747 954.385 58.8321 954.385 57.6001C954.385 56.3681 954.161 55.4301 953.713 54.7861C953.274 54.1327 952.658 53.8061 951.865 53.8061C951.081 53.8061 950.465 54.1327 950.017 54.7861C949.569 55.4301 949.345 56.3681 949.345 57.6001C949.345 58.8321 949.569 59.7747 950.017 60.4281C950.465 61.0721 951.081 61.3941 951.865 61.3941ZM963.665 61.2821V62.5001H956.665V62.1221C956.74 61.2354 957.024 60.3767 957.519 59.5461C958.014 58.7154 958.704 58.1087 959.591 57.7261L960.067 57.5161C960.571 57.2921 960.958 57.1054 961.229 56.9561C961.509 56.7974 961.742 56.6014 961.929 56.3681C962.116 56.1254 962.209 55.8314 962.209 55.4861C962.209 55.1127 962.106 54.7907 961.901 54.5201C961.696 54.2494 961.439 54.0487 961.131 53.9181C960.823 53.7781 960.515 53.7081 960.207 53.7081C959.572 53.7081 959.026 53.8387 958.569 54.1001C958.112 54.3614 957.841 54.7581 957.757 55.2901L956.539 55.1501C956.623 54.5994 956.838 54.1281 957.183 53.7361C957.538 53.3347 957.981 53.0361 958.513 52.8401C959.045 52.6347 959.61 52.5321 960.207 52.5321C960.748 52.5321 961.266 52.6487 961.761 52.8821C962.256 53.1061 962.657 53.4374 962.965 53.8761C963.282 54.3147 963.441 54.8327 963.441 55.4301C963.441 56.0367 963.296 56.5407 963.007 56.9421C962.718 57.3434 962.358 57.6654 961.929 57.9081C961.5 58.1507 960.884 58.4401 960.081 58.7761C959.605 58.9907 959.204 59.3221 958.877 59.7701C958.55 60.2087 958.303 60.7127 958.135 61.2821H963.665ZM970.313 57.2641C970.761 57.5254 971.111 57.8661 971.363 58.2861C971.615 58.7061 971.741 59.1727 971.741 59.6861C971.741 60.2554 971.592 60.7641 971.293 61.2121C970.994 61.6601 970.579 62.0147 970.047 62.2761C969.524 62.5281 968.941 62.6541 968.297 62.6541C967.737 62.6541 967.21 62.5514 966.715 62.3461C966.23 62.1314 965.828 61.8374 965.511 61.4641C965.194 61.0814 964.998 60.6567 964.923 60.1901L966.267 60.0781C966.388 60.4701 966.64 60.7967 967.023 61.0581C967.406 61.3101 967.83 61.4361 968.297 61.4361C968.932 61.4361 969.454 61.2681 969.865 60.9321C970.276 60.5867 970.481 60.1527 970.481 59.6301C970.481 59.1074 970.271 58.6781 969.851 58.3421C969.44 57.9967 968.922 57.8241 968.297 57.8241H967.807V56.7461L968.297 56.7601C968.848 56.7601 969.305 56.6154 969.669 56.3261C970.033 56.0367 970.215 55.6681 970.215 55.2201C970.215 54.7814 970.033 54.4174 969.669 54.1281C969.305 53.8387 968.843 53.6941 968.283 53.6941C967.891 53.6941 967.522 53.7967 967.177 54.0021C966.832 54.1981 966.589 54.4454 966.449 54.7441L965.175 54.6461C965.259 54.2447 965.446 53.8854 965.735 53.5681C966.034 53.2414 966.402 52.9894 966.841 52.8121C967.289 52.6254 967.77 52.5321 968.283 52.5321C968.89 52.5321 969.436 52.6487 969.921 52.8821C970.406 53.1154 970.784 53.4374 971.055 53.8481C971.326 54.2494 971.461 54.7067 971.461 55.2201C971.461 55.6401 971.358 56.0274 971.153 56.3821C970.957 56.7367 970.677 57.0307 970.313 57.2641Z" fill="white"/>
<path d="M874.149 61.282V62.5H867.149V62.122C867.223 61.2353 867.508 60.3767 868.003 59.546C868.497 58.7153 869.188 58.1087 870.075 57.726L870.551 57.516C871.055 57.292 871.442 57.1053 871.713 56.956C871.993 56.7973 872.226 56.6013 872.413 56.368C872.599 56.1253 872.693 55.8313 872.693 55.486C872.693 55.1127 872.59 54.7907 872.385 54.52C872.179 54.2493 871.923 54.0487 871.615 53.918C871.307 53.778 870.999 53.708 870.691 53.708C870.056 53.708 869.51 53.8387 869.053 54.1C868.595 54.3613 868.325 54.758 868.241 55.29L867.023 55.15C867.107 54.5993 867.321 54.128 867.667 53.736C868.021 53.3347 868.465 53.036 868.997 52.84C869.529 52.6347 870.093 52.532 870.691 52.532C871.232 52.532 871.75 52.6487 872.245 52.882C872.739 53.106 873.141 53.4373 873.449 53.876C873.766 54.3147 873.925 54.8327 873.925 55.43C873.925 56.0367 873.78 56.5407 873.491 56.942C873.201 57.3433 872.842 57.6653 872.413 57.908C871.983 58.1507 871.367 58.44 870.565 58.776C870.089 58.9907 869.687 59.322 869.361 59.77C869.034 60.2087 868.787 60.7127 868.619 61.282H874.149ZM878.865 62.668C878.072 62.668 877.39 62.458 876.821 62.038C876.252 61.618 875.818 61.0253 875.519 60.26C875.22 59.4947 875.071 58.608 875.071 57.6C875.071 56.592 875.22 55.7053 875.519 54.94C875.818 54.1747 876.252 53.582 876.821 53.162C877.39 52.742 878.072 52.532 878.865 52.532C879.658 52.532 880.34 52.742 880.909 53.162C881.488 53.582 881.926 54.1747 882.225 54.94C882.524 55.7053 882.673 56.592 882.673 57.6C882.673 58.608 882.524 59.4947 882.225 60.26C881.926 61.0253 881.488 61.618 880.909 62.038C880.34 62.458 879.658 62.668 878.865 62.668ZM878.865 61.394C879.658 61.394 880.274 61.072 880.713 60.428C881.161 59.7747 881.385 58.832 881.385 57.6C881.385 56.368 881.161 55.43 880.713 54.786C880.274 54.1327 879.658 53.806 878.865 53.806C878.081 53.806 877.465 54.1327 877.017 54.786C876.569 55.43 876.345 56.368 876.345 57.6C876.345 58.832 876.569 59.7747 877.017 60.428C877.465 61.072 878.081 61.394 878.865 61.394ZM890.665 61.282V62.5H883.665V62.122C883.74 61.2353 884.024 60.3767 884.519 59.546C885.014 58.7153 885.704 58.1087 886.591 57.726L887.067 57.516C887.571 57.292 887.958 57.1053 888.229 56.956C888.509 56.7973 888.742 56.6013 888.929 56.368C889.116 56.1253 889.209 55.8313 889.209 55.486C889.209 55.1127 889.106 54.7907 888.901 54.52C888.696 54.2493 888.439 54.0487 888.131 53.918C887.823 53.778 887.515 53.708 887.207 53.708C886.572 53.708 886.026 53.8387 885.569 54.1C885.112 54.3613 884.841 54.758 884.757 55.29L883.539 55.15C883.623 54.5993 883.838 54.128 884.183 53.736C884.538 53.3347 884.981 53.036 885.513 52.84C886.045 52.6347 886.61 52.532 887.207 52.532C887.748 52.532 888.266 52.6487 888.761 52.882C889.256 53.106 889.657 53.4373 889.965 53.876C890.282 54.3147 890.441 54.8327 890.441 55.43C890.441 56.0367 890.296 56.5407 890.007 56.942C889.718 57.3433 889.358 57.6653 888.929 57.908C888.5 58.1507 887.884 58.44 887.081 58.776C886.605 58.9907 886.204 59.322 885.877 59.77C885.55 60.2087 885.303 60.7127 885.135 61.282H890.665ZM898.923 61.282V62.5H891.923V62.122C891.998 61.2353 892.282 60.3767 892.777 59.546C893.272 58.7153 893.962 58.1087 894.849 57.726L895.325 57.516C895.829 57.292 896.216 57.1053 896.487 56.956C896.767 56.7973 897 56.6013 897.187 56.368C897.374 56.1253 897.467 55.8313 897.467 55.486C897.467 55.1127 897.364 54.7907 897.159 54.52C896.954 54.2493 896.697 54.0487 896.389 53.918C896.081 53.778 895.773 53.708 895.465 53.708C894.83 53.708 894.284 53.8387 893.827 54.1C893.37 54.3613 893.099 54.758 893.015 55.29L891.797 55.15C891.881 54.5993 892.096 54.128 892.441 53.736C892.796 53.3347 893.239 53.036 893.771 52.84C894.303 52.6347 894.868 52.532 895.465 52.532C896.006 52.532 896.524 52.6487 897.019 52.882C897.514 53.106 897.915 53.4373 898.223 53.876C898.54 54.3147 898.699 54.8327 898.699 55.43C898.699 56.0367 898.554 56.5407 898.265 56.942C897.976 57.3433 897.616 57.6653 897.187 57.908C896.758 58.1507 896.142 58.44 895.339 58.776C894.863 58.9907 894.462 59.322 894.135 59.77C893.808 60.2087 893.561 60.7127 893.393 61.282H898.923Z" fill="#9291A5"/>
<path d="M801.149 61.187V62.405H794.149V62.027C794.223 61.1404 794.508 60.2817 795.003 59.451C795.497 58.6204 796.188 58.0137 797.075 57.631L797.551 57.421C798.055 57.197 798.442 57.0104 798.713 56.861C798.993 56.7024 799.226 56.5064 799.413 56.273C799.599 56.0304 799.693 55.7364 799.693 55.391C799.693 55.0177 799.59 54.6957 799.385 54.425C799.179 54.1544 798.923 53.9537 798.615 53.823C798.307 53.683 797.999 53.613 797.691 53.613C797.056 53.613 796.51 53.7437 796.053 54.005C795.595 54.2664 795.325 54.663 795.241 55.195L794.023 55.055C794.107 54.5044 794.321 54.033 794.667 53.641C795.021 53.2397 795.465 52.941 795.997 52.745C796.529 52.5397 797.093 52.437 797.691 52.437C798.232 52.437 798.75 52.5537 799.245 52.787C799.739 53.011 800.141 53.3424 800.449 53.781C800.766 54.2197 800.925 54.7377 800.925 55.335C800.925 55.9417 800.78 56.4457 800.491 56.847C800.201 57.2484 799.842 57.5704 799.413 57.813C798.983 58.0557 798.367 58.345 797.565 58.681C797.089 58.8957 796.687 59.227 796.361 59.675C796.034 60.1137 795.787 60.6177 795.619 61.187H801.149ZM805.865 62.573C805.072 62.573 804.39 62.363 803.821 61.943C803.252 61.523 802.818 60.9304 802.519 60.165C802.22 59.3997 802.071 58.513 802.071 57.505C802.071 56.497 802.22 55.6104 802.519 54.845C802.818 54.0797 803.252 53.487 803.821 53.067C804.39 52.647 805.072 52.437 805.865 52.437C806.658 52.437 807.34 52.647 807.909 53.067C808.488 53.487 808.926 54.0797 809.225 54.845C809.524 55.6104 809.673 56.497 809.673 57.505C809.673 58.513 809.524 59.3997 809.225 60.165C808.926 60.9304 808.488 61.523 807.909 61.943C807.34 62.363 806.658 62.573 805.865 62.573ZM805.865 61.299C806.658 61.299 807.274 60.977 807.713 60.333C808.161 59.6797 808.385 58.737 808.385 57.505C808.385 56.273 808.161 55.335 807.713 54.691C807.274 54.0377 806.658 53.711 805.865 53.711C805.081 53.711 804.465 54.0377 804.017 54.691C803.569 55.335 803.345 56.273 803.345 57.505C803.345 58.737 803.569 59.6797 804.017 60.333C804.465 60.977 805.081 61.299 805.865 61.299ZM817.665 61.187V62.405H810.665V62.027C810.74 61.1404 811.024 60.2817 811.519 59.451C812.014 58.6204 812.704 58.0137 813.591 57.631L814.067 57.421C814.571 57.197 814.958 57.0104 815.229 56.861C815.509 56.7024 815.742 56.5064 815.929 56.273C816.116 56.0304 816.209 55.7364 816.209 55.391C816.209 55.0177 816.106 54.6957 815.901 54.425C815.696 54.1544 815.439 53.9537 815.131 53.823C814.823 53.683 814.515 53.613 814.207 53.613C813.572 53.613 813.026 53.7437 812.569 54.005C812.112 54.2664 811.841 54.663 811.757 55.195L810.539 55.055C810.623 54.5044 810.838 54.033 811.183 53.641C811.538 53.2397 811.981 52.941 812.513 52.745C813.045 52.5397 813.61 52.437 814.207 52.437C814.748 52.437 815.266 52.5537 815.761 52.787C816.256 53.011 816.657 53.3424 816.965 53.781C817.282 54.2197 817.441 54.7377 817.441 55.335C817.441 55.9417 817.296 56.4457 817.007 56.847C816.718 57.2484 816.358 57.5704 815.929 57.813C815.5 58.0557 814.884 58.345 814.081 58.681C813.605 58.8957 813.204 59.227 812.877 59.675C812.55 60.1137 812.303 60.6177 812.135 61.187H817.665ZM823.151 52.605V61.201H825.993V62.405H818.783V61.201H821.877V53.935L820.001 54.831L819.385 53.823L821.877 52.605H823.151Z" fill="#9291A5"/>
<path d="M42.048 93.192C43.0933 93.704 43.8933 94.4187 44.448 95.336C45.024 96.232 45.312 97.3307 45.312 98.632C45.312 100.723 44.608 102.376 43.2 103.592C41.792 104.787 39.8613 105.384 37.408 105.384C34.9547 105.384 33.024 104.787 31.616 103.592C30.208 102.376 29.504 100.723 29.504 98.632C29.504 97.3307 29.7813 96.232 30.336 95.336C30.912 94.4187 31.7333 93.704 32.8 93.192C31.0293 92.232 30.144 90.6427 30.144 88.424C30.144 86.504 30.784 84.9893 32.064 83.88C33.3653 82.7707 35.1467 82.216 37.408 82.216C39.6693 82.216 41.4507 82.7707 42.752 83.88C44.0533 84.9893 44.704 86.504 44.704 88.424C44.704 90.6427 43.8187 92.232 42.048 93.192ZM37.408 84.904C36.0213 84.904 34.9333 85.2133 34.144 85.832C33.376 86.4507 32.992 87.3147 32.992 88.424C32.992 89.512 33.3867 90.376 34.176 91.016C34.9653 91.6347 36.0427 91.944 37.408 91.944C38.7947 91.944 39.8827 91.6347 40.672 91.016C41.4613 90.376 41.856 89.512 41.856 88.424C41.856 87.3147 41.4613 86.4507 40.672 85.832C39.8827 85.2133 38.7947 84.904 37.408 84.904ZM37.408 102.632C38.9653 102.632 40.2027 102.269 41.12 101.544C42.0587 100.797 42.528 99.784 42.528 98.504C42.528 97.2027 42.0693 96.2 41.152 95.496C40.2347 94.792 38.9867 94.44 37.408 94.44C35.8507 94.44 34.6027 94.8027 33.664 95.528C32.7467 96.232 32.288 97.224 32.288 98.504C32.288 99.784 32.7467 100.797 33.664 101.544C34.6027 102.269 35.8507 102.632 37.408 102.632ZM56.2517 105.384C54.4384 105.384 52.8811 104.904 51.5798 103.944C50.2784 102.984 49.2864 101.629 48.6038 99.88C47.9211 98.1307 47.5798 96.104 47.5798 93.8C47.5798 91.496 47.9211 89.4693 48.6038 87.72C49.2864 85.9707 50.2784 84.616 51.5798 83.656C52.8811 82.696 54.4384 82.216 56.2517 82.216C58.0651 82.216 59.6224 82.696 60.9238 83.656C62.2464 84.616 63.2491 85.9707 63.9318 87.72C64.6144 89.4693 64.9558 91.496 64.9558 93.8C64.9558 96.104 64.6144 98.1307 63.9318 99.88C63.2491 101.629 62.2464 102.984 60.9238 103.944C59.6224 104.904 58.0651 105.384 56.2517 105.384ZM56.2517 102.472C58.0651 102.472 59.4731 101.736 60.4758 100.264C61.4998 98.7707 62.0118 96.616 62.0118 93.8C62.0118 90.984 61.4998 88.84 60.4758 87.368C59.4731 85.8747 58.0651 85.128 56.2517 85.128C54.4598 85.128 53.0518 85.8747 52.0278 87.368C51.0038 88.84 50.4918 90.984 50.4918 93.8C50.4918 96.616 51.0038 98.7707 52.0278 100.264C53.0518 101.736 54.4598 102.472 56.2517 102.472ZM75.0955 105.384C73.2822 105.384 71.7248 104.904 70.4235 103.944C69.1222 102.984 68.1302 101.629 67.4475 99.88C66.7648 98.1307 66.4235 96.104 66.4235 93.8C66.4235 91.496 66.7648 89.4693 67.4475 87.72C68.1302 85.9707 69.1222 84.616 70.4235 83.656C71.7248 82.696 73.2822 82.216 75.0955 82.216C76.9088 82.216 78.4662 82.696 79.7675 83.656C81.0902 84.616 82.0928 85.9707 82.7755 87.72C83.4582 89.4693 83.7995 91.496 83.7995 93.8C83.7995 96.104 83.4582 98.1307 82.7755 99.88C82.0928 101.629 81.0902 102.984 79.7675 103.944C78.4662 104.904 76.9088 105.384 75.0955 105.384ZM75.0955 102.472C76.9088 102.472 78.3168 101.736 79.3195 100.264C80.3435 98.7707 80.8555 96.616 80.8555 93.8C80.8555 90.984 80.3435 88.84 79.3195 87.368C78.3168 85.8747 76.9088 85.128 75.0955 85.128C73.3035 85.128 71.8955 85.8747 70.8715 87.368C69.8475 88.84 69.3355 90.984 69.3355 93.8C69.3355 96.616 69.8475 98.7707 70.8715 100.264C71.8955 101.736 73.3035 102.472 75.0955 102.472ZM101.075 105H97.5873L92.2753 98.216L89.5553 101.192V105H86.8033V82.6H89.5553V97.16L96.9793 89H100.787L94.1953 96.168L101.075 105Z" fill="#1E1B39"/>
<path d="M136.332 89.6V96.74H138.696V98H132.456V96.74H135V91.004L133.548 91.784L132.864 90.74L135 89.612V89.6H136.332ZM139.977 97.424C139.977 97.2 140.037 97.028 140.157 96.908C140.277 96.78 140.449 96.716 140.673 96.716C140.897 96.716 141.069 96.78 141.189 96.908C141.309 97.028 141.369 97.2 141.369 97.424C141.369 97.656 141.309 97.836 141.189 97.964C141.069 98.084 140.897 98.144 140.673 98.144C140.449 98.144 140.277 98.084 140.157 97.964C140.037 97.836 139.977 97.656 139.977 97.424ZM147.646 93.524C147.998 93.748 148.274 94.036 148.474 94.388C148.674 94.74 148.774 95.124 148.774 95.54C148.774 96.028 148.638 96.472 148.366 96.872C148.102 97.264 147.738 97.572 147.274 97.796C146.81 98.02 146.294 98.132 145.726 98.132C145.214 98.132 144.738 98.036 144.298 97.844C143.858 97.644 143.498 97.376 143.218 97.04C142.946 96.696 142.79 96.308 142.75 95.876L144.13 95.768C144.218 96.088 144.41 96.352 144.706 96.56C145.01 96.768 145.35 96.872 145.726 96.872C146.222 96.872 146.634 96.744 146.962 96.488C147.29 96.224 147.454 95.892 147.454 95.492C147.454 95.084 147.29 94.748 146.962 94.484C146.634 94.22 146.222 94.088 145.726 94.088H145.294L145.306 92.996H145.726C146.166 92.996 146.526 92.888 146.806 92.672C147.094 92.448 147.238 92.164 147.238 91.82C147.238 91.484 147.094 91.204 146.806 90.98C146.518 90.756 146.154 90.644 145.714 90.644C145.402 90.644 145.11 90.724 144.838 90.884C144.566 91.036 144.374 91.228 144.262 91.46L142.942 91.376C143.006 91.008 143.166 90.68 143.422 90.392C143.686 90.096 144.018 89.868 144.418 89.708C144.818 89.54 145.25 89.456 145.714 89.456C146.258 89.456 146.742 89.56 147.166 89.768C147.598 89.968 147.934 90.248 148.174 90.608C148.414 90.968 148.534 91.372 148.534 91.82C148.534 92.164 148.454 92.484 148.294 92.78C148.142 93.068 147.926 93.316 147.646 93.524ZM151.746 93.848C151.354 93.848 151.006 93.764 150.702 93.596C150.406 93.42 150.174 93.18 150.006 92.876C149.838 92.572 149.754 92.236 149.754 91.868C149.754 91.492 149.838 91.152 150.006 90.848C150.174 90.544 150.406 90.308 150.702 90.14C151.006 89.964 151.354 89.876 151.746 89.876C152.138 89.876 152.482 89.964 152.778 90.14C153.082 90.308 153.318 90.544 153.486 90.848C153.654 91.152 153.738 91.492 153.738 91.868C153.738 92.236 153.654 92.572 153.486 92.876C153.318 93.18 153.082 93.42 152.778 93.596C152.482 93.764 152.138 93.848 151.746 93.848ZM151.77 98H150.966L156.078 89.996H156.894L151.77 98ZM151.746 93.044C152.058 93.044 152.314 92.936 152.514 92.72C152.714 92.504 152.814 92.22 152.814 91.868C152.814 91.508 152.714 91.22 152.514 91.004C152.314 90.78 152.058 90.668 151.746 90.668C151.442 90.668 151.19 90.78 150.99 91.004C150.79 91.228 150.69 91.516 150.69 91.868C150.69 92.212 150.79 92.496 150.99 92.72C151.19 92.936 151.442 93.044 151.746 93.044ZM156.054 98.144C155.662 98.144 155.314 98.06 155.01 97.892C154.714 97.716 154.482 97.476 154.314 97.172C154.146 96.868 154.062 96.532 154.062 96.164C154.062 95.788 154.146 95.448 154.314 95.144C154.482 94.84 154.714 94.604 155.01 94.436C155.314 94.26 155.662 94.172 156.054 94.172C156.446 94.172 156.79 94.26 157.086 94.436C157.39 94.604 157.626 94.84 157.794 95.144C157.962 95.448 158.046 95.788 158.046 96.164C158.046 96.532 157.962 96.868 157.794 97.172C157.626 97.476 157.39 97.716 157.086 97.892C156.79 98.06 156.446 98.144 156.054 98.144ZM156.054 97.34C156.366 97.34 156.622 97.232 156.822 97.016C157.022 96.8 157.122 96.516 157.122 96.164C157.122 95.804 157.022 95.516 156.822 95.3C156.622 95.076 156.366 94.964 156.054 94.964C155.742 94.964 155.486 95.076 155.286 95.3C155.086 95.516 154.986 95.804 154.986 96.164C154.986 96.516 155.082 96.8 155.274 97.016C155.474 97.232 155.734 97.34 156.054 97.34Z" fill="#04CE00"/>
<path d="M171.396 97.25L174.308 89.2H175.652L172.11 99H170.682L167.126 89.2H168.484L171.396 97.25ZM180.047 99.168C179.104 99.168 178.311 98.958 177.667 98.538C177.023 98.118 176.58 97.544 176.337 96.816L177.429 96.186C177.616 96.7273 177.928 97.152 178.367 97.46C178.815 97.768 179.38 97.922 180.061 97.922C180.518 97.922 180.901 97.8473 181.209 97.698C181.526 97.5393 181.76 97.3387 181.909 97.096C182.068 96.844 182.147 96.578 182.147 96.298C182.147 95.8967 181.956 95.57 181.573 95.318C181.19 95.066 180.588 94.814 179.767 94.562C179.114 94.366 178.577 94.17 178.157 93.974C177.746 93.778 177.406 93.5073 177.135 93.162C176.874 92.8073 176.743 92.35 176.743 91.79C176.743 91.2393 176.878 90.754 177.149 90.334C177.429 89.914 177.802 89.592 178.269 89.368C178.745 89.144 179.263 89.032 179.823 89.032C180.598 89.032 181.27 89.2233 181.839 89.606C182.408 89.9793 182.842 90.4927 183.141 91.146L182.035 91.762C181.839 91.2953 181.554 90.936 181.181 90.684C180.808 90.4227 180.355 90.292 179.823 90.292C179.272 90.292 178.834 90.4413 178.507 90.74C178.18 91.0293 178.017 91.3793 178.017 91.79C178.017 92.0887 178.096 92.3313 178.255 92.518C178.423 92.7047 178.647 92.8633 178.927 92.994C179.216 93.1153 179.641 93.2647 180.201 93.442C180.91 93.666 181.48 93.8853 181.909 94.1C182.338 94.3053 182.698 94.59 182.987 94.954C183.276 95.318 183.421 95.7847 183.421 96.354C183.421 96.9233 183.276 97.4227 182.987 97.852C182.698 98.272 182.296 98.5987 181.783 98.832C181.279 99.056 180.7 99.168 180.047 99.168ZM189.93 89.2V97.796H194.382V99H188.656V89.2H189.93ZM203.961 99H202.589L201.749 96.76H197.409L196.569 99H195.197L198.879 89.2H200.265L203.961 99ZM199.579 91.006L197.871 95.556H201.301L199.579 91.006ZM207.912 99.168C206.969 99.168 206.176 98.958 205.532 98.538C204.888 98.118 204.444 97.544 204.202 96.816L205.294 96.186C205.48 96.7273 205.793 97.152 206.232 97.46C206.68 97.768 207.244 97.922 207.926 97.922C208.383 97.922 208.766 97.8473 209.074 97.698C209.391 97.5393 209.624 97.3387 209.774 97.096C209.932 96.844 210.012 96.578 210.012 96.298C210.012 95.8967 209.82 95.57 209.438 95.318C209.055 95.066 208.453 94.814 207.632 94.562C206.978 94.366 206.442 94.17 206.022 93.974C205.611 93.778 205.27 93.5073 205 93.162C204.738 92.8073 204.608 92.35 204.608 91.79C204.608 91.2393 204.743 90.754 205.014 90.334C205.294 89.914 205.667 89.592 206.134 89.368C206.61 89.144 207.128 89.032 207.688 89.032C208.462 89.032 209.134 89.2233 209.704 89.606C210.273 89.9793 210.707 90.4927 211.006 91.146L209.9 91.762C209.704 91.2953 209.419 90.936 209.046 90.684C208.672 90.4227 208.22 90.292 207.688 90.292C207.137 90.292 206.698 90.4413 206.372 90.74C206.045 91.0293 205.882 91.3793 205.882 91.79C205.882 92.0887 205.961 92.3313 206.12 92.518C206.288 92.7047 206.512 92.8633 206.792 92.994C207.081 93.1153 207.506 93.2647 208.066 93.442C208.775 93.666 209.344 93.8853 209.774 94.1C210.203 94.3053 210.562 94.59 210.852 94.954C211.141 95.318 211.286 95.7847 211.286 96.354C211.286 96.9233 211.141 97.4227 210.852 97.852C210.562 98.272 210.161 98.5987 209.648 98.832C209.144 99.056 208.565 99.168 207.912 99.168ZM218.676 89.2V90.404H215.778V99H214.504V90.404H211.592V89.2H218.676ZM226.89 93.862L229.634 89.2H231.09L227.52 95.304V99H226.246V95.276L222.676 89.2H224.132L226.89 93.862ZM233.381 94.646V97.796H237.763V99H232.107V89.2H237.693V90.404H233.381V93.442H237.343V94.646H233.381ZM247.33 99H245.958L245.118 96.76H240.778L239.938 99H238.566L242.248 89.2H243.634L247.33 99ZM242.948 91.006L241.24 95.556H244.67L242.948 91.006ZM254.092 99L252.02 95.374H249.528V99H248.254V89.2H252.048C252.608 89.2 253.126 89.34 253.602 89.62C254.078 89.8907 254.451 90.264 254.722 90.74C255.002 91.2067 255.142 91.72 255.142 92.28C255.142 92.896 254.974 93.456 254.638 93.96C254.311 94.464 253.873 94.842 253.322 95.094L255.548 99H254.092ZM249.528 90.418V94.156H252.048C252.384 94.156 252.692 94.072 252.972 93.904C253.261 93.736 253.49 93.5073 253.658 93.218C253.826 92.9287 253.91 92.616 253.91 92.28C253.91 91.944 253.826 91.636 253.658 91.356C253.49 91.0667 253.261 90.838 252.972 90.67C252.692 90.502 252.384 90.418 252.048 90.418H249.528Z" fill="#9291A5"/>
<path d="M36.928 44L34.264 39.338H31.06V44H29.422V31.4H34.3C35.02 31.4 35.686 31.58 36.298 31.94C36.91 32.288 37.39 32.768 37.738 33.38C38.098 33.98 38.278 34.64 38.278 35.36C38.278 36.152 38.062 36.872 37.63 37.52C37.21 38.168 36.646 38.654 35.938 38.978L38.8 44H36.928ZM31.06 32.966V37.772H34.3C34.732 37.772 35.128 37.664 35.488 37.448C35.86 37.232 36.154 36.938 36.37 36.566C36.586 36.194 36.694 35.792 36.694 35.36C36.694 34.928 36.586 34.532 36.37 34.172C36.154 33.8 35.86 33.506 35.488 33.29C35.128 33.074 34.732 32.966 34.3 32.966H31.06ZM44.1252 34.784C45.0012 34.784 45.7812 35 46.4652 35.432C47.1492 35.852 47.6772 36.428 48.0492 37.16C48.4332 37.88 48.6252 38.666 48.6252 39.518C48.6252 39.614 48.6192 39.722 48.6072 39.842C48.5952 39.95 48.5832 40.04 48.5712 40.112H40.9932C41.1132 40.916 41.4612 41.576 42.0372 42.092C42.6252 42.596 43.3692 42.848 44.2692 42.848C44.8212 42.848 45.3432 42.722 45.8352 42.47C46.3392 42.218 46.7112 41.906 46.9512 41.534L48.1752 42.254C47.7792 42.878 47.2392 43.364 46.5552 43.712C45.8832 44.048 45.1152 44.216 44.2512 44.216C43.3032 44.216 42.4632 44.012 41.7312 43.604C40.9992 43.196 40.4292 42.638 40.0212 41.93C39.6132 41.21 39.4092 40.4 39.4092 39.5C39.4092 38.612 39.6072 37.814 40.0032 37.106C40.4112 36.386 40.9692 35.822 41.6772 35.414C42.3972 34.994 43.2132 34.784 44.1252 34.784ZM47.1492 38.852C47.0292 38.012 46.7052 37.352 46.1772 36.872C45.6492 36.392 44.9652 36.152 44.1252 36.152C43.5372 36.152 43.0032 36.278 42.5232 36.53C42.0432 36.782 41.6652 37.118 41.3892 37.538C41.1132 37.946 40.9692 38.384 40.9572 38.852H47.1492ZM51.5301 37.466C51.5301 37.814 51.6921 38.066 52.0161 38.222C52.3521 38.378 52.8861 38.546 53.6181 38.726C54.3261 38.894 54.9021 39.062 55.3461 39.23C55.8021 39.398 56.1861 39.662 56.4981 40.022C56.8221 40.382 56.9841 40.868 56.9841 41.48C56.9841 42.308 56.6421 42.974 55.9581 43.478C55.2741 43.97 54.4161 44.216 53.3841 44.216C52.4601 44.216 51.6801 44.036 51.0441 43.676C50.4081 43.316 49.9461 42.812 49.6581 42.164L50.9361 41.498C51.1281 41.978 51.4341 42.338 51.8541 42.578C52.2741 42.806 52.7841 42.92 53.3841 42.92C53.9481 42.92 54.4341 42.794 54.8421 42.542C55.2621 42.29 55.4721 41.942 55.4721 41.498C55.4721 41.222 55.3701 40.994 55.1661 40.814C54.9741 40.634 54.7281 40.496 54.4281 40.4C54.1401 40.304 53.7261 40.184 53.1861 40.04C52.5021 39.872 51.9441 39.71 51.5121 39.554C51.0921 39.386 50.7261 39.14 50.4141 38.816C50.1141 38.492 49.9641 38.054 49.9641 37.502C49.9641 36.974 50.1141 36.506 50.4141 36.098C50.7141 35.678 51.1221 35.354 51.6381 35.126C52.1541 34.898 52.7301 34.784 53.3661 34.784C54.1221 34.784 54.7881 34.946 55.3641 35.27C55.9521 35.594 56.4021 36.044 56.7141 36.62L55.4361 37.268C55.2561 36.884 54.9921 36.59 54.6441 36.386C54.2961 36.17 53.8701 36.062 53.3661 36.062C52.8021 36.062 52.3521 36.194 52.0161 36.458C51.6921 36.71 51.5301 37.046 51.5301 37.466ZM64.7928 35H66.3408V44H64.7928V42.938C64.4688 43.322 64.0788 43.634 63.6228 43.874C63.1668 44.102 62.6688 44.216 62.1288 44.216C61.6008 44.216 61.0608 44.108 60.5088 43.892C59.9568 43.664 59.4828 43.268 59.0868 42.704C58.6908 42.128 58.4928 41.354 58.4928 40.382V35H60.0408V40.382C60.0408 41.258 60.2808 41.888 60.7608 42.272C61.2528 42.644 61.8168 42.83 62.4528 42.83C63.0768 42.83 63.6228 42.614 64.0908 42.182C64.5588 41.738 64.7928 41.018 64.7928 40.022V35ZM70.5434 42.092C70.5434 42.296 70.5854 42.44 70.6694 42.524C70.7654 42.596 70.9094 42.632 71.1014 42.632C71.2094 42.632 71.3114 42.626 71.4074 42.614C71.5034 42.602 71.5934 42.59 71.6774 42.578V44C71.2934 44.06 70.9694 44.09 70.7054 44.09C70.1654 44.09 69.7454 43.952 69.4454 43.676C69.1454 43.388 68.9954 42.89 68.9954 42.182V31.4H70.5434V42.092ZM76.2314 41.192C76.2314 41.744 76.3334 42.128 76.5374 42.344C76.7534 42.548 77.0954 42.65 77.5634 42.65C77.7074 42.65 78.0074 42.626 78.4634 42.578V44C77.9474 44.06 77.5154 44.09 77.1674 44.09C76.3154 44.09 75.6854 43.886 75.2774 43.478C74.8814 43.07 74.6834 42.338 74.6834 41.282V36.422H72.6854V35H74.6834V32.552L76.2314 31.994V35H78.4274V36.422H76.2314V41.192ZM81.4038 37.466C81.4038 37.814 81.5658 38.066 81.8898 38.222C82.2258 38.378 82.7598 38.546 83.4918 38.726C84.1998 38.894 84.7758 39.062 85.2198 39.23C85.6758 39.398 86.0598 39.662 86.3718 40.022C86.6958 40.382 86.8578 40.868 86.8578 41.48C86.8578 42.308 86.5158 42.974 85.8318 43.478C85.1478 43.97 84.2898 44.216 83.2578 44.216C82.3338 44.216 81.5538 44.036 80.9178 43.676C80.2818 43.316 79.8198 42.812 79.5318 42.164L80.8098 41.498C81.0018 41.978 81.3078 42.338 81.7278 42.578C82.1478 42.806 82.6578 42.92 83.2578 42.92C83.8218 42.92 84.3078 42.794 84.7158 42.542C85.1358 42.29 85.3458 41.942 85.3458 41.498C85.3458 41.222 85.2438 40.994 85.0398 40.814C84.8478 40.634 84.6018 40.496 84.3018 40.4C84.0138 40.304 83.5998 40.184 83.0598 40.04C82.3758 39.872 81.8178 39.71 81.3858 39.554C80.9658 39.386 80.5998 39.14 80.2878 38.816C79.9878 38.492 79.8378 38.054 79.8378 37.502C79.8378 36.974 79.9878 36.506 80.2878 36.098C80.5878 35.678 80.9958 35.354 81.5118 35.126C82.0278 34.898 82.6038 34.784 83.2398 34.784C83.9958 34.784 84.6618 34.946 85.2378 35.27C85.8258 35.594 86.2758 36.044 86.5878 36.62L85.3098 37.268C85.1298 36.884 84.8658 36.59 84.5178 36.386C84.1698 36.17 83.7438 36.062 83.2398 36.062C82.6758 36.062 82.2258 36.194 81.8898 36.458C81.5658 36.71 81.4038 37.046 81.4038 37.466ZM94.8904 37.466C94.8904 37.814 95.0524 38.066 95.3764 38.222C95.7124 38.378 96.2464 38.546 96.9784 38.726C97.6864 38.894 98.2624 39.062 98.7064 39.23C99.1624 39.398 99.5464 39.662 99.8584 40.022C100.182 40.382 100.344 40.868 100.344 41.48C100.344 42.308 100.002 42.974 99.3184 43.478C98.6344 43.97 97.7764 44.216 96.7444 44.216C95.8204 44.216 95.0404 44.036 94.4044 43.676C93.7684 43.316 93.3064 42.812 93.0184 42.164L94.2964 41.498C94.4884 41.978 94.7944 42.338 95.2144 42.578C95.6344 42.806 96.1444 42.92 96.7444 42.92C97.3084 42.92 97.7944 42.794 98.2024 42.542C98.6224 42.29 98.8324 41.942 98.8324 41.498C98.8324 41.222 98.7304 40.994 98.5264 40.814C98.3344 40.634 98.0884 40.496 97.7884 40.4C97.5004 40.304 97.0864 40.184 96.5464 40.04C95.8624 39.872 95.3044 39.71 94.8724 39.554C94.4524 39.386 94.0864 39.14 93.7744 38.816C93.4744 38.492 93.3244 38.054 93.3244 37.502C93.3244 36.974 93.4744 36.506 93.7744 36.098C94.0744 35.678 94.4824 35.354 94.9984 35.126C95.5144 34.898 96.0904 34.784 96.7264 34.784C97.4824 34.784 98.1484 34.946 98.7244 35.27C99.3124 35.594 99.7624 36.044 100.074 36.62L98.7964 37.268C98.6164 36.884 98.3524 36.59 98.0044 36.386C97.6564 36.17 97.2304 36.062 96.7264 36.062C96.1624 36.062 95.7124 36.194 95.3764 36.458C95.0524 36.71 94.8904 37.046 94.8904 37.466ZM104.699 41.192C104.699 41.744 104.801 42.128 105.005 42.344C105.221 42.548 105.563 42.65 106.031 42.65C106.175 42.65 106.475 42.626 106.931 42.578V44C106.415 44.06 105.983 44.09 105.635 44.09C104.783 44.09 104.153 43.886 103.745 43.478C103.349 43.07 103.151 42.338 103.151 41.282V36.422H101.153V35H103.151V32.552L104.699 31.994V35H106.895V36.422H104.699V41.192ZM116.027 35H117.593V44H116.027V42.65C115.607 43.142 115.103 43.532 114.515 43.82C113.939 44.096 113.321 44.234 112.661 44.234C111.785 44.234 110.999 44.03 110.303 43.622C109.607 43.202 109.067 42.632 108.683 41.912C108.299 41.192 108.107 40.394 108.107 39.518C108.107 38.63 108.299 37.832 108.683 37.124C109.067 36.404 109.601 35.84 110.285 35.432C110.981 35.012 111.773 34.802 112.661 34.802C113.321 34.802 113.939 34.946 114.515 35.234C115.103 35.51 115.607 35.894 116.027 36.386V35ZM112.823 42.74C113.411 42.74 113.951 42.602 114.443 42.326C114.935 42.038 115.319 41.648 115.595 41.156C115.883 40.664 116.027 40.112 116.027 39.5C116.027 38.9 115.883 38.36 115.595 37.88C115.319 37.388 114.935 37.004 114.443 36.728C113.951 36.452 113.411 36.314 112.823 36.314C112.235 36.314 111.701 36.452 111.221 36.728C110.741 37.004 110.363 37.388 110.087 37.88C109.811 38.372 109.673 38.918 109.673 39.518C109.673 40.13 109.811 40.682 110.087 41.174C110.363 41.654 110.741 42.038 111.221 42.326C111.701 42.602 112.235 42.74 112.823 42.74ZM122.58 41.192C122.58 41.744 122.682 42.128 122.886 42.344C123.102 42.548 123.444 42.65 123.912 42.65C124.056 42.65 124.356 42.626 124.812 42.578V44C124.296 44.06 123.864 44.09 123.516 44.09C122.664 44.09 122.034 43.886 121.626 43.478C121.23 43.07 121.032 42.338 121.032 41.282V36.422H119.034V35H121.032V32.552L122.58 31.994V35H124.776V36.422H122.58V41.192ZM127.512 32.948C127.212 32.948 126.972 32.864 126.792 32.696C126.612 32.528 126.522 32.294 126.522 31.994C126.522 31.706 126.612 31.478 126.792 31.31C126.972 31.13 127.212 31.04 127.512 31.04C127.812 31.04 128.052 31.13 128.232 31.31C128.412 31.478 128.502 31.706 128.502 31.994C128.502 32.294 128.412 32.528 128.232 32.696C128.064 32.864 127.824 32.948 127.512 32.948ZM126.738 44V35H128.286V44H126.738ZM131.78 37.466C131.78 37.814 131.942 38.066 132.266 38.222C132.602 38.378 133.136 38.546 133.868 38.726C134.576 38.894 135.152 39.062 135.596 39.23C136.052 39.398 136.436 39.662 136.748 40.022C137.072 40.382 137.234 40.868 137.234 41.48C137.234 42.308 136.892 42.974 136.208 43.478C135.524 43.97 134.666 44.216 133.634 44.216C132.71 44.216 131.93 44.036 131.294 43.676C130.658 43.316 130.196 42.812 129.908 42.164L131.186 41.498C131.378 41.978 131.684 42.338 132.104 42.578C132.524 42.806 133.034 42.92 133.634 42.92C134.198 42.92 134.684 42.794 135.092 42.542C135.512 42.29 135.722 41.942 135.722 41.498C135.722 41.222 135.62 40.994 135.416 40.814C135.224 40.634 134.978 40.496 134.678 40.4C134.39 40.304 133.976 40.184 133.436 40.04C132.752 39.872 132.194 39.71 131.762 39.554C131.342 39.386 130.976 39.14 130.664 38.816C130.364 38.492 130.214 38.054 130.214 37.502C130.214 36.974 130.364 36.506 130.664 36.098C130.964 35.678 131.372 35.354 131.888 35.126C132.404 34.898 132.98 34.784 133.616 34.784C134.372 34.784 135.038 34.946 135.614 35.27C136.202 35.594 136.652 36.044 136.964 36.62L135.686 37.268C135.506 36.884 135.242 36.59 134.894 36.386C134.546 36.17 134.12 36.062 133.616 36.062C133.052 36.062 132.602 36.194 132.266 36.458C131.942 36.71 131.78 37.046 131.78 37.466ZM141.588 41.192C141.588 41.744 141.69 42.128 141.894 42.344C142.11 42.548 142.452 42.65 142.92 42.65C143.064 42.65 143.364 42.626 143.82 42.578V44C143.304 44.06 142.872 44.09 142.524 44.09C141.672 44.09 141.042 43.886 140.634 43.478C140.238 43.07 140.04 42.338 140.04 41.282V36.422H138.042V35H140.04V32.552L141.588 31.994V35H143.784V36.422H141.588V41.192ZM146.521 32.948C146.221 32.948 145.981 32.864 145.801 32.696C145.621 32.528 145.531 32.294 145.531 31.994C145.531 31.706 145.621 31.478 145.801 31.31C145.981 31.13 146.221 31.04 146.521 31.04C146.821 31.04 147.061 31.13 147.241 31.31C147.421 31.478 147.511 31.706 147.511 31.994C147.511 32.294 147.421 32.528 147.241 32.696C147.073 32.864 146.833 32.948 146.521 32.948ZM145.747 44V35H147.295V44H145.747ZM157.432 42.254C157 42.854 156.448 43.334 155.776 43.694C155.116 44.042 154.396 44.216 153.616 44.216C152.764 44.216 151.978 44.006 151.258 43.586C150.538 43.166 149.962 42.596 149.53 41.876C149.11 41.144 148.9 40.352 148.9 39.5C148.9 38.648 149.11 37.862 149.53 37.142C149.962 36.422 150.538 35.852 151.258 35.432C151.978 35.012 152.764 34.802 153.616 34.802C154.384 34.802 155.098 34.976 155.758 35.324C156.418 35.672 156.97 36.14 157.414 36.728L156.136 37.592C155.824 37.196 155.452 36.89 155.02 36.674C154.588 36.458 154.12 36.35 153.616 36.35C153.04 36.35 152.512 36.494 152.032 36.782C151.552 37.058 151.168 37.436 150.88 37.916C150.604 38.396 150.466 38.924 150.466 39.5C150.466 40.076 150.604 40.61 150.88 41.102C151.168 41.582 151.552 41.966 152.032 42.254C152.512 42.53 153.04 42.668 153.616 42.668C154.12 42.668 154.588 42.56 155.02 42.344C155.464 42.116 155.836 41.804 156.136 41.408L157.432 42.254ZM160.511 37.466C160.511 37.814 160.673 38.066 160.997 38.222C161.333 38.378 161.867 38.546 162.599 38.726C163.307 38.894 163.883 39.062 164.327 39.23C164.783 39.398 165.167 39.662 165.479 40.022C165.803 40.382 165.965 40.868 165.965 41.48C165.965 42.308 165.623 42.974 164.939 43.478C164.255 43.97 163.397 44.216 162.365 44.216C161.441 44.216 160.661 44.036 160.025 43.676C159.389 43.316 158.927 42.812 158.639 42.164L159.917 41.498C160.109 41.978 160.415 42.338 160.835 42.578C161.255 42.806 161.765 42.92 162.365 42.92C162.929 42.92 163.415 42.794 163.823 42.542C164.243 42.29 164.453 41.942 164.453 41.498C164.453 41.222 164.351 40.994 164.147 40.814C163.955 40.634 163.709 40.496 163.409 40.4C163.121 40.304 162.707 40.184 162.167 40.04C161.483 39.872 160.925 39.71 160.493 39.554C160.073 39.386 159.707 39.14 159.395 38.816C159.095 38.492 158.945 38.054 158.945 37.502C158.945 36.974 159.095 36.506 159.395 36.098C159.695 35.678 160.103 35.354 160.619 35.126C161.135 34.898 161.711 34.784 162.347 34.784C163.103 34.784 163.769 34.946 164.345 35.27C164.933 35.594 165.383 36.044 165.695 36.62L164.417 37.268C164.237 36.884 163.973 36.59 163.625 36.386C163.277 36.17 162.851 36.062 162.347 36.062C161.783 36.062 161.333 36.194 160.997 36.458C160.673 36.71 160.511 37.046 160.511 37.466Z" fill="#9291A5"/>
<path d="M97.8923 476.6V490.108H104.888V492H95.8903V476.6H97.8923ZM112.342 476.6C113.222 476.6 114.036 476.82 114.784 477.26C115.532 477.685 116.119 478.272 116.544 479.02C116.984 479.753 117.204 480.56 117.204 481.44C117.204 482.32 116.984 483.134 116.544 483.882C116.119 484.63 115.532 485.224 114.784 485.664C114.036 486.089 113.222 486.302 112.342 486.302H109.064V492H107.062V476.6H112.342ZM112.342 484.388C112.87 484.388 113.362 484.256 113.816 483.992C114.271 483.728 114.63 483.369 114.894 482.914C115.158 482.459 115.29 481.968 115.29 481.44C115.29 480.912 115.158 480.428 114.894 479.988C114.63 479.533 114.271 479.174 113.816 478.91C113.362 478.646 112.87 478.514 112.342 478.514H109.064V484.388H112.342Z" fill="#181D2D"/>
<path d="M383.638 492H381.482L380.162 488.48H373.342L372.022 492H369.866L375.652 476.6H377.83L383.638 492ZM376.752 479.438L374.068 486.588H379.458L376.752 479.438ZM390.756 476.6C391.636 476.6 392.45 476.82 393.198 477.26C393.946 477.685 394.533 478.272 394.958 479.02C395.398 479.753 395.618 480.56 395.618 481.44C395.618 482.32 395.398 483.134 394.958 483.882C394.533 484.63 393.946 485.224 393.198 485.664C392.45 486.089 391.636 486.302 390.756 486.302H387.478V492H385.476V476.6H390.756ZM390.756 484.388C391.284 484.388 391.776 484.256 392.23 483.992C392.685 483.728 393.044 483.369 393.308 482.914C393.572 482.459 393.704 481.968 393.704 481.44C393.704 480.912 393.572 480.428 393.308 479.988C393.044 479.533 392.685 479.174 392.23 478.91C391.776 478.646 391.284 478.514 390.756 478.514H387.478V484.388H390.756ZM397.36 484.344C397.36 482.907 397.712 481.579 398.416 480.362C399.135 479.145 400.103 478.184 401.32 477.48C402.537 476.761 403.865 476.402 405.302 476.402C406.769 476.402 408.118 476.776 409.35 477.524C410.582 478.257 411.543 479.24 412.232 480.472L410.472 481.418C409.944 480.509 409.218 479.783 408.294 479.24C407.385 478.683 406.387 478.404 405.302 478.404C404.231 478.404 403.241 478.675 402.332 479.218C401.423 479.746 400.697 480.465 400.154 481.374C399.626 482.283 399.362 483.273 399.362 484.344C399.362 485.415 399.626 486.405 400.154 487.314C400.697 488.223 401.423 488.942 402.332 489.47C403.241 489.998 404.231 490.262 405.302 490.262C406.402 490.262 407.407 489.983 408.316 489.426C409.24 488.869 409.959 488.128 410.472 487.204L412.254 488.172C411.565 489.419 410.597 490.416 409.35 491.164C408.118 491.912 406.769 492.286 405.302 492.286C403.865 492.286 402.537 491.934 401.32 491.23C400.103 490.511 399.135 489.543 398.416 488.326C397.712 487.109 397.36 485.781 397.36 484.344Z" fill="#181D2D"/>
<path d="M579.875 476.6C580.755 476.6 581.569 476.82 582.317 477.26C583.065 477.685 583.652 478.272 584.077 479.02C584.517 479.753 584.737 480.56 584.737 481.44C584.737 482.32 584.517 483.134 584.077 483.882C583.652 484.63 583.065 485.224 582.317 485.664C581.569 486.089 580.755 486.302 579.875 486.302H576.597V492H574.595V476.6H579.875ZM579.875 484.388C580.403 484.388 580.895 484.256 581.349 483.992C581.804 483.728 582.163 483.369 582.427 482.914C582.691 482.459 582.823 481.968 582.823 481.44C582.823 480.912 582.691 480.428 582.427 479.988C582.163 479.533 581.804 479.174 581.349 478.91C580.895 478.646 580.403 478.514 579.875 478.514H576.597V484.388H579.875ZM592.496 476.6C593.933 476.6 595.253 476.945 596.456 477.634C597.658 478.309 598.612 479.24 599.316 480.428C600.02 481.601 600.372 482.907 600.372 484.344C600.372 485.781 600.02 487.087 599.316 488.26C598.612 489.419 597.658 490.335 596.456 491.01C595.253 491.67 593.933 492 592.496 492H586.842V476.6H592.496ZM592.496 490.108C593.581 490.108 594.571 489.859 595.466 489.36C596.36 488.847 597.064 488.15 597.578 487.27C598.106 486.375 598.37 485.393 598.37 484.322C598.37 483.251 598.106 482.269 597.578 481.374C597.064 480.479 596.353 479.775 595.444 479.262C594.549 478.749 593.566 478.492 592.496 478.492H588.844V490.108H592.496ZM608.342 476.6C609.222 476.6 610.036 476.82 610.784 477.26C611.532 477.685 612.119 478.272 612.544 479.02C612.984 479.753 613.204 480.56 613.204 481.44C613.204 482.32 612.984 483.134 612.544 483.882C612.119 484.63 611.532 485.224 610.784 485.664C610.036 486.089 609.222 486.302 608.342 486.302H605.064V492H603.062V476.6H608.342ZM608.342 484.388C608.87 484.388 609.362 484.256 609.816 483.992C610.271 483.728 610.63 483.369 610.894 482.914C611.158 482.459 611.29 481.968 611.29 481.44C611.29 480.912 611.158 480.428 610.894 479.988C610.63 479.533 610.271 479.174 609.816 478.91C609.362 478.646 608.87 478.514 608.342 478.514H605.064V484.388H608.342Z" fill="#181D2D"/>
<path d="M775.029 492.264C773.548 492.264 772.301 491.934 771.289 491.274C770.277 490.614 769.581 489.712 769.199 488.568L770.915 487.578C771.209 488.429 771.7 489.096 772.389 489.58C773.093 490.064 773.981 490.306 775.051 490.306C775.77 490.306 776.371 490.189 776.855 489.954C777.354 489.705 777.721 489.389 777.955 489.008C778.205 488.612 778.329 488.194 778.329 487.754C778.329 487.123 778.029 486.61 777.427 486.214C776.826 485.818 775.88 485.422 774.589 485.026C773.563 484.718 772.719 484.41 772.059 484.102C771.414 483.794 770.879 483.369 770.453 482.826C770.043 482.269 769.837 481.55 769.837 480.67C769.837 479.805 770.05 479.042 770.475 478.382C770.915 477.722 771.502 477.216 772.235 476.864C772.983 476.512 773.797 476.336 774.677 476.336C775.895 476.336 776.951 476.637 777.845 477.238C778.74 477.825 779.422 478.631 779.891 479.658L778.153 480.626C777.845 479.893 777.398 479.328 776.811 478.932C776.225 478.521 775.513 478.316 774.677 478.316C773.812 478.316 773.123 478.551 772.609 479.02C772.096 479.475 771.839 480.025 771.839 480.67C771.839 481.139 771.964 481.521 772.213 481.814C772.477 482.107 772.829 482.357 773.269 482.562C773.724 482.753 774.391 482.987 775.271 483.266C776.386 483.618 777.281 483.963 777.955 484.3C778.63 484.623 779.195 485.07 779.649 485.642C780.104 486.214 780.331 486.947 780.331 487.842C780.331 488.737 780.104 489.521 779.649 490.196C779.195 490.856 778.564 491.369 777.757 491.736C776.965 492.088 776.056 492.264 775.029 492.264ZM788.496 476.6C789.933 476.6 791.253 476.945 792.456 477.634C793.658 478.309 794.612 479.24 795.316 480.428C796.02 481.601 796.372 482.907 796.372 484.344C796.372 485.781 796.02 487.087 795.316 488.26C794.612 489.419 793.658 490.335 792.456 491.01C791.253 491.67 789.933 492 788.496 492H782.842V476.6H788.496ZM788.496 490.108C789.581 490.108 790.571 489.859 791.466 489.36C792.36 488.847 793.064 488.15 793.578 487.27C794.106 486.375 794.37 485.393 794.37 484.322C794.37 483.251 794.106 482.269 793.578 481.374C793.064 480.479 792.353 479.775 791.444 479.262C790.549 478.749 789.566 478.492 788.496 478.492H784.844V490.108H788.496ZM804.342 476.6C805.222 476.6 806.036 476.82 806.784 477.26C807.532 477.685 808.119 478.272 808.544 479.02C808.984 479.753 809.204 480.56 809.204 481.44C809.204 482.32 808.984 483.134 808.544 483.882C808.119 484.63 807.532 485.224 806.784 485.664C806.036 486.089 805.222 486.302 804.342 486.302H801.064V492H799.062V476.6H804.342ZM804.342 484.388C804.87 484.388 805.362 484.256 805.816 483.992C806.271 483.728 806.63 483.369 806.894 482.914C807.158 482.459 807.29 481.968 807.29 481.44C807.29 480.912 807.158 480.428 806.894 479.988C806.63 479.533 806.271 479.174 805.816 478.91C805.362 478.646 804.87 478.514 804.342 478.514H801.064V484.388H804.342Z" fill="#181D2D"/>
<defs>
<filter id="filter0_d_122_259" x="0" y="0" width="1056" height="549.024" filterUnits="userSpaceOnUse" color-interpolation-filters="sRGB">
<feFlood flood-opacity="0" result="BackgroundImageFix"/>
<feColorMatrix in="SourceAlpha" type="matrix" values="0 0 0 0 0 0 0 0 0 0 0 0 0 0 0 0 0 0 127 0" result="hardAlpha"/>
<feOffset dy="2"/>
<feGaussianBlur stdDeviation="3"/>
<feComposite in2="hardAlpha" operator="out"/>
<feColorMatrix type="matrix" values="0 0 0 0 0.0509804 0 0 0 0 0.0392157 0 0 0 0 0.172549 0 0 0 0.08 0"/>
<feBlend mode="normal" in2="BackgroundImageFix" result="effect1_dropShadow_122_259"/>
<feBlend mode="normal" in="SourceGraphic" in2="effect1_dropShadow_122_259" result="shape"/>
</filter>
<filter id="filter1_d_122_259" x="374" y="207" width="34.8945" height="36.4943" filterUnits="userSpaceOnUse" color-interpolation-filters="sRGB">
<feFlood flood-opacity="0" result="BackgroundImageFix"/>
<feColorMatrix in="SourceAlpha" type="matrix" values="0 0 0 0 0 0 0 0 0 0 0 0 0 0 0 0 0 0 127 0" result="hardAlpha"/>
<feOffset dy="8"/>
<feGaussianBlur stdDeviation="4"/>
<feComposite in2="hardAlpha" operator="out"/>
<feColorMatrix type="matrix" values="0 0 0 0 0.0509804 0 0 0 0 0.0392157 0 0 0 0 0.172549 0 0 0 0.08 0"/>
<feBlend mode="normal" in2="BackgroundImageFix" result="effect1_dropShadow_122_259"/>
<feBlend mode="normal" in="SourceGraphic" in2="effect1_dropShadow_122_259" result="shape"/>
</filter>
<filter id="filter2_d_122_259" x="570" y="237" width="34.8945" height="33.9218" filterUnits="userSpaceOnUse" color-interpolation-filters="sRGB">
<feFlood flood-opacity="0" result="BackgroundImageFix"/>
<feColorMatrix in="SourceAlpha" type="matrix" values="0 0 0 0 0 0 0 0 0 0 0 0 0 0 0 0 0 0 127 0" result="hardAlpha"/>
<feOffset dy="8"/>
<feGaussianBlur stdDeviation="4"/>
<feComposite in2="hardAlpha" operator="out"/>
<feColorMatrix type="matrix" values="0 0 0 0 0.0509804 0 0 0 0 0.0392157 0 0 0 0 0.172549 0 0 0 0.08 0"/>
<feBlend mode="normal" in2="BackgroundImageFix" result="effect1_dropShadow_122_259"/>
<feBlend mode="normal" in="SourceGraphic" in2="effect1_dropShadow_122_259" result="shape"/>
</filter>
<filter id="filter3_d_122_259" x="89" y="266" width="34.8945" height="31.5208" filterUnits="userSpaceOnUse" color-interpolation-filters="sRGB">
<feFlood flood-opacity="0" result="BackgroundImageFix"/>
<feColorMatrix in="SourceAlpha" type="matrix" values="0 0 0 0 0 0 0 0 0 0 0 0 0 0 0 0 0 0 127 0" result="hardAlpha"/>
<feOffset dy="8"/>
<feGaussianBlur stdDeviation="4"/>
<feComposite in2="hardAlpha" operator="out"/>
<feColorMatrix type="matrix" values="0 0 0 0 0.0509804 0 0 0 0 0.0392157 0 0 0 0 0.172549 0 0 0 0.08 0"/>
<feBlend mode="normal" in2="BackgroundImageFix" result="effect1_dropShadow_122_259"/>
<feBlend mode="normal" in="SourceGraphic" in2="effect1_dropShadow_122_259" result="shape"/>
</filter>
<filter id="filter4_d_122_259" x="766" y="287" width="34.8945" height="29.7201" filterUnits="userSpaceOnUse" color-interpolation-filters="sRGB">
<feFlood flood-opacity="0" result="BackgroundImageFix"/>
<feColorMatrix in="SourceAlpha" type="matrix" values="0 0 0 0 0 0 0 0 0 0 0 0 0 0 0 0 0 0 127 0" result="hardAlpha"/>
<feOffset dy="8"/>
<feGaussianBlur stdDeviation="4"/>
<feComposite in2="hardAlpha" operator="out"/>
<feColorMatrix type="matrix" values="0 0 0 0 0.0509804 0 0 0 0 0.0392157 0 0 0 0 0.172549 0 0 0 0.08 0"/>
<feBlend mode="normal" in2="BackgroundImageFix" result="effect1_dropShadow_122_259"/>
<feBlend mode="normal" in="SourceGraphic" in2="effect1_dropShadow_122_259" result="shape"/>
</filter>
</defs>
</svg>
