<svg width="344" height="238" viewBox="0 0 344 238" fill="none" xmlns="http://www.w3.org/2000/svg">
<g filter="url(#filter0_i_123_117)">
<g filter="url(#filter1_d_123_117)">
<rect x="6" y="4" width="332" height="225.22" rx="20" fill="white"/>
</g>
<path d="M161.117 197.22L180.884 186.075L187.192 167.991L196.234 176.402L222.939 80.3044L238.079 152.01L252.589 119.627L272.986 167.991L283.079 153.272L291.07 158.949L306 125.725" stroke="#04CE00" stroke-width="3" stroke-linecap="round" stroke-linejoin="round"/>
<path d="M60.0404 127.394C61.243 128.245 62.1817 129.301 62.8564 130.562C63.531 131.794 63.8684 133.144 63.8684 134.61C63.8684 136.429 63.355 138.072 62.3284 139.538C61.331 141.005 59.9524 142.164 58.1924 143.014C56.4617 143.836 54.5257 144.246 52.3844 144.246C50.3897 144.246 48.5417 143.865 46.8404 143.102C45.1684 142.34 43.819 141.298 42.7924 139.978C41.7657 138.629 41.2084 137.118 41.1204 135.446L47.0604 135.006C47.3244 136.121 47.955 137.045 48.9524 137.778C49.9497 138.512 51.0937 138.878 52.3844 138.878C54.0564 138.878 55.435 138.453 56.5204 137.602C57.6057 136.752 58.1484 135.666 58.1484 134.346C58.1484 133.026 57.6057 131.941 56.5204 131.09C55.435 130.24 54.0564 129.814 52.3844 129.814H50.7564L50.8004 125.15H52.3844C53.851 125.15 55.0537 124.798 55.9924 124.094C56.9604 123.39 57.4444 122.481 57.4444 121.366C57.4444 120.252 56.9604 119.342 55.9924 118.638C55.0244 117.905 53.7924 117.538 52.2964 117.538C51.2404 117.538 50.2577 117.788 49.3484 118.286C48.439 118.785 47.7937 119.43 47.4124 120.222L41.7364 119.87C41.9417 118.462 42.5284 117.186 43.4964 116.042C44.4937 114.898 45.755 114.004 47.2804 113.358C48.8057 112.713 50.4777 112.39 52.2964 112.39C54.3497 112.39 56.183 112.786 57.7964 113.578C59.439 114.341 60.715 115.412 61.6244 116.79C62.563 118.14 63.0324 119.665 63.0324 121.366C63.0324 122.569 62.7684 123.684 62.2404 124.71C61.7417 125.737 61.0084 126.632 60.0404 127.394ZM90.6021 138.306V143.718H67.6781V142.398C67.8835 139.494 68.7341 136.678 70.2301 133.95C71.7261 131.222 74.0141 129.242 77.0941 128.01C77.7395 127.717 78.2235 127.512 78.5461 127.394C80.0128 126.778 81.1421 126.265 81.9341 125.854C82.7555 125.414 83.4301 124.901 83.9581 124.314C84.5155 123.698 84.7941 122.98 84.7941 122.158C84.7941 121.19 84.5155 120.369 83.9581 119.694C83.4301 118.99 82.7555 118.462 81.9341 118.11C81.1128 117.758 80.2915 117.582 79.4701 117.582C77.6808 117.582 76.1408 117.949 74.8501 118.682C73.5888 119.386 72.8408 120.472 72.6061 121.938L67.1941 121.366C67.4581 119.489 68.1768 117.876 69.3501 116.526C70.5235 115.177 71.9901 114.15 73.7501 113.446C75.5395 112.742 77.4461 112.39 79.4701 112.39C81.2888 112.39 83.0341 112.772 84.7061 113.534C86.3781 114.297 87.7275 115.397 88.7541 116.834C89.7808 118.272 90.2941 119.958 90.2941 121.894C90.2941 123.83 89.8248 125.444 88.8861 126.734C87.9768 128.025 86.7741 129.096 85.2781 129.946C83.7821 130.768 81.7728 131.662 79.2501 132.63C77.0208 133.51 75.4221 135.402 74.4541 138.306H90.6021ZM105.632 124.622C109.064 124.622 111.777 125.444 113.772 127.086C115.767 128.7 116.764 130.929 116.764 133.774C116.764 137.03 115.767 139.597 113.772 141.474C111.777 143.322 109.064 144.246 105.632 144.246C102.2 144.246 99.4426 143.484 97.3599 141.958C95.3066 140.433 94.1919 138.336 94.0159 135.666L99.4719 135.006C99.7359 136.209 100.411 137.162 101.496 137.866C102.611 138.541 103.989 138.878 105.632 138.878C107.421 138.878 108.829 138.424 109.856 137.514C110.883 136.605 111.396 135.358 111.396 133.774C111.396 132.454 110.883 131.413 109.856 130.65C108.829 129.888 107.421 129.506 105.632 129.506H99.5599V129.418L95.3799 129.506L97.4479 112.962H115.664V118.418H102.244L101.452 124.622H105.632ZM143.102 143.762H136.282L130.122 135.534L126.91 139.054V143.762H121.454V112.962H126.91V131.046L135.182 121.762H142.794L133.818 131.53L143.102 143.762Z" fill="#181D2D"/>
<path d="M107.192 167.272C106.399 168.066 105.64 168.827 104.881 169.588C104.231 170.238 103.581 170.887 102.931 171.535C102.719 171.746 102.462 171.811 102.173 171.726C101.884 171.641 101.712 171.436 101.648 171.146C101.587 170.864 101.694 170.633 101.891 170.433C102.793 169.533 103.693 168.632 104.593 167.73C105.26 167.063 105.928 166.397 106.596 165.731C106.962 165.367 107.387 165.365 107.751 165.725C108.258 166.225 108.762 166.729 109.262 167.236C109.319 167.293 109.354 167.371 109.394 167.431L113.607 163.214C113.547 163.21 113.489 163.204 113.431 163.204C112.944 163.204 112.456 163.208 111.969 163.201C111.647 163.196 111.404 163.039 111.272 162.747C111.146 162.467 111.188 162.195 111.385 161.957C111.455 161.869 111.545 161.798 111.647 161.749C111.75 161.701 111.862 161.677 111.975 161.679C113.142 161.677 114.312 161.675 115.48 161.681C115.921 161.683 116.248 162.018 116.249 162.459C116.253 163.621 116.253 164.783 116.249 165.945C116.249 166.387 115.903 166.733 115.484 166.729C115.065 166.725 114.742 166.395 114.734 165.953C114.727 165.478 114.732 165.003 114.732 164.528V164.331L114.664 164.287C114.622 164.354 114.574 164.417 114.522 164.477C113.031 165.971 111.538 167.465 110.044 168.957C109.655 169.345 109.235 169.346 108.847 168.96C108.339 168.454 107.831 167.946 107.324 167.436C107.28 167.392 107.246 167.338 107.192 167.272Z" fill="#04CE00"/>
<path d="M46.2249 167.45H43.5789V170.404H42.6829V167.45H40.0369V166.638H42.6829V163.768H43.5789V166.638H46.2249V167.45ZM51.5169 161.962V170.558H54.3589V171.762H47.1489V170.558H50.2429V163.292L48.3669 164.188L47.7509 163.18L50.2429 161.962H51.5169ZM61.021 166.596C61.4783 166.82 61.8283 167.133 62.071 167.534C62.323 167.926 62.449 168.407 62.449 168.976C62.449 169.891 62.141 170.614 61.525 171.146C60.909 171.669 60.0643 171.93 58.991 171.93C57.9177 171.93 57.073 171.669 56.457 171.146C55.841 170.614 55.533 169.891 55.533 168.976C55.533 168.407 55.6543 167.926 55.897 167.534C56.149 167.133 56.5083 166.82 56.975 166.596C56.2003 166.176 55.813 165.481 55.813 164.51C55.813 163.67 56.093 163.008 56.653 162.522C57.2223 162.037 58.0017 161.794 58.991 161.794C59.9803 161.794 60.7597 162.037 61.329 162.522C61.8983 163.008 62.183 163.67 62.183 164.51C62.183 165.481 61.7957 166.176 61.021 166.596ZM58.991 162.97C58.3843 162.97 57.9083 163.106 57.563 163.376C57.227 163.647 57.059 164.025 57.059 164.51C57.059 164.986 57.2317 165.364 57.577 165.644C57.9223 165.915 58.3937 166.05 58.991 166.05C59.5977 166.05 60.0737 165.915 60.419 165.644C60.7643 165.364 60.937 164.986 60.937 164.51C60.937 164.025 60.7643 163.647 60.419 163.376C60.0737 163.106 59.5977 162.97 58.991 162.97ZM58.991 170.726C59.6723 170.726 60.2137 170.568 60.615 170.25C61.0257 169.924 61.231 169.48 61.231 168.92C61.231 168.351 61.0303 167.912 60.629 167.604C60.2277 167.296 59.6817 167.142 58.991 167.142C58.3097 167.142 57.7637 167.301 57.353 167.618C56.9517 167.926 56.751 168.36 56.751 168.92C56.751 169.48 56.9517 169.924 57.353 170.25C57.7637 170.568 58.3097 170.726 58.991 170.726ZM64.0711 171.216C64.0711 170.992 64.1318 170.82 64.2531 170.698C64.3838 170.568 64.5565 170.502 64.7711 170.502C64.9951 170.502 65.1678 170.568 65.2891 170.698C65.4105 170.82 65.4711 170.992 65.4711 171.216C65.4711 171.431 65.4105 171.604 65.2891 171.734C65.1678 171.856 64.9951 171.916 64.7711 171.916C64.5565 171.916 64.3838 171.856 64.2531 171.734C64.1318 171.604 64.0711 171.431 64.0711 171.216ZM72.4894 166.526C72.9374 166.788 73.2874 167.128 73.5394 167.548C73.7914 167.968 73.9174 168.435 73.9174 168.948C73.9174 169.518 73.7681 170.026 73.4694 170.474C73.1707 170.922 72.7554 171.277 72.2234 171.538C71.7007 171.79 71.1174 171.916 70.4734 171.916C69.9134 171.916 69.3861 171.814 68.8914 171.608C68.4061 171.394 68.0047 171.1 67.6874 170.726C67.3701 170.344 67.1741 169.919 67.0994 169.452L68.4434 169.34C68.5647 169.732 68.8167 170.059 69.1994 170.32C69.5821 170.572 70.0067 170.698 70.4734 170.698C71.1081 170.698 71.6307 170.53 72.0414 170.194C72.4521 169.849 72.6574 169.415 72.6574 168.892C72.6574 168.37 72.4474 167.94 72.0274 167.604C71.6167 167.259 71.0987 167.086 70.4734 167.086H69.9834V166.008L70.4734 166.022C71.0241 166.022 71.4814 165.878 71.8454 165.588C72.2094 165.299 72.3914 164.93 72.3914 164.482C72.3914 164.044 72.2094 163.68 71.8454 163.39C71.4814 163.101 71.0194 162.956 70.4594 162.956C70.0674 162.956 69.6987 163.059 69.3534 163.264C69.0081 163.46 68.7654 163.708 68.6254 164.006L67.3514 163.908C67.4354 163.507 67.6221 163.148 67.9114 162.83C68.2101 162.504 68.5787 162.252 69.0174 162.074C69.4654 161.888 69.9461 161.794 70.4594 161.794C71.0661 161.794 71.6121 161.911 72.0974 162.144C72.5827 162.378 72.9607 162.7 73.2314 163.11C73.5021 163.512 73.6374 163.969 73.6374 164.482C73.6374 164.902 73.5347 165.29 73.3294 165.644C73.1334 165.999 72.8534 166.293 72.4894 166.526ZM81.3215 168.416H82.5115V169.62H81.3215V171.762H80.0335V169.62H75.0075V168.416L78.3255 161.962H79.7395L76.4355 168.416H80.0335V165.882H81.3215V168.416ZM85.6177 166.904C85.179 166.904 84.787 166.806 84.4417 166.61C84.0964 166.405 83.8257 166.13 83.6297 165.784C83.443 165.43 83.3497 165.038 83.3497 164.608C83.3497 164.17 83.443 163.773 83.6297 163.418C83.8257 163.064 84.0964 162.788 84.4417 162.592C84.787 162.387 85.179 162.284 85.6177 162.284C86.0657 162.284 86.4624 162.387 86.8077 162.592C87.153 162.788 87.4237 163.064 87.6197 163.418C87.8157 163.773 87.9137 164.17 87.9137 164.608C87.9137 165.038 87.8157 165.43 87.6197 165.784C87.433 166.13 87.1624 166.405 86.8077 166.61C86.4624 166.806 86.0657 166.904 85.6177 166.904ZM85.5477 171.762H84.7357L90.6997 162.424H91.5257L85.5477 171.762ZM85.6177 166.106C86.019 166.106 86.3457 165.966 86.5977 165.686C86.8497 165.406 86.9757 165.047 86.9757 164.608C86.9757 164.151 86.8497 163.782 86.5977 163.502C86.3457 163.222 86.019 163.082 85.6177 163.082C85.235 163.082 84.913 163.227 84.6517 163.516C84.3997 163.796 84.2737 164.16 84.2737 164.608C84.2737 165.038 84.3997 165.397 84.6517 165.686C84.913 165.966 85.235 166.106 85.6177 166.106ZM90.5457 171.93C90.107 171.93 89.715 171.832 89.3697 171.636C89.0244 171.431 88.7537 171.156 88.5577 170.81C88.371 170.456 88.2777 170.064 88.2777 169.634C88.2777 169.196 88.371 168.799 88.5577 168.444C88.7537 168.09 89.0244 167.814 89.3697 167.618C89.715 167.413 90.107 167.31 90.5457 167.31C90.9937 167.31 91.3904 167.413 91.7357 167.618C92.081 167.814 92.347 168.09 92.5337 168.444C92.7297 168.799 92.8277 169.196 92.8277 169.634C92.8277 170.064 92.7297 170.456 92.5337 170.81C92.347 171.156 92.081 171.431 91.7357 171.636C91.3904 171.832 90.9937 171.93 90.5457 171.93ZM90.5457 171.132C90.947 171.132 91.2737 170.992 91.5257 170.712C91.7777 170.432 91.9037 170.073 91.9037 169.634C91.9037 169.186 91.7777 168.822 91.5257 168.542C91.2737 168.253 90.947 168.108 90.5457 168.108C90.1537 168.108 89.8317 168.253 89.5797 168.542C89.3277 168.822 89.2017 169.186 89.2017 169.634C89.2017 170.073 89.323 170.432 89.5657 170.712C89.8177 170.992 90.1444 171.132 90.5457 171.132Z" fill="#04CE00"/>
<path d="M45.2284 61.4C45.9724 61.4 46.6624 61.586 47.2984 61.958C47.9344 62.318 48.4324 62.816 48.7924 63.452C49.1644 64.088 49.3504 64.778 49.3504 65.522C49.3504 66.266 49.1644 66.956 48.7924 67.592C48.4324 68.216 47.9344 68.714 47.2984 69.086C46.6624 69.458 45.9724 69.644 45.2284 69.644H42.9964V74H40.6384V61.4H45.2284ZM45.2284 67.394C45.7444 67.394 46.1824 67.214 46.5424 66.854C46.9144 66.482 47.1004 66.038 47.1004 65.522C47.1004 65.006 46.9144 64.562 46.5424 64.19C46.1824 63.818 45.7444 63.632 45.2284 63.632H42.9964V67.394H45.2284ZM55.8025 61.4C56.9785 61.4 58.0585 61.682 59.0425 62.246C60.0385 62.798 60.8245 63.56 61.4005 64.532C61.9765 65.492 62.2645 66.56 62.2645 67.736C62.2645 68.912 61.9765 69.98 61.4005 70.94C60.8245 71.888 60.0385 72.638 59.0425 73.19C58.0585 73.73 56.9785 74 55.8025 74H50.7985V61.4H55.8025ZM55.8025 71.768C56.5585 71.768 57.2485 71.594 57.8725 71.246C58.4965 70.886 58.9885 70.394 59.3485 69.77C59.7205 69.146 59.9065 68.462 59.9065 67.718C59.9065 66.974 59.7205 66.29 59.3485 65.666C58.9885 65.03 58.4965 64.532 57.8725 64.172C57.2485 63.812 56.5585 63.632 55.8025 63.632H53.1565V71.768H55.8025ZM68.8182 61.4C69.5622 61.4 70.2522 61.586 70.8882 61.958C71.5242 62.318 72.0222 62.816 72.3822 63.452C72.7542 64.088 72.9402 64.778 72.9402 65.522C72.9402 66.266 72.7542 66.956 72.3822 67.592C72.0222 68.216 71.5242 68.714 70.8882 69.086C70.2522 69.458 69.5622 69.644 68.8182 69.644H66.5862V74H64.2282V61.4H68.8182ZM68.8182 67.394C69.3342 67.394 69.7722 67.214 70.1322 66.854C70.5042 66.482 70.6902 66.038 70.6902 65.522C70.6902 65.006 70.5042 64.562 70.1322 64.19C69.7722 63.818 69.3342 63.632 68.8182 63.632H66.5862V67.394H68.8182Z" fill="#181D2D"/>
<path d="M43.5884 49.168C42.6644 49.168 41.8804 48.958 41.2364 48.538C40.6017 48.118 40.163 47.5487 39.9204 46.83L40.7884 46.326C40.975 46.886 41.311 47.3387 41.7964 47.684C42.2817 48.02 42.8837 48.188 43.6024 48.188C44.1157 48.188 44.545 48.104 44.8904 47.936C45.2357 47.7587 45.4924 47.53 45.6604 47.25C45.8284 46.97 45.9124 46.6713 45.9124 46.354C45.9124 45.906 45.7024 45.542 45.2824 45.262C44.8624 44.982 44.2277 44.7113 43.3784 44.45C42.6877 44.2353 42.137 44.0393 41.7264 43.862C41.325 43.6753 40.989 43.414 40.7184 43.078C40.457 42.742 40.3264 42.2987 40.3264 41.748C40.3264 41.2067 40.4617 40.7307 40.7324 40.32C41.003 39.9 41.3717 39.5827 41.8384 39.368C42.305 39.144 42.8184 39.032 43.3784 39.032C44.153 39.032 44.8157 39.2233 45.3664 39.606C45.9264 39.9793 46.351 40.488 46.6404 41.132L45.7724 41.594C45.567 41.0993 45.259 40.712 44.8484 40.432C44.447 40.152 43.957 40.012 43.3784 40.012C42.949 40.012 42.5804 40.096 42.2724 40.264C41.9644 40.4227 41.731 40.6373 41.5724 40.908C41.4137 41.1693 41.3344 41.4493 41.3344 41.748C41.3344 42.084 41.4277 42.3593 41.6144 42.574C41.801 42.7793 42.0437 42.9473 42.3424 43.078C42.641 43.1993 43.089 43.358 43.6864 43.554C44.4237 43.7967 45.0024 44.016 45.4224 44.212C45.8517 44.408 46.2064 44.6833 46.4864 45.038C46.7757 45.3833 46.9204 45.836 46.9204 46.396C46.9204 46.956 46.7804 47.446 46.5004 47.866C46.2204 48.2767 45.8284 48.5987 45.3244 48.832C44.8204 49.056 44.2417 49.168 43.5884 49.168ZM49.9696 46.914C49.9696 47.3993 50.0536 47.7353 50.2216 47.922C50.3896 48.0993 50.6696 48.188 51.0616 48.188C51.183 48.188 51.4303 48.1693 51.8036 48.132V49C51.4116 49.0467 51.099 49.07 50.8656 49.07C50.2403 49.07 49.7783 48.916 49.4796 48.608C49.181 48.2907 49.0316 47.74 49.0316 46.956V42.868H47.3796V42H49.0316V39.998L49.9696 39.648V42H51.7756V42.868H49.9696V46.914ZM58.9645 42H59.9025V49H58.9645V47.698C58.6472 48.1553 58.2412 48.5147 57.7465 48.776C57.2612 49.0373 56.7338 49.168 56.1645 49.168C55.4925 49.168 54.8858 49.0093 54.3445 48.692C53.8032 48.3653 53.3785 47.922 53.0705 47.362C52.7718 46.802 52.6225 46.186 52.6225 45.514C52.6225 44.8327 52.7718 44.212 53.0705 43.652C53.3785 43.092 53.8032 42.6533 54.3445 42.336C54.8858 42.0093 55.4925 41.846 56.1645 41.846C56.7338 41.846 57.2612 41.9813 57.7465 42.252C58.2318 42.5133 58.6378 42.8727 58.9645 43.33V42ZM56.2625 48.258C56.7572 48.258 57.2098 48.1367 57.6205 47.894C58.0312 47.6513 58.3532 47.32 58.5865 46.9C58.8292 46.48 58.9505 46.0133 58.9505 45.5C58.9505 44.9867 58.8292 44.5247 58.5865 44.114C58.3532 43.694 58.0312 43.3673 57.6205 43.134C57.2098 42.8913 56.7572 42.77 56.2625 42.77C55.7678 42.77 55.3152 42.8913 54.9045 43.134C54.4938 43.3767 54.1672 43.708 53.9245 44.128C53.6912 44.5387 53.5745 45.0007 53.5745 45.514C53.5745 46.0273 53.6912 46.494 53.9245 46.914C54.1672 47.3247 54.4938 47.6513 54.9045 47.894C55.3152 48.1367 55.7678 48.258 56.2625 48.258ZM63.6005 46.914C63.6005 47.3993 63.6845 47.7353 63.8525 47.922C64.0205 48.0993 64.3005 48.188 64.6925 48.188C64.8138 48.188 65.0611 48.1693 65.4345 48.132V49C65.0425 49.0467 64.7298 49.07 64.4965 49.07C63.8711 49.07 63.4091 48.916 63.1105 48.608C62.8118 48.2907 62.6625 47.74 62.6625 46.956V42.868H61.0105V42H62.6625V39.998L63.6005 39.648V42H65.4065V42.868H63.6005V46.914ZM67.3268 40.194C67.1401 40.194 66.9861 40.138 66.8648 40.026C66.7528 39.914 66.6968 39.7647 66.6968 39.578C66.6968 39.3913 66.7528 39.242 66.8648 39.13C66.9861 39.018 67.1401 38.962 67.3268 38.962C67.5228 38.962 67.6768 39.018 67.7888 39.13C67.9008 39.242 67.9568 39.3913 67.9568 39.578C67.9568 39.7647 67.9008 39.914 67.7888 40.026C67.6768 40.138 67.5228 40.194 67.3268 40.194ZM66.8508 49V42H67.7888V49H66.8508ZM70.2448 43.89C70.2448 44.1887 70.3848 44.408 70.6648 44.548C70.9448 44.688 71.3881 44.8327 71.9948 44.982C72.5548 45.122 73.0028 45.2573 73.3388 45.388C73.6748 45.5093 73.9641 45.71 74.2068 45.99C74.4588 46.2607 74.5848 46.6247 74.5848 47.082C74.5848 47.4927 74.4635 47.8567 74.2208 48.174C73.9875 48.4913 73.6655 48.7387 73.2548 48.916C72.8441 49.084 72.3821 49.168 71.8688 49.168C71.1688 49.168 70.5761 49.028 70.0908 48.748C69.6055 48.4587 69.2601 48.0713 69.0548 47.586L69.8528 47.166C70.0021 47.5673 70.2541 47.866 70.6088 48.062C70.9635 48.258 71.3835 48.356 71.8688 48.356C72.3541 48.356 72.7741 48.244 73.1288 48.02C73.4835 47.7867 73.6608 47.474 73.6608 47.082C73.6608 46.83 73.5768 46.6293 73.4088 46.48C73.2408 46.3213 73.0308 46.2 72.7788 46.116C72.5361 46.032 72.1955 45.9387 71.7568 45.836C71.2155 45.7053 70.7815 45.5793 70.4548 45.458C70.1375 45.3273 69.8621 45.1407 69.6288 44.898C69.4048 44.646 69.2928 44.3147 69.2928 43.904C69.2928 43.512 69.4001 43.1573 69.6148 42.84C69.8388 42.5227 70.1421 42.2753 70.5248 42.098C70.9168 41.9207 71.3555 41.832 71.8408 41.832C72.4195 41.832 72.9281 41.958 73.3668 42.21C73.8148 42.462 74.1508 42.812 74.3748 43.26L73.5908 43.652C73.4508 43.3347 73.2315 43.0873 72.9328 42.91C72.6341 42.7327 72.2701 42.644 71.8408 42.644C71.3461 42.644 70.9541 42.756 70.6648 42.98C70.3848 43.204 70.2448 43.5073 70.2448 43.89ZM77.7782 46.914C77.7782 47.3993 77.8622 47.7353 78.0302 47.922C78.1982 48.0993 78.4782 48.188 78.8702 48.188C78.9915 48.188 79.2389 48.1693 79.6122 48.132V49C79.2202 49.0467 78.9075 49.07 78.6742 49.07C78.0489 49.07 77.5869 48.916 77.2882 48.608C76.9895 48.2907 76.8402 47.74 76.8402 46.956V42.868H75.1882V42H76.8402V39.998L77.7782 39.648V42H79.5842V42.868H77.7782V46.914ZM81.5045 40.194C81.3178 40.194 81.1638 40.138 81.0425 40.026C80.9305 39.914 80.8745 39.7647 80.8745 39.578C80.8745 39.3913 80.9305 39.242 81.0425 39.13C81.1638 39.018 81.3178 38.962 81.5045 38.962C81.7005 38.962 81.8545 39.018 81.9665 39.13C82.0785 39.242 82.1345 39.3913 82.1345 39.578C82.1345 39.7647 82.0785 39.914 81.9665 40.026C81.8545 40.138 81.7005 40.194 81.5045 40.194ZM81.0285 49V42H81.9665V49H81.0285ZM89.8552 47.642C89.5098 48.118 89.0805 48.4913 88.5672 48.762C88.0538 49.0327 87.4985 49.168 86.9012 49.168C86.2385 49.168 85.6225 49.0047 85.0532 48.678C84.4932 48.3513 84.0498 47.908 83.7232 47.348C83.3965 46.7787 83.2332 46.1627 83.2332 45.5C83.2332 44.8373 83.3965 44.2307 83.7232 43.68C84.0498 43.12 84.4932 42.6767 85.0532 42.35C85.6225 42.0233 86.2385 41.86 86.9012 41.86C87.4892 41.86 88.0398 41.9953 88.5532 42.266C89.0665 42.5273 89.4958 42.8867 89.8412 43.344L89.0572 43.862C88.7958 43.526 88.4785 43.2647 88.1052 43.078C87.7318 42.882 87.3305 42.784 86.9012 42.784C86.4065 42.784 85.9492 42.9053 85.5292 43.148C85.1185 43.3907 84.7918 43.722 84.5492 44.142C84.3065 44.5527 84.1852 45.0053 84.1852 45.5C84.1852 45.9947 84.3065 46.452 84.5492 46.872C84.7918 47.2827 85.1185 47.6093 85.5292 47.852C85.9492 48.0947 86.4065 48.216 86.9012 48.216C87.3305 48.216 87.7318 48.1227 88.1052 47.936C88.4785 47.74 88.7958 47.474 89.0572 47.138L89.8552 47.642ZM91.9831 43.89C91.9831 44.1887 92.1231 44.408 92.4031 44.548C92.6831 44.688 93.1264 44.8327 93.7331 44.982C94.2931 45.122 94.7411 45.2573 95.0771 45.388C95.4131 45.5093 95.7024 45.71 95.9451 45.99C96.1971 46.2607 96.3231 46.6247 96.3231 47.082C96.3231 47.4927 96.2017 47.8567 95.9591 48.174C95.7257 48.4913 95.4037 48.7387 94.9931 48.916C94.5824 49.084 94.1204 49.168 93.6071 49.168C92.9071 49.168 92.3144 49.028 91.8291 48.748C91.3437 48.4587 90.9984 48.0713 90.7931 47.586L91.5911 47.166C91.7404 47.5673 91.9924 47.866 92.3471 48.062C92.7017 48.258 93.1217 48.356 93.6071 48.356C94.0924 48.356 94.5124 48.244 94.8671 48.02C95.2217 47.7867 95.3991 47.474 95.3991 47.082C95.3991 46.83 95.3151 46.6293 95.1471 46.48C94.9791 46.3213 94.7691 46.2 94.5171 46.116C94.2744 46.032 93.9337 45.9387 93.4951 45.836C92.9537 45.7053 92.5197 45.5793 92.1931 45.458C91.8757 45.3273 91.6004 45.1407 91.3671 44.898C91.1431 44.646 91.0311 44.3147 91.0311 43.904C91.0311 43.512 91.1384 43.1573 91.3531 42.84C91.5771 42.5227 91.8804 42.2753 92.2631 42.098C92.6551 41.9207 93.0937 41.832 93.5791 41.832C94.1577 41.832 94.6664 41.958 95.1051 42.21C95.5531 42.462 95.8891 42.812 96.1131 43.26L95.3291 43.652C95.1891 43.3347 94.9697 43.0873 94.6711 42.91C94.3724 42.7327 94.0084 42.644 93.5791 42.644C93.0844 42.644 92.6924 42.756 92.4031 42.98C92.1231 43.204 91.9831 43.5073 91.9831 43.89Z" fill="#0E111B"/>
</g>
<defs>
<filter id="filter0_i_123_117" x="6" y="4" width="336" height="229.22" filterUnits="userSpaceOnUse" color-interpolation-filters="sRGB">
<feFlood flood-opacity="0" result="BackgroundImageFix"/>
<feBlend mode="normal" in="SourceGraphic" in2="BackgroundImageFix" result="shape"/>
<feColorMatrix in="SourceAlpha" type="matrix" values="0 0 0 0 0 0 0 0 0 0 0 0 0 0 0 0 0 0 127 0" result="hardAlpha"/>
<feOffset dx="5" dy="5"/>
<feGaussianBlur stdDeviation="2"/>
<feComposite in2="hardAlpha" operator="arithmetic" k2="-1" k3="1"/>
<feColorMatrix type="matrix" values="0 0 0 0 0 0 0 0 0 0 0 0 0 0 0 0 0 0 0.25 0"/>
<feBlend mode="normal" in2="shape" result="effect1_innerShadow_123_117"/>
</filter>
<filter id="filter1_d_123_117" x="0" y="0" width="344" height="237.22" filterUnits="userSpaceOnUse" color-interpolation-filters="sRGB">
<feFlood flood-opacity="0" result="BackgroundImageFix"/>
<feColorMatrix in="SourceAlpha" type="matrix" values="0 0 0 0 0 0 0 0 0 0 0 0 0 0 0 0 0 0 127 0" result="hardAlpha"/>
<feOffset dy="2"/>
<feGaussianBlur stdDeviation="3"/>
<feComposite in2="hardAlpha" operator="out"/>
<feColorMatrix type="matrix" values="0 0 0 0 0.0509804 0 0 0 0 0.0392157 0 0 0 0 0.172549 0 0 0 0.08 0"/>
<feBlend mode="normal" in2="BackgroundImageFix" result="effect1_dropShadow_123_117"/>
<feBlend mode="normal" in="SourceGraphic" in2="effect1_dropShadow_123_117" result="shape"/>
</filter>
</defs>
</svg>
