<svg width="522" height="422" viewBox="0 0 522 422" fill="none" xmlns="http://www.w3.org/2000/svg">
<g filter="url(#filter0_i_205_316)">
<g filter="url(#filter1_d_205_316)">
<rect x="6" y="4" width="510" height="410" rx="20" fill="white"/>
</g>
<path d="M82.3403 381.168C81.3976 381.168 80.6043 380.958 79.9603 380.538C79.3163 380.118 78.873 379.544 78.6303 378.816L79.7223 378.186C79.909 378.727 80.2216 379.152 80.6603 379.46C81.1083 379.768 81.673 379.922 82.3543 379.922C82.8116 379.922 83.1943 379.847 83.5023 379.698C83.8196 379.539 84.053 379.339 84.2023 379.096C84.361 378.844 84.4403 378.578 84.4403 378.298C84.4403 377.897 84.249 377.57 83.8663 377.318C83.4836 377.066 82.8816 376.814 82.0603 376.562C81.407 376.366 80.8703 376.17 80.4503 375.974C80.0396 375.778 79.699 375.507 79.4283 375.162C79.167 374.807 79.0363 374.35 79.0363 373.79C79.0363 373.239 79.1716 372.754 79.4423 372.334C79.7223 371.914 80.0956 371.592 80.5623 371.368C81.0383 371.144 81.5563 371.032 82.1163 371.032C82.891 371.032 83.563 371.223 84.1323 371.606C84.7016 371.979 85.1356 372.493 85.4343 373.146L84.3283 373.762C84.1323 373.295 83.8476 372.936 83.4743 372.684C83.101 372.423 82.6483 372.292 82.1163 372.292C81.5656 372.292 81.127 372.441 80.8003 372.74C80.4736 373.029 80.3103 373.379 80.3103 373.79C80.3103 374.089 80.3896 374.331 80.5483 374.518C80.7163 374.705 80.9403 374.863 81.2203 374.994C81.5096 375.115 81.9343 375.265 82.4943 375.442C83.2036 375.666 83.773 375.885 84.2023 376.1C84.6316 376.305 84.991 376.59 85.2803 376.954C85.5696 377.318 85.7143 377.785 85.7143 378.354C85.7143 378.923 85.5696 379.423 85.2803 379.852C84.991 380.272 84.5896 380.599 84.0763 380.832C83.5723 381.056 82.9936 381.168 82.3403 381.168ZM90.9237 371.2C91.8384 371.2 92.6784 371.419 93.4437 371.858C94.2091 372.287 94.8157 372.88 95.2637 373.636C95.7117 374.383 95.9357 375.213 95.9357 376.128C95.9357 377.043 95.7117 377.873 95.2637 378.62C94.8157 379.357 94.2091 379.941 93.4437 380.37C92.6784 380.79 91.8384 381 90.9237 381H87.3257V371.2H90.9237ZM90.9237 379.796C91.6144 379.796 92.2444 379.637 92.8137 379.32C93.3831 378.993 93.8311 378.55 94.1577 377.99C94.4937 377.421 94.6617 376.795 94.6617 376.114C94.6617 375.433 94.4937 374.807 94.1577 374.238C93.8311 373.669 93.3784 373.221 92.7997 372.894C92.2304 372.567 91.6051 372.404 90.9237 372.404H88.5997V379.796H90.9237ZM101.022 371.2C101.582 371.2 102.1 371.34 102.576 371.62C103.052 371.891 103.425 372.264 103.696 372.74C103.976 373.207 104.116 373.72 104.116 374.28C104.116 374.84 103.976 375.358 103.696 375.834C103.425 376.31 103.052 376.688 102.576 376.968C102.1 377.239 101.582 377.374 101.022 377.374H98.936V381H97.662V371.2H101.022ZM101.022 376.156C101.358 376.156 101.671 376.072 101.96 375.904C102.249 375.736 102.478 375.507 102.646 375.218C102.814 374.929 102.898 374.616 102.898 374.28C102.898 373.944 102.814 373.636 102.646 373.356C102.478 373.067 102.249 372.838 101.96 372.67C101.671 372.502 101.358 372.418 101.022 372.418H98.936V376.156H101.022Z" fill="#615E83"/>
<path d="M158.519 381H157.147L156.307 378.76H151.967L151.127 381H149.755L153.437 371.2H154.823L158.519 381ZM154.137 373.006L152.429 377.556H155.859L154.137 373.006ZM163.063 371.2C163.623 371.2 164.141 371.34 164.617 371.62C165.093 371.891 165.466 372.264 165.737 372.74C166.017 373.207 166.157 373.72 166.157 374.28C166.157 374.84 166.017 375.358 165.737 375.834C165.466 376.31 165.093 376.688 164.617 376.968C164.141 377.239 163.623 377.374 163.063 377.374H160.977V381H159.703V371.2H163.063ZM163.063 376.156C163.399 376.156 163.711 376.072 164.001 375.904C164.29 375.736 164.519 375.507 164.687 375.218C164.855 374.929 164.939 374.616 164.939 374.28C164.939 373.944 164.855 373.636 164.687 373.356C164.519 373.067 164.29 372.838 164.001 372.67C163.711 372.502 163.399 372.418 163.063 372.418H160.977V376.156H163.063ZM167.279 376.128C167.279 375.213 167.503 374.369 167.951 373.594C168.408 372.819 169.024 372.208 169.799 371.76C170.574 371.303 171.418 371.074 172.333 371.074C173.266 371.074 174.125 371.312 174.909 371.788C175.693 372.255 176.304 372.88 176.743 373.664L175.623 374.266C175.287 373.687 174.825 373.225 174.237 372.88C173.658 372.525 173.024 372.348 172.333 372.348C171.652 372.348 171.022 372.521 170.443 372.866C169.864 373.202 169.402 373.659 169.057 374.238C168.721 374.817 168.553 375.447 168.553 376.128C168.553 376.809 168.721 377.439 169.057 378.018C169.402 378.597 169.864 379.054 170.443 379.39C171.022 379.726 171.652 379.894 172.333 379.894C173.033 379.894 173.672 379.717 174.251 379.362C174.839 379.007 175.296 378.536 175.623 377.948L176.757 378.564C176.318 379.357 175.702 379.992 174.909 380.468C174.125 380.944 173.266 381.182 172.333 381.182C171.418 381.182 170.574 380.958 169.799 380.51C169.024 380.053 168.408 379.437 167.951 378.662C167.503 377.887 167.279 377.043 167.279 376.128Z" fill="#615E83"/>
<path d="M232.73 371.2V379.796H237.182V381H231.456V371.2H232.73ZM241.94 371.2C242.5 371.2 243.018 371.34 243.494 371.62C243.97 371.891 244.343 372.264 244.614 372.74C244.894 373.207 245.034 373.72 245.034 374.28C245.034 374.84 244.894 375.358 244.614 375.834C244.343 376.31 243.97 376.688 243.494 376.968C243.018 377.239 242.5 377.374 241.94 377.374H239.854V381H238.58V371.2H241.94ZM241.94 376.156C242.276 376.156 242.588 376.072 242.878 375.904C243.167 375.736 243.396 375.507 243.564 375.218C243.732 374.929 243.816 374.616 243.816 374.28C243.816 373.944 243.732 373.636 243.564 373.356C243.396 373.067 243.167 372.838 242.878 372.67C242.588 372.502 242.276 372.418 241.94 372.418H239.854V376.156H241.94Z" fill="#615E83"/>
<path d="M303.349 371.2C303.909 371.2 304.427 371.34 304.903 371.62C305.379 371.891 305.753 372.264 306.023 372.74C306.303 373.207 306.443 373.72 306.443 374.28C306.443 374.84 306.303 375.358 306.023 375.834C305.753 376.31 305.379 376.688 304.903 376.968C304.427 377.239 303.909 377.374 303.349 377.374H301.263V381H299.989V371.2H303.349ZM303.349 376.156C303.685 376.156 303.998 376.072 304.287 375.904C304.577 375.736 304.805 375.507 304.973 375.218C305.141 374.929 305.225 374.616 305.225 374.28C305.225 373.944 305.141 373.636 304.973 373.356C304.805 373.067 304.577 372.838 304.287 372.67C303.998 372.502 303.685 372.418 303.349 372.418H301.263V376.156H303.349ZM311.394 371.2C312.309 371.2 313.149 371.419 313.914 371.858C314.68 372.287 315.286 372.88 315.734 373.636C316.182 374.383 316.406 375.213 316.406 376.128C316.406 377.043 316.182 377.873 315.734 378.62C315.286 379.357 314.68 379.941 313.914 380.37C313.149 380.79 312.309 381 311.394 381H307.796V371.2H311.394ZM311.394 379.796C312.085 379.796 312.715 379.637 313.284 379.32C313.854 378.993 314.302 378.55 314.628 377.99C314.964 377.421 315.132 376.795 315.132 376.114C315.132 375.433 314.964 374.807 314.628 374.238C314.302 373.669 313.849 373.221 313.27 372.894C312.701 372.567 312.076 372.404 311.394 372.404H309.07V379.796H311.394ZM321.493 371.2C322.053 371.2 322.571 371.34 323.047 371.62C323.523 371.891 323.896 372.264 324.167 372.74C324.447 373.207 324.587 373.72 324.587 374.28C324.587 374.84 324.447 375.358 324.167 375.834C323.896 376.31 323.523 376.688 323.047 376.968C322.571 377.239 322.053 377.374 321.493 377.374H319.407V381H318.133V371.2H321.493ZM321.493 376.156C321.829 376.156 322.141 376.072 322.431 375.904C322.72 375.736 322.949 375.507 323.117 375.218C323.285 374.929 323.369 374.616 323.369 374.28C323.369 373.944 323.285 373.636 323.117 373.356C322.949 373.067 322.72 372.838 322.431 372.67C322.141 372.502 321.829 372.418 321.493 372.418H319.407V376.156H321.493Z" fill="#615E83"/>
<path d="M372.431 381H371.059L370.219 378.76H365.879L365.039 381H363.667L367.349 371.2H368.735L372.431 381ZM368.049 373.006L366.341 377.556H369.771L368.049 373.006ZM379.321 379.642C378.985 380.109 378.556 380.482 378.033 380.762C377.52 381.033 376.96 381.168 376.353 381.168C375.69 381.168 375.079 381.005 374.519 380.678C373.959 380.351 373.511 379.908 373.175 379.348C372.848 378.779 372.685 378.163 372.685 377.5C372.685 376.837 372.848 376.226 373.175 375.666C373.511 375.106 373.959 374.663 374.519 374.336C375.079 374.009 375.69 373.846 376.353 373.846C376.95 373.846 377.506 373.981 378.019 374.252C378.532 374.523 378.962 374.887 379.307 375.344L378.313 376.016C378.07 375.708 377.781 375.47 377.445 375.302C377.109 375.134 376.745 375.05 376.353 375.05C375.905 375.05 375.494 375.162 375.121 375.386C374.748 375.601 374.449 375.895 374.225 376.268C374.01 376.641 373.903 377.052 373.903 377.5C373.903 377.948 374.01 378.363 374.225 378.746C374.449 379.119 374.748 379.418 375.121 379.642C375.494 379.857 375.905 379.964 376.353 379.964C376.745 379.964 377.109 379.88 377.445 379.712C377.79 379.535 378.08 379.292 378.313 378.984L379.321 379.642ZM386.745 379.642C386.409 380.109 385.98 380.482 385.457 380.762C384.944 381.033 384.384 381.168 383.777 381.168C383.115 381.168 382.503 381.005 381.943 380.678C381.383 380.351 380.935 379.908 380.599 379.348C380.273 378.779 380.109 378.163 380.109 377.5C380.109 376.837 380.273 376.226 380.599 375.666C380.935 375.106 381.383 374.663 381.943 374.336C382.503 374.009 383.115 373.846 383.777 373.846C384.375 373.846 384.93 373.981 385.443 374.252C385.957 374.523 386.386 374.887 386.731 375.344L385.737 376.016C385.495 375.708 385.205 375.47 384.869 375.302C384.533 375.134 384.169 375.05 383.777 375.05C383.329 375.05 382.919 375.162 382.545 375.386C382.172 375.601 381.873 375.895 381.649 376.268C381.435 376.641 381.327 377.052 381.327 377.5C381.327 377.948 381.435 378.363 381.649 378.746C381.873 379.119 382.172 379.418 382.545 379.642C382.919 379.857 383.329 379.964 383.777 379.964C384.169 379.964 384.533 379.88 384.869 379.712C385.215 379.535 385.504 379.292 385.737 378.984L386.745 379.642ZM391.065 381.168C390.402 381.168 389.791 381.005 389.231 380.678C388.671 380.351 388.223 379.908 387.887 379.348C387.56 378.779 387.397 378.163 387.397 377.5C387.397 376.837 387.56 376.226 387.887 375.666C388.223 375.106 388.671 374.663 389.231 374.336C389.791 374.009 390.402 373.846 391.065 373.846C391.727 373.846 392.339 374.009 392.899 374.336C393.459 374.663 393.902 375.106 394.229 375.666C394.565 376.226 394.733 376.837 394.733 377.5C394.733 378.163 394.565 378.779 394.229 379.348C393.902 379.908 393.459 380.351 392.899 380.678C392.339 381.005 391.727 381.168 391.065 381.168ZM391.065 379.964C391.513 379.964 391.923 379.857 392.297 379.642C392.67 379.418 392.964 379.119 393.179 378.746C393.403 378.363 393.515 377.948 393.515 377.5C393.515 377.052 393.403 376.641 393.179 376.268C392.964 375.895 392.67 375.601 392.297 375.386C391.923 375.162 391.513 375.05 391.065 375.05C390.617 375.05 390.201 375.162 389.819 375.386C389.445 375.601 389.147 375.895 388.923 376.268C388.708 376.641 388.601 377.052 388.601 377.5C388.601 377.948 388.708 378.363 388.923 378.746C389.147 379.119 389.445 379.418 389.819 379.642C390.201 379.857 390.617 379.964 391.065 379.964ZM399.437 373.846C399.549 373.846 399.633 373.851 399.689 373.86L399.591 375.008C399.479 374.989 399.391 374.98 399.325 374.98C398.728 374.98 398.224 375.162 397.813 375.526C397.412 375.89 397.211 376.417 397.211 377.108V381H396.007V374H397.211V375.204C397.37 374.821 397.641 374.499 398.023 374.238C398.415 373.977 398.887 373.846 399.437 373.846ZM406.383 371.2H407.587V381H406.383V379.95C406.056 380.333 405.664 380.636 405.207 380.86C404.759 381.075 404.278 381.182 403.765 381.182C403.083 381.182 402.472 381.023 401.931 380.706C401.389 380.379 400.969 379.936 400.671 379.376C400.372 378.816 400.223 378.195 400.223 377.514C400.223 376.823 400.372 376.203 400.671 375.652C400.969 375.092 401.385 374.653 401.917 374.336C402.458 374.009 403.074 373.846 403.765 373.846C404.278 373.846 404.759 373.958 405.207 374.182C405.664 374.397 406.056 374.695 406.383 375.078V371.2ZM403.891 380.02C404.348 380.02 404.768 379.913 405.151 379.698C405.533 379.474 405.832 379.171 406.047 378.788C406.271 378.405 406.383 377.976 406.383 377.5C406.383 377.033 406.271 376.613 406.047 376.24C405.832 375.857 405.533 375.559 405.151 375.344C404.768 375.129 404.348 375.022 403.891 375.022C403.433 375.022 403.018 375.129 402.645 375.344C402.271 375.559 401.977 375.857 401.763 376.24C401.548 376.623 401.441 377.047 401.441 377.514C401.441 377.99 401.548 378.419 401.763 378.802C401.977 379.175 402.271 379.474 402.645 379.698C403.018 379.913 403.433 380.02 403.891 380.02Z" fill="#615E83"/>
<path d="M43.4764 327.68C44.5217 327.68 45.343 327.927 45.9404 328.422C46.547 328.917 46.8504 329.603 46.8504 330.48C46.8504 331.497 46.547 332.3 45.9404 332.888C45.343 333.476 44.5217 333.77 43.4764 333.77C42.5244 333.77 41.745 333.555 41.1384 333.126C40.5317 332.687 40.1677 332.09 40.0464 331.334L41.2784 331.194C41.409 331.614 41.6704 331.945 42.0624 332.188C42.4544 332.431 42.9257 332.552 43.4764 332.552C44.1484 332.552 44.6757 332.37 45.0584 332.006C45.4504 331.633 45.6464 331.124 45.6464 330.48C45.6464 329.957 45.4504 329.547 45.0584 329.248C44.6757 328.94 44.1484 328.786 43.4764 328.786H41.2784V328.758L40.4804 328.786L41.1244 323.816H46.5564V325.02H42.1744L41.8524 327.68H43.4764ZM54.8565 333.616H53.3305L51.0065 330.648L49.8165 331.95V333.616H48.6125V323.816H49.8165V330.186L53.0645 326.616H54.7305L51.8465 329.752L54.8565 333.616Z" fill="#615E83"/>
<path d="M44.2464 264.784V273.38H47.0884V274.584H39.8784V273.38H42.9724V266.114L41.0964 267.01L40.4804 266.002L42.9724 264.784H44.2464ZM51.7345 274.752C50.9412 274.752 50.2598 274.542 49.6905 274.122C49.1212 273.702 48.6872 273.11 48.3885 272.344C48.0898 271.579 47.9405 270.692 47.9405 269.684C47.9405 268.676 48.0898 267.79 48.3885 267.024C48.6872 266.259 49.1212 265.666 49.6905 265.246C50.2598 264.826 50.9412 264.616 51.7345 264.616C52.5278 264.616 53.2092 264.826 53.7785 265.246C54.3572 265.666 54.7958 266.259 55.0945 267.024C55.3932 267.79 55.5425 268.676 55.5425 269.684C55.5425 270.692 55.3932 271.579 55.0945 272.344C54.7958 273.11 54.3572 273.702 53.7785 274.122C53.2092 274.542 52.5278 274.752 51.7345 274.752ZM51.7345 273.478C52.5278 273.478 53.1438 273.156 53.5825 272.512C54.0305 271.859 54.2545 270.916 54.2545 269.684C54.2545 268.452 54.0305 267.514 53.5825 266.87C53.1438 266.217 52.5278 265.89 51.7345 265.89C50.9505 265.89 50.3345 266.217 49.8865 266.87C49.4385 267.514 49.2145 268.452 49.2145 269.684C49.2145 270.916 49.4385 271.859 49.8865 272.512C50.3345 273.156 50.9505 273.478 51.7345 273.478ZM63.1146 274.584H61.5886L59.2646 271.616L58.0746 272.918V274.584H56.8706V264.784H58.0746V271.154L61.3226 267.584H62.9886L60.1046 270.72L63.1146 274.584Z" fill="#615E83"/>
<path d="M44.2464 205.74V214.336H47.0884V215.54H39.8784V214.336H42.9724V207.07L41.0964 207.966L40.4804 206.958L42.9724 205.74H44.2464ZM51.7345 209.604C52.7798 209.604 53.6012 209.851 54.1985 210.346C54.8052 210.84 55.1085 211.526 55.1085 212.404C55.1085 213.421 54.8052 214.224 54.1985 214.812C53.6012 215.4 52.7798 215.694 51.7345 215.694C50.7825 215.694 50.0032 215.479 49.3965 215.05C48.7898 214.611 48.4258 214.014 48.3045 213.258L49.5365 213.118C49.6672 213.538 49.9285 213.869 50.3205 214.112C50.7125 214.354 51.1838 214.476 51.7345 214.476C52.4065 214.476 52.9338 214.294 53.3165 213.93C53.7085 213.556 53.9045 213.048 53.9045 212.404C53.9045 211.881 53.7085 211.47 53.3165 211.172C52.9338 210.864 52.4065 210.71 51.7345 210.71H49.5365V210.682L48.7385 210.71L49.3825 205.74H54.8145V206.944H50.4325L50.1105 209.604H51.7345ZM63.1146 215.54H61.5886L59.2646 212.572L58.0746 213.874V215.54H56.8706V205.74H58.0746V212.11L61.3226 208.54H62.9886L60.1046 211.676L63.1146 215.54Z" fill="#615E83"/>
<path d="M45.9964 153.149H47.1864V154.353H45.9964V156.495H44.7084V154.353H39.6824V153.149L43.0004 146.695H44.4144L41.1104 153.149H44.7084V150.615H45.9964V153.149ZM51.7345 156.663C50.9412 156.663 50.2598 156.453 49.6905 156.033C49.1212 155.613 48.6872 155.02 48.3885 154.255C48.0898 153.489 47.9405 152.603 47.9405 151.595C47.9405 150.587 48.0898 149.7 48.3885 148.935C48.6872 148.169 49.1212 147.577 49.6905 147.157C50.2598 146.737 50.9412 146.527 51.7345 146.527C52.5278 146.527 53.2092 146.737 53.7785 147.157C54.3572 147.577 54.7958 148.169 55.0945 148.935C55.3932 149.7 55.5425 150.587 55.5425 151.595C55.5425 152.603 55.3932 153.489 55.0945 154.255C54.7958 155.02 54.3572 155.613 53.7785 156.033C53.2092 156.453 52.5278 156.663 51.7345 156.663ZM51.7345 155.389C52.5278 155.389 53.1438 155.067 53.5825 154.423C54.0305 153.769 54.2545 152.827 54.2545 151.595C54.2545 150.363 54.0305 149.425 53.5825 148.781C53.1438 148.127 52.5278 147.801 51.7345 147.801C50.9505 147.801 50.3345 148.127 49.8865 148.781C49.4385 149.425 49.2145 150.363 49.2145 151.595C49.2145 152.827 49.4385 153.769 49.8865 154.423C50.3345 155.067 50.9505 155.389 51.7345 155.389ZM63.1146 156.495H61.5886L59.2646 153.527L58.0746 154.829V156.495H56.8706V146.695H58.0746V153.065L61.3226 149.495H62.9886L60.1046 152.631L63.1146 156.495Z" fill="#615E83"/>
<line x1="73.1113" y1="333.866" x2="485.037" y2="333.866" stroke="#E5E5EF" stroke-width="1.5" stroke-linecap="round"/>
<line x1="73.1113" y1="266.834" x2="485.037" y2="266.834" stroke="#E5E5EF" stroke-width="1.5" stroke-linecap="round" stroke-dasharray="4 7"/>
<line x1="73.1113" y1="207.79" x2="485.037" y2="207.79" stroke="#E5E5EF" stroke-width="1.5" stroke-linecap="round" stroke-dasharray="4 7"/>
<line x1="73.1113" y1="150.273" x2="485.037" y2="150.273" stroke="#E5E5EF" stroke-width="1.5" stroke-linecap="round" stroke-dasharray="4 7"/>
<path d="M72.3604 338.211V240.375H110.248V338.817C106.572 340.499 98.5523 344.1 95.8848 345.053C93.2172 346.006 89.287 345.45 87.6553 345.053L72.3604 338.211Z" fill="#1F5EFF"/>
<path d="M72.3613 262.098V240.404H110.249V262.705C106.573 264.386 98.5533 267.988 95.8857 268.94C93.2182 269.893 89.288 269.338 87.6563 268.94L72.3613 262.098Z" fill="#EAF0FF"/>
<path d="M86.756 246.321L72.3613 240.404C88.1848 227.636 104.213 235.084 110.25 240.404C107.19 241.729 100.421 245.281 96.8586 246.321C94.4199 247.034 88.3759 246.969 86.756 246.321Z" fill="#C8D6F9"/>
<path d="M141.639 338.24V166.177H179.527V338.846C175.85 340.528 167.831 344.129 165.163 345.082C162.496 346.035 158.565 345.479 156.934 345.082L141.639 338.24Z" fill="#1F5EFF"/>
<path d="M141.64 232.725V148.545H179.528V233.331C175.851 235.013 167.832 238.614 165.164 239.567C162.497 240.52 158.566 239.964 156.935 239.567L141.64 232.725Z" fill="#EAF0FF"/>
<path d="M156.034 154.462L141.64 148.545C157.463 135.777 173.492 143.225 179.528 148.545C176.468 149.87 169.699 153.422 166.137 154.462C163.698 155.174 157.654 155.11 156.034 154.462Z" fill="#C8D6F9"/>
<path d="M215.961 338.24V214.735L253.849 214.735V338.846C250.173 340.528 242.153 344.129 239.485 345.082C236.818 346.035 232.888 345.479 231.256 345.082L215.961 338.24Z" fill="#1F5EFF"/>
<path d="M215.962 247.256V197.4H253.85V247.863C250.174 249.544 242.154 253.145 239.486 254.098C236.819 255.051 232.889 254.495 231.257 254.098L215.962 247.256Z" fill="#EAF0FF"/>
<path d="M230.357 203.32L215.962 197.403C231.785 184.635 247.814 192.083 253.85 197.403C250.79 198.728 244.021 202.28 240.459 203.32C238.021 204.033 231.977 203.968 230.357 203.32Z" fill="#C8D6F9"/>
<path d="M290.785 338.24V184.399H328.673V338.847C324.997 340.528 316.977 344.129 314.31 345.082C311.642 346.035 307.712 345.479 306.08 345.082L290.785 338.24Z" fill="#1F5EFF"/>
<path d="M290.786 189.307V174.995L328.674 174.995V189.913C324.998 191.595 316.978 195.196 314.311 196.149C311.643 197.102 307.713 196.546 306.081 196.149L290.786 189.307Z" fill="#EAF0FF"/>
<path d="M305.181 180.914L290.786 174.997C306.61 162.228 322.638 169.677 328.674 174.997C325.615 176.321 318.845 179.874 315.283 180.914C312.845 181.626 306.801 181.562 305.181 180.914Z" fill="#C8D6F9"/>
<path d="M365.607 338.24V240.404H403.496V338.847C399.819 340.528 391.799 344.129 389.132 345.082C386.464 346.035 382.534 345.479 380.902 345.082L365.607 338.24Z" fill="#1F5EFF"/>
<path d="M365.608 243.479V221.785H403.496V244.086C399.82 245.767 391.8 249.368 389.133 250.321C386.465 251.274 382.535 250.718 380.903 250.321L365.608 243.479Z" fill="#EAF0FF"/>
<path d="M380.003 227.702L365.608 221.785C381.432 209.017 397.46 216.465 403.497 221.785C400.437 223.11 393.668 226.662 390.106 227.702C387.667 228.414 381.623 228.35 380.003 227.702Z" fill="#C8D6F9"/>
<line x1="39.3604" y1="109.61" x2="482.64" y2="109.61" stroke="#E5E5EF"/>
<path d="M43.1004 65.7104V79.2184H50.0964V81.1104H41.0984V65.7104H43.1004ZM56.3808 69.8464C57.4515 69.8464 58.4048 70.1104 59.2408 70.6384C60.0768 71.1517 60.7221 71.8557 61.1768 72.7504C61.6461 73.6304 61.8808 74.591 61.8808 75.6324C61.8808 75.7497 61.8735 75.8817 61.8588 76.0284C61.8441 76.1604 61.8295 76.2704 61.8148 76.3584H52.5528C52.6995 77.341 53.1248 78.1477 53.8288 78.7784C54.5475 79.3944 55.4568 79.7024 56.5568 79.7024C57.2315 79.7024 57.8695 79.5484 58.4708 79.2404C59.0868 78.9324 59.5415 78.551 59.8348 78.0964L61.3308 78.9764C60.8468 79.739 60.1868 80.333 59.3508 80.7584C58.5295 81.169 57.5908 81.3744 56.5348 81.3744C55.3761 81.3744 54.3495 81.125 53.4548 80.6264C52.5601 80.1277 51.8635 79.4457 51.3648 78.5804C50.8661 77.7004 50.6168 76.7104 50.6168 75.6104C50.6168 74.525 50.8588 73.5497 51.3428 72.6844C51.8415 71.8044 52.5235 71.115 53.3888 70.6164C54.2688 70.103 55.2661 69.8464 56.3808 69.8464ZM60.0768 74.8184C59.9301 73.7917 59.5341 72.985 58.8888 72.3984C58.2435 71.8117 57.4075 71.5184 56.3808 71.5184C55.6621 71.5184 55.0095 71.6724 54.4228 71.9804C53.8361 72.2884 53.3741 72.699 53.0368 73.2124C52.6995 73.711 52.5235 74.2464 52.5088 74.8184H60.0768ZM72.8452 70.1104H74.7592V81.1104H72.8452V79.4604C72.3319 80.0617 71.7159 80.5384 70.9972 80.8904C70.2932 81.2277 69.5379 81.3964 68.7312 81.3964C67.6605 81.3964 66.6999 81.147 65.8492 80.6484C64.9985 80.135 64.3385 79.4384 63.8692 78.5584C63.3999 77.6784 63.1652 76.703 63.1652 75.6324C63.1652 74.547 63.3999 73.5717 63.8692 72.7064C64.3385 71.8264 64.9912 71.137 65.8272 70.6384C66.6779 70.125 67.6459 69.8684 68.7312 69.8684C69.5379 69.8684 70.2932 70.0444 70.9972 70.3964C71.7159 70.7337 72.3319 71.203 72.8452 71.8044V70.1104ZM68.9292 79.5704C69.6479 79.5704 70.3079 79.4017 70.9092 79.0644C71.5105 78.7124 71.9799 78.2357 72.3172 77.6344C72.6692 77.033 72.8452 76.3584 72.8452 75.6104C72.8452 74.877 72.6692 74.217 72.3172 73.6304C71.9799 73.029 71.5105 72.5597 70.9092 72.2224C70.3079 71.885 69.6479 71.7164 68.9292 71.7164C68.2105 71.7164 67.5579 71.885 66.9712 72.2224C66.3845 72.5597 65.9225 73.029 65.5852 73.6304C65.2479 74.2317 65.0792 74.899 65.0792 75.6324C65.0792 76.3804 65.2479 77.055 65.5852 77.6564C65.9225 78.243 66.3845 78.7124 66.9712 79.0644C67.5579 79.4017 68.2105 79.5704 68.9292 79.5704ZM86.4663 65.7104H88.3583V81.1104H86.4663V79.4604C85.953 80.0617 85.337 80.5384 84.6183 80.8904C83.9143 81.2277 83.159 81.3964 82.3523 81.3964C81.2816 81.3964 80.321 81.147 79.4703 80.6484C78.6196 80.135 77.9596 79.4384 77.4903 78.5584C77.021 77.6784 76.7863 76.703 76.7863 75.6324C76.7863 74.547 77.021 73.5717 77.4903 72.7064C77.9596 71.8264 78.6123 71.137 79.4483 70.6384C80.299 70.125 81.267 69.8684 82.3523 69.8684C83.159 69.8684 83.9143 70.0444 84.6183 70.3964C85.337 70.7337 85.953 71.203 86.4663 71.8044V65.7104ZM82.5503 79.5704C83.269 79.5704 83.929 79.4017 84.5303 79.0644C85.1316 78.7124 85.601 78.2357 85.9383 77.6344C86.2903 77.033 86.4663 76.3584 86.4663 75.6104C86.4663 74.877 86.2903 74.217 85.9383 73.6304C85.601 73.029 85.1316 72.5597 84.5303 72.2224C83.929 71.885 83.269 71.7164 82.5503 71.7164C81.8316 71.7164 81.179 71.885 80.5923 72.2224C80.0056 72.5597 79.5436 73.029 79.2063 73.6304C78.869 74.2317 78.7003 74.899 78.7003 75.6324C78.7003 76.3804 78.869 77.055 79.2063 77.6564C79.5436 78.243 80.0056 78.7124 80.5923 79.0644C81.179 79.4017 81.8316 79.5704 82.5503 79.5704ZM92.5634 73.1244C92.5634 73.5497 92.7614 73.8577 93.1574 74.0484C93.5681 74.239 94.2207 74.4444 95.1154 74.6644C95.9807 74.8697 96.6847 75.075 97.2274 75.2804C97.7847 75.4857 98.2541 75.8084 98.6354 76.2484C99.0314 76.6884 99.2294 77.2824 99.2294 78.0304C99.2294 79.0424 98.8114 79.8564 97.9754 80.4724C97.1394 81.0737 96.0907 81.3744 94.8294 81.3744C93.7001 81.3744 92.7467 81.1544 91.9694 80.7144C91.1921 80.2744 90.6274 79.6584 90.2754 78.8664L91.8374 78.0524C92.0721 78.639 92.4461 79.079 92.9594 79.3724C93.4727 79.651 94.0961 79.7904 94.8294 79.7904C95.5187 79.7904 96.1127 79.6364 96.6114 79.3284C97.1247 79.0204 97.3814 78.595 97.3814 78.0524C97.3814 77.715 97.2567 77.4364 97.0074 77.2164C96.7727 76.9964 96.4721 76.8277 96.1054 76.7104C95.7534 76.593 95.2474 76.4464 94.5874 76.2704C93.7514 76.065 93.0694 75.867 92.5414 75.6764C92.0281 75.471 91.5807 75.1704 91.1994 74.7744C90.8327 74.3784 90.6494 73.843 90.6494 73.1684C90.6494 72.523 90.8327 71.951 91.1994 71.4524C91.5661 70.939 92.0647 70.543 92.6954 70.2644C93.3261 69.9857 94.0301 69.8464 94.8074 69.8464C95.7314 69.8464 96.5454 70.0444 97.2494 70.4404C97.9681 70.8364 98.5181 71.3864 98.8994 72.0904L97.3374 72.8824C97.1174 72.413 96.7947 72.0537 96.3694 71.8044C95.9441 71.5404 95.4234 71.4084 94.8074 71.4084C94.1181 71.4084 93.5681 71.5697 93.1574 71.8924C92.7614 72.2004 92.5634 72.611 92.5634 73.1244Z" fill="#1E1B39"/>
</g>
<defs>
<filter id="filter0_i_205_316" x="6" y="4" width="515" height="415" filterUnits="userSpaceOnUse" color-interpolation-filters="sRGB">
<feFlood flood-opacity="0" result="BackgroundImageFix"/>
<feBlend mode="normal" in="SourceGraphic" in2="BackgroundImageFix" result="shape"/>
<feColorMatrix in="SourceAlpha" type="matrix" values="0 0 0 0 0 0 0 0 0 0 0 0 0 0 0 0 0 0 127 0" result="hardAlpha"/>
<feOffset dx="5" dy="5"/>
<feGaussianBlur stdDeviation="2.5"/>
<feComposite in2="hardAlpha" operator="arithmetic" k2="-1" k3="1"/>
<feColorMatrix type="matrix" values="0 0 0 0 0 0 0 0 0 0 0 0 0 0 0 0 0 0 0.25 0"/>
<feBlend mode="normal" in2="shape" result="effect1_innerShadow_205_316"/>
</filter>
<filter id="filter1_d_205_316" x="0" y="0" width="522" height="422" filterUnits="userSpaceOnUse" color-interpolation-filters="sRGB">
<feFlood flood-opacity="0" result="BackgroundImageFix"/>
<feColorMatrix in="SourceAlpha" type="matrix" values="0 0 0 0 0 0 0 0 0 0 0 0 0 0 0 0 0 0 127 0" result="hardAlpha"/>
<feOffset dy="2"/>
<feGaussianBlur stdDeviation="3"/>
<feComposite in2="hardAlpha" operator="out"/>
<feColorMatrix type="matrix" values="0 0 0 0 0.0509804 0 0 0 0 0.0392157 0 0 0 0 0.172549 0 0 0 0.08 0"/>
<feBlend mode="normal" in2="BackgroundImageFix" result="effect1_dropShadow_205_316"/>
<feBlend mode="normal" in="SourceGraphic" in2="effect1_dropShadow_205_316" result="shape"/>
</filter>
</defs>
</svg>
