<svg width="367" height="378" viewBox="0 0 367 378" fill="none" xmlns="http://www.w3.org/2000/svg">
<path d="M161.082 10C161.082 4.47716 156.601 -0.0322862 151.088 0.309703C124.995 1.92859 99.6336 9.86779 77.2261 23.5046C54.8269 37.1364 36.1466 55.9947 22.7552 78.3954C19.9183 83.1408 21.8769 89.1981 26.7936 91.7265L80.6052 119.399C85.5114 121.922 91.4849 119.951 94.6034 115.399C101.023 106.031 109.381 98.0925 119.154 92.1445C128.927 86.1967 139.824 82.4167 151.108 81.011C156.588 80.3283 161.082 75.915 161.082 70.3922V10Z" fill="#151A28"/>
<path d="M85.4883 51.6495V67.6495H82.1055V54.8605H82.0117L78.3477 57.1573V54.1573L82.3086 51.6495H85.4883ZM96.252 51.6495V67.6495H92.8691V54.8605H92.7754L89.1113 57.1573V54.1573L93.0723 51.6495H96.252ZM108.812 64.6495V63.8058C108.812 63.1652 108.948 62.5766 109.219 62.0402C109.495 61.4985 109.893 61.0662 110.414 60.7433C110.94 60.4152 111.581 60.2511 112.336 60.2511C113.102 60.2511 113.745 60.4126 114.266 60.7355C114.792 61.0584 115.188 61.4907 115.453 62.0323C115.724 62.5688 115.859 63.16 115.859 63.8058V64.6495C115.859 65.2902 115.724 65.8813 115.453 66.423C115.182 66.9594 114.784 67.3891 114.258 67.712C113.732 68.0402 113.091 68.2042 112.336 68.2042C111.57 68.2042 110.927 68.0402 110.406 67.712C109.885 67.3891 109.49 66.9594 109.219 66.423C108.948 65.8813 108.812 65.2902 108.812 64.6495ZM111.086 63.8058V64.6495C111.086 65.0193 111.174 65.3683 111.352 65.6964C111.534 66.0245 111.862 66.1886 112.336 66.1886C112.81 66.1886 113.133 66.0271 113.305 65.7042C113.482 65.3813 113.57 65.0297 113.57 64.6495V63.8058C113.57 63.4256 113.487 63.0714 113.32 62.7433C113.154 62.4152 112.826 62.2511 112.336 62.2511C111.867 62.2511 111.542 62.4152 111.359 62.7433C111.177 63.0714 111.086 63.4256 111.086 63.8058ZM100.602 55.4933V54.6495C100.602 54.0037 100.74 53.4126 101.016 52.8761C101.292 52.3344 101.69 51.9021 102.211 51.5792C102.737 51.2563 103.372 51.0948 104.117 51.0948C104.888 51.0948 105.534 51.2563 106.055 51.5792C106.576 51.9021 106.971 52.3344 107.242 52.8761C107.513 53.4126 107.648 54.0037 107.648 54.6495V55.4933C107.648 56.1391 107.51 56.7303 107.234 57.2667C106.964 57.8032 106.565 58.2329 106.039 58.5558C105.518 58.8735 104.878 59.0323 104.117 59.0323C103.357 59.0323 102.714 58.8709 102.188 58.548C101.667 58.2198 101.271 57.7902 101 57.2589C100.734 56.7225 100.602 56.1339 100.602 55.4933ZM102.891 54.6495V55.4933C102.891 55.8735 102.979 56.2251 103.156 56.548C103.339 56.8709 103.659 57.0323 104.117 57.0323C104.596 57.0323 104.922 56.8709 105.094 56.548C105.271 56.2251 105.359 55.8735 105.359 55.4933V54.6495C105.359 54.2693 105.276 53.9152 105.109 53.587C104.943 53.2589 104.612 53.0948 104.117 53.0948C103.654 53.0948 103.333 53.2615 103.156 53.5948C102.979 53.9282 102.891 54.2797 102.891 54.6495ZM101.633 67.6495L112.633 51.6495H114.68L103.68 67.6495H101.633Z" fill="white"/>
<path d="M355.501 200.577C361.024 200.577 365.53 196.096 365.219 190.582C364.095 170.699 359.623 151.122 351.97 132.68C343.037 111.154 329.944 91.5945 313.438 75.1193C296.932 58.644 277.337 45.5751 255.771 36.6587C237.289 29.0172 217.669 24.5539 197.743 23.4338C192.229 23.1239 187.748 27.6303 187.748 33.1531V82.3592C187.748 87.882 192.235 92.3114 197.734 92.8192C208.548 93.8176 219.17 96.434 229.238 100.597C242.392 106.035 254.344 114.006 264.412 124.055C274.479 134.104 282.465 146.034 287.914 159.164C292.082 169.208 294.702 179.803 295.704 190.591C296.214 196.09 300.644 200.577 306.167 200.577H355.501Z" fill="#1748C9"/>
<path d="M274.481 112.845V110.407L280.177 105.134C280.661 104.665 281.067 104.243 281.396 103.868C281.729 103.493 281.981 103.126 282.153 102.767C282.325 102.402 282.411 102.009 282.411 101.587C282.411 101.118 282.304 100.715 282.091 100.376C281.877 100.032 281.586 99.7693 281.216 99.587C280.846 99.3995 280.427 99.3058 279.958 99.3058C279.468 99.3058 279.041 99.4047 278.677 99.6026C278.312 99.8005 278.031 100.084 277.833 100.454C277.635 100.824 277.536 101.264 277.536 101.775H274.325C274.325 100.728 274.562 99.8188 275.036 99.0479C275.51 98.2771 276.174 97.6808 277.028 97.2589C277.882 96.837 278.867 96.6261 279.981 96.6261C281.127 96.6261 282.125 96.8292 282.974 97.2354C283.828 97.6365 284.492 98.1938 284.966 98.9073C285.44 99.6209 285.677 100.439 285.677 101.36C285.677 101.965 285.557 102.561 285.317 103.15C285.083 103.738 284.664 104.392 284.06 105.11C283.455 105.824 282.604 106.681 281.505 107.681L279.169 109.97V110.079H285.888V112.845H274.481ZM287.753 110.032V107.368L294.433 96.8448H296.729V100.532H295.37L291.159 107.196V107.321H300.651V110.032H287.753ZM295.433 112.845V109.22L295.495 108.04V96.8448H298.667V112.845H295.433ZM311.663 109.845V109.001C311.663 108.36 311.799 107.772 312.069 107.235C312.345 106.694 312.744 106.261 313.265 105.939C313.791 105.61 314.431 105.446 315.187 105.446C315.952 105.446 316.595 105.608 317.116 105.931C317.642 106.254 318.038 106.686 318.304 107.228C318.575 107.764 318.71 108.355 318.71 109.001V109.845C318.71 110.485 318.575 111.077 318.304 111.618C318.033 112.155 317.634 112.584 317.108 112.907C316.582 113.235 315.942 113.4 315.187 113.4C314.421 113.4 313.778 113.235 313.257 112.907C312.736 112.584 312.34 112.155 312.069 111.618C311.799 111.077 311.663 110.485 311.663 109.845ZM313.937 109.001V109.845C313.937 110.215 314.025 110.564 314.202 110.892C314.384 111.22 314.713 111.384 315.187 111.384C315.66 111.384 315.983 111.222 316.155 110.9C316.332 110.577 316.421 110.225 316.421 109.845V109.001C316.421 108.621 316.338 108.267 316.171 107.939C316.004 107.61 315.676 107.446 315.187 107.446C314.718 107.446 314.392 107.61 314.21 107.939C314.028 108.267 313.937 108.621 313.937 109.001ZM303.452 100.689V99.8448C303.452 99.199 303.59 98.6078 303.866 98.0714C304.142 97.5297 304.541 97.0974 305.062 96.7745C305.588 96.4516 306.223 96.2901 306.968 96.2901C307.739 96.2901 308.384 96.4516 308.905 96.7745C309.426 97.0974 309.822 97.5297 310.093 98.0714C310.364 98.6078 310.499 99.199 310.499 99.8448V100.689C310.499 101.334 310.361 101.926 310.085 102.462C309.814 102.998 309.416 103.428 308.89 103.751C308.369 104.069 307.728 104.228 306.968 104.228C306.207 104.228 305.564 104.066 305.038 103.743C304.517 103.415 304.121 102.985 303.851 102.454C303.585 101.918 303.452 101.329 303.452 100.689ZM305.741 99.8448V100.689C305.741 101.069 305.83 101.42 306.007 101.743C306.189 102.066 306.509 102.228 306.968 102.228C307.447 102.228 307.772 102.066 307.944 101.743C308.121 101.42 308.21 101.069 308.21 100.689V99.8448C308.21 99.4646 308.127 99.1104 307.96 98.7823C307.793 98.4542 307.463 98.2901 306.968 98.2901C306.504 98.2901 306.184 98.4568 306.007 98.7901C305.83 99.1235 305.741 99.475 305.741 99.8448ZM304.483 112.845L315.483 96.8448H317.53L306.53 112.845H304.483Z" fill="white"/>
<path d="M187.748 368C187.748 373.523 192.23 378.029 197.744 377.72C241.243 375.276 282.467 356.948 313.438 326.034C344.405 295.124 362.766 253.984 365.219 210.572C365.53 205.058 361.024 200.577 355.501 200.577H306.167C300.644 200.577 296.215 205.064 295.704 210.563C293.38 235.601 282.372 259.171 264.412 277.098C246.447 295.03 222.826 306.018 197.735 308.334C192.236 308.842 187.748 313.271 187.748 318.794V368Z" fill="#E0C6FD"/>
<path d="M266.813 308.244V305.806L272.508 300.533C272.992 300.064 273.398 299.642 273.727 299.267C274.06 298.892 274.313 298.525 274.484 298.166C274.656 297.801 274.742 297.408 274.742 296.986C274.742 296.517 274.635 296.113 274.422 295.775C274.208 295.431 273.917 295.168 273.547 294.986C273.177 294.798 272.758 294.705 272.289 294.705C271.799 294.705 271.372 294.804 271.008 295.001C270.643 295.199 270.362 295.483 270.164 295.853C269.966 296.223 269.867 296.663 269.867 297.173H266.656C266.656 296.126 266.893 295.218 267.367 294.447C267.841 293.676 268.505 293.08 269.359 292.658C270.214 292.236 271.198 292.025 272.313 292.025C273.458 292.025 274.456 292.228 275.305 292.634C276.159 293.035 276.823 293.593 277.297 294.306C277.771 295.02 278.008 295.837 278.008 296.759C278.008 297.363 277.888 297.96 277.648 298.548C277.414 299.137 276.995 299.791 276.391 300.509C275.786 301.223 274.935 302.08 273.836 303.08L271.5 305.369V305.478H278.219V308.244H266.813ZM286.811 308.462C285.988 308.457 285.193 308.319 284.428 308.048C283.667 307.778 282.985 307.337 282.381 306.728C281.777 306.119 281.298 305.311 280.943 304.306C280.594 303.301 280.42 302.067 280.42 300.603C280.425 299.259 280.579 298.059 280.881 297.001C281.188 295.939 281.626 295.038 282.193 294.298C282.766 293.559 283.451 292.996 284.248 292.611C285.045 292.22 285.938 292.025 286.928 292.025C287.995 292.025 288.938 292.233 289.756 292.65C290.574 293.061 291.23 293.621 291.725 294.33C292.225 295.038 292.527 295.832 292.631 296.712H289.295C289.165 296.155 288.891 295.718 288.475 295.4C288.058 295.082 287.542 294.923 286.928 294.923C285.886 294.923 285.094 295.376 284.553 296.283C284.016 297.189 283.743 298.421 283.732 299.978H283.842C284.081 299.504 284.404 299.1 284.811 298.767C285.222 298.429 285.688 298.171 286.209 297.994C286.735 297.811 287.29 297.72 287.873 297.72C288.821 297.72 289.665 297.944 290.404 298.392C291.144 298.835 291.727 299.444 292.154 300.22C292.581 300.996 292.795 301.884 292.795 302.884C292.795 303.968 292.542 304.931 292.037 305.775C291.537 306.619 290.837 307.28 289.936 307.759C289.04 308.233 287.998 308.468 286.811 308.462ZM286.795 305.806C287.316 305.806 287.782 305.681 288.193 305.431C288.605 305.181 288.928 304.843 289.162 304.416C289.396 303.988 289.514 303.509 289.514 302.978C289.514 302.447 289.396 301.97 289.162 301.548C288.933 301.126 288.615 300.791 288.209 300.541C287.803 300.291 287.339 300.166 286.818 300.166C286.428 300.166 286.066 300.238 285.732 300.384C285.404 300.53 285.115 300.733 284.865 300.994C284.62 301.254 284.428 301.556 284.287 301.9C284.146 302.238 284.076 302.6 284.076 302.986C284.076 303.501 284.193 303.973 284.428 304.4C284.667 304.827 284.99 305.168 285.396 305.423C285.808 305.679 286.274 305.806 286.795 305.806ZM303.951 305.244V304.4C303.951 303.759 304.087 303.171 304.357 302.634C304.633 302.093 305.032 301.66 305.553 301.337C306.079 301.009 306.719 300.845 307.475 300.845C308.24 300.845 308.883 301.007 309.404 301.33C309.93 301.653 310.326 302.085 310.592 302.626C310.863 303.163 310.998 303.754 310.998 304.4V305.244C310.998 305.884 310.863 306.475 310.592 307.017C310.321 307.554 309.923 307.983 309.396 308.306C308.87 308.634 308.23 308.798 307.475 308.798C306.709 308.798 306.066 308.634 305.545 308.306C305.024 307.983 304.628 307.554 304.357 307.017C304.087 306.475 303.951 305.884 303.951 305.244ZM306.225 304.4V305.244C306.225 305.613 306.313 305.962 306.49 306.291C306.673 306.619 307.001 306.783 307.475 306.783C307.949 306.783 308.271 306.621 308.443 306.298C308.62 305.975 308.709 305.624 308.709 305.244V304.4C308.709 304.02 308.626 303.666 308.459 303.337C308.292 303.009 307.964 302.845 307.475 302.845C307.006 302.845 306.68 303.009 306.498 303.337C306.316 303.666 306.225 304.02 306.225 304.4ZM295.74 296.087V295.244C295.74 294.598 295.878 294.007 296.154 293.47C296.43 292.929 296.829 292.496 297.35 292.173C297.876 291.85 298.511 291.689 299.256 291.689C300.027 291.689 300.673 291.85 301.193 292.173C301.714 292.496 302.11 292.929 302.381 293.47C302.652 294.007 302.787 294.598 302.787 295.244V296.087C302.787 296.733 302.649 297.324 302.373 297.861C302.102 298.397 301.704 298.827 301.178 299.15C300.657 299.468 300.016 299.626 299.256 299.626C298.495 299.626 297.852 299.465 297.326 299.142C296.805 298.814 296.41 298.384 296.139 297.853C295.873 297.317 295.74 296.728 295.74 296.087ZM298.029 295.244V296.087C298.029 296.468 298.118 296.819 298.295 297.142C298.477 297.465 298.798 297.626 299.256 297.626C299.735 297.626 300.061 297.465 300.232 297.142C300.41 296.819 300.498 296.468 300.498 296.087V295.244C300.498 294.863 300.415 294.509 300.248 294.181C300.081 293.853 299.751 293.689 299.256 293.689C298.792 293.689 298.472 293.856 298.295 294.189C298.118 294.522 298.029 294.874 298.029 295.244ZM296.771 308.244L307.771 292.244H309.818L298.818 308.244H296.771Z" fill="white"/>
<path d="M37.6668 128.822C32.68 126.461 26.6954 128.576 24.612 133.685C14.6423 158.132 10.2467 184.533 11.8001 210.966C13.5491 240.727 22.7826 269.567 38.648 294.825C54.5134 320.082 76.499 340.942 102.575 355.479C125.735 368.39 151.459 375.942 177.849 377.635C183.36 377.988 187.876 373.518 187.92 367.995L188.31 318.791C188.354 313.268 183.903 308.803 178.407 308.252C163.677 306.774 149.369 302.297 136.382 295.057C120.478 286.191 107.068 273.468 97.391 258.062C87.7141 242.657 82.0822 225.066 81.0155 206.914C80.145 192.102 82.3371 177.306 87.4145 163.436C89.315 158.245 87.233 152.285 82.2361 149.92L37.6668 128.822Z" fill="#C6D2FD"/>
<path d="M54.9531 286.512C53.7865 286.512 52.7474 286.312 51.8359 285.911C50.9297 285.504 50.2135 284.947 49.6875 284.239C49.1667 283.525 48.8984 282.702 48.8828 281.77H52.2891C52.3099 282.161 52.4375 282.504 52.6719 282.801C52.9115 283.093 53.2292 283.319 53.625 283.481C54.0208 283.642 54.4661 283.723 54.9609 283.723C55.4766 283.723 55.9323 283.632 56.3281 283.45C56.724 283.267 57.0339 283.015 57.2578 282.692C57.4818 282.369 57.5938 281.996 57.5938 281.575C57.5938 281.148 57.474 280.77 57.2344 280.442C57 280.108 56.6615 279.848 56.2188 279.661C55.7813 279.473 55.2604 279.379 54.6562 279.379H53.1641V276.895H54.6562C55.1667 276.895 55.6172 276.806 56.0078 276.629C56.4036 276.452 56.7109 276.207 56.9297 275.895C57.1484 275.577 57.2578 275.207 57.2578 274.786C57.2578 274.385 57.1615 274.033 56.9688 273.731C56.7813 273.424 56.5156 273.184 56.1719 273.012C55.8333 272.84 55.4375 272.754 54.9844 272.754C54.526 272.754 54.1068 272.838 53.7266 273.004C53.3464 273.166 53.0417 273.398 52.8125 273.7C52.5833 274.002 52.4609 274.356 52.4453 274.762H49.2031C49.2188 273.84 49.4818 273.028 49.9922 272.325C50.5026 271.621 51.1901 271.072 52.0547 270.676C52.9245 270.275 53.9063 270.075 55 270.075C56.1042 270.075 57.0703 270.275 57.8984 270.676C58.7266 271.077 59.3698 271.619 59.8281 272.301C60.2917 272.978 60.5208 273.739 60.5156 274.582C60.5208 275.478 60.2422 276.226 59.6797 276.825C59.1224 277.424 58.3958 277.804 57.5 277.965V278.09C58.6771 278.241 59.5729 278.65 60.1875 279.317C60.8073 279.978 61.1146 280.806 61.1094 281.801C61.1146 282.713 60.8516 283.523 60.3203 284.231C59.7943 284.939 59.0677 285.496 58.1406 285.903C57.2135 286.309 56.151 286.512 54.9531 286.512ZM69.3301 270.075C70.153 270.075 70.9447 270.213 71.7051 270.489C72.4707 270.765 73.153 271.205 73.752 271.809C74.3561 272.413 74.8327 273.215 75.1816 274.215C75.5358 275.21 75.7155 276.431 75.7207 277.879C75.7207 279.239 75.5671 280.452 75.2598 281.52C74.9577 282.582 74.5228 283.486 73.9551 284.231C73.3874 284.976 72.7025 285.543 71.9004 285.934C71.0983 286.319 70.2025 286.512 69.2129 286.512C68.1452 286.512 67.2025 286.306 66.3848 285.895C65.5671 285.478 64.9082 284.913 64.4082 284.2C63.9134 283.481 63.6139 282.674 63.5098 281.778H66.8457C66.9759 282.361 67.2493 282.814 67.666 283.137C68.0827 283.455 68.5983 283.614 69.2129 283.614C70.2546 283.614 71.0462 283.161 71.5879 282.254C72.1296 281.343 72.403 280.095 72.4082 278.512H72.2988C72.0592 278.981 71.7363 279.385 71.3301 279.723C70.9238 280.056 70.4577 280.314 69.9316 280.496C69.4108 280.679 68.8561 280.77 68.2676 280.77C67.3249 280.77 66.4837 280.549 65.7441 280.106C65.0046 279.663 64.4212 279.054 63.9941 278.278C63.5671 277.502 63.3535 276.616 63.3535 275.621C63.3483 274.549 63.5957 273.593 64.0957 272.754C64.5957 271.916 65.2936 271.26 66.1895 270.786C67.0905 270.306 68.1374 270.069 69.3301 270.075ZM69.3535 272.731C68.8275 272.731 68.3587 272.856 67.9473 273.106C67.541 273.356 67.2181 273.692 66.9785 274.114C66.7441 274.536 66.6296 275.007 66.6348 275.528C66.6348 276.054 66.7493 276.528 66.9785 276.95C67.2129 277.366 67.5306 277.7 67.9316 277.95C68.3379 278.194 68.8014 278.317 69.3223 278.317C69.7129 278.317 70.0749 278.244 70.4082 278.098C70.7415 277.952 71.0306 277.752 71.2754 277.496C71.5254 277.236 71.7207 276.937 71.8613 276.598C72.002 276.26 72.0723 275.9 72.0723 275.52C72.0671 275.015 71.9473 274.551 71.7129 274.129C71.4785 273.707 71.1556 273.369 70.7441 273.114C70.3327 272.858 69.8691 272.731 69.3535 272.731ZM86.8223 283.293V282.45C86.8223 281.809 86.9577 281.22 87.2285 280.684C87.5046 280.142 87.903 279.71 88.4238 279.387C88.9499 279.059 89.5905 278.895 90.3457 278.895C91.1113 278.895 91.7546 279.056 92.2754 279.379C92.8014 279.702 93.1973 280.135 93.4629 280.676C93.7337 281.213 93.8691 281.804 93.8691 282.45V283.293C93.8691 283.934 93.7337 284.525 93.4629 285.067C93.1921 285.603 92.7936 286.033 92.2676 286.356C91.7415 286.684 91.1009 286.848 90.3457 286.848C89.5801 286.848 88.9368 286.684 88.416 286.356C87.8952 286.033 87.4993 285.603 87.2285 285.067C86.9577 284.525 86.8223 283.934 86.8223 283.293ZM89.0957 282.45V283.293C89.0957 283.663 89.1842 284.012 89.3613 284.34C89.5436 284.668 89.8717 284.832 90.3457 284.832C90.8197 284.832 91.1426 284.671 91.3145 284.348C91.4915 284.025 91.5801 283.674 91.5801 283.293V282.45C91.5801 282.069 91.4967 281.715 91.3301 281.387C91.1634 281.059 90.8353 280.895 90.3457 280.895C89.877 280.895 89.5514 281.059 89.3691 281.387C89.1868 281.715 89.0957 282.069 89.0957 282.45ZM78.6113 274.137V273.293C78.6113 272.648 78.7493 272.056 79.0254 271.52C79.3014 270.978 79.6999 270.546 80.2207 270.223C80.7467 269.9 81.3822 269.739 82.127 269.739C82.8978 269.739 83.5436 269.9 84.0645 270.223C84.5853 270.546 84.9811 270.978 85.252 271.52C85.5228 272.056 85.6582 272.648 85.6582 273.293V274.137C85.6582 274.783 85.5202 275.374 85.2441 275.911C84.9733 276.447 84.5749 276.877 84.0488 277.2C83.528 277.517 82.8874 277.676 82.127 277.676C81.3665 277.676 80.7233 277.515 80.1973 277.192C79.6764 276.864 79.2806 276.434 79.0098 275.903C78.7441 275.366 78.6113 274.778 78.6113 274.137ZM80.9004 273.293V274.137C80.9004 274.517 80.9889 274.869 81.166 275.192C81.3483 275.515 81.6686 275.676 82.127 275.676C82.6061 275.676 82.9316 275.515 83.1035 275.192C83.2806 274.869 83.3691 274.517 83.3691 274.137V273.293C83.3691 272.913 83.2858 272.559 83.1191 272.231C82.9525 271.903 82.6217 271.739 82.127 271.739C81.6634 271.739 81.3431 271.905 81.166 272.239C80.9889 272.572 80.9004 272.924 80.9004 273.293ZM79.6426 286.293L90.6426 270.293H92.6895L81.6895 286.293H79.6426Z" fill="white"/>
</svg>
