<svg width="547" height="858" viewBox="0 0 547 858" fill="none" xmlns="http://www.w3.org/2000/svg">
<g filter="url(#filter0_i_205_358)">
<rect width="547" height="858" rx="32" fill="white"/>
<rect x="122" y="558" width="24" height="24" rx="12" fill="#C6D2FD"/>
<path d="M181.696 578H178.84L177.472 574.376H170.488L169.12 578H166.24L172.528 561.2H175.408L181.696 578ZM173.992 565.016L171.424 571.856H176.536L173.992 565.016ZM189.455 561.2C190.431 561.2 191.327 561.44 192.143 561.92C192.975 562.4 193.631 563.056 194.111 563.888C194.607 564.704 194.855 565.6 194.855 566.576C194.855 567.552 194.607 568.456 194.111 569.288C193.631 570.12 192.975 570.776 192.143 571.256C191.327 571.736 190.431 571.976 189.455 571.976H186.167V578H183.503V561.2H189.455ZM189.455 569.432C190.239 569.432 190.911 569.152 191.471 568.592C192.031 568.032 192.311 567.36 192.311 566.576C192.311 565.792 192.031 565.128 191.471 564.584C190.911 564.024 190.239 563.744 189.455 563.744H186.167V569.432H189.455ZM196.585 569.648C196.585 568.08 196.969 566.632 197.737 565.304C198.521 563.976 199.577 562.928 200.905 562.16C202.233 561.376 203.681 560.984 205.249 560.984C206.865 560.984 208.345 561.392 209.689 562.208C211.049 563.008 212.097 564.088 212.833 565.448L210.505 566.72C209.977 565.792 209.241 565.048 208.297 564.488C207.369 563.928 206.353 563.648 205.249 563.648C204.161 563.648 203.153 563.92 202.225 564.464C201.313 564.992 200.585 565.72 200.041 566.648C199.513 567.56 199.249 568.56 199.249 569.648C199.249 570.736 199.513 571.744 200.041 572.672C200.585 573.584 201.313 574.312 202.225 574.856C203.153 575.384 204.161 575.648 205.249 575.648C206.369 575.648 207.393 575.368 208.321 574.808C209.265 574.232 209.993 573.472 210.505 572.528L212.857 573.8C212.121 575.16 211.073 576.256 209.713 577.088C208.353 577.904 206.865 578.312 205.249 578.312C203.681 578.312 202.233 577.928 200.905 577.16C199.577 576.376 198.521 575.32 197.737 573.992C196.969 572.664 196.585 571.216 196.585 569.648Z" fill="#0E111B"/>
<path d="M360.064 572.264H362.104V574.328H360.064V578H357.856V574.328H349.24V572.264L354.928 561.2H357.352L351.688 572.264H357.856V567.92H360.064V572.264ZM369.876 567.824C371.668 567.824 373.076 568.248 374.1 569.096C375.14 569.944 375.66 571.12 375.66 572.624C375.66 574.368 375.14 575.744 374.1 576.752C373.076 577.76 371.668 578.264 369.876 578.264C368.244 578.264 366.908 577.896 365.868 577.16C364.828 576.408 364.204 575.384 363.996 574.088L366.108 573.848C366.332 574.568 366.78 575.136 367.452 575.552C368.124 575.968 368.932 576.176 369.876 576.176C371.028 576.176 371.932 575.864 372.588 575.24C373.26 574.6 373.596 573.728 373.596 572.624C373.596 571.728 373.26 571.024 372.588 570.512C371.932 569.984 371.028 569.72 369.876 569.72H366.108V569.672L364.74 569.72L365.844 561.2H375.156V563.264H367.644L367.092 567.824H369.876ZM379.449 578.192C379.049 578.128 378.769 578 378.609 577.808C378.465 577.616 378.393 577.296 378.393 576.848C378.393 576.4 378.513 576.056 378.753 575.816C379.009 575.576 379.345 575.456 379.761 575.456C380.193 575.456 380.537 575.592 380.793 575.864C381.049 576.12 381.177 576.464 381.177 576.896C381.161 577.392 381.089 577.816 380.961 578.168C380.833 578.52 380.593 578.976 380.241 579.536L379.305 580.952L378.513 580.304L379.449 578.192ZM389.658 578.288C388.298 578.288 387.13 577.928 386.154 577.208C385.178 576.488 384.434 575.472 383.922 574.16C383.41 572.848 383.154 571.328 383.154 569.6C383.154 567.872 383.41 566.352 383.922 565.04C384.434 563.728 385.178 562.712 386.154 561.992C387.13 561.272 388.298 560.912 389.658 560.912C391.018 560.912 392.186 561.272 393.162 561.992C394.154 562.712 394.906 563.728 395.418 565.04C395.93 566.352 396.186 567.872 396.186 569.6C396.186 571.328 395.93 572.848 395.418 574.16C394.906 575.472 394.154 576.488 393.162 577.208C392.186 577.928 391.018 578.288 389.658 578.288ZM389.658 576.104C391.018 576.104 392.074 575.552 392.826 574.448C393.594 573.328 393.978 571.712 393.978 569.6C393.978 567.488 393.594 565.88 392.826 564.776C392.074 563.656 391.018 563.096 389.658 563.096C388.314 563.096 387.258 563.656 386.49 564.776C385.722 565.88 385.338 567.488 385.338 569.6C385.338 571.712 385.722 573.328 386.49 574.448C387.258 575.552 388.314 576.104 389.658 576.104ZM403.79 578.288C402.43 578.288 401.262 577.928 400.286 577.208C399.31 576.488 398.566 575.472 398.054 574.16C397.542 572.848 397.286 571.328 397.286 569.6C397.286 567.872 397.542 566.352 398.054 565.04C398.566 563.728 399.31 562.712 400.286 561.992C401.262 561.272 402.43 560.912 403.79 560.912C405.15 560.912 406.318 561.272 407.294 561.992C408.286 562.712 409.038 563.728 409.55 565.04C410.062 566.352 410.318 567.872 410.318 569.6C410.318 571.328 410.062 572.848 409.55 574.16C409.038 575.472 408.286 576.488 407.294 577.208C406.318 577.928 405.15 578.288 403.79 578.288ZM403.79 576.104C405.15 576.104 406.206 575.552 406.958 574.448C407.726 573.328 408.11 571.712 408.11 569.6C408.11 567.488 407.726 565.88 406.958 564.776C406.206 563.656 405.15 563.096 403.79 563.096C402.446 563.096 401.39 563.656 400.622 564.776C399.854 565.88 399.47 567.488 399.47 569.6C399.47 571.712 399.854 573.328 400.622 574.448C401.39 575.552 402.446 576.104 403.79 576.104ZM417.923 578.288C416.563 578.288 415.395 577.928 414.419 577.208C413.443 576.488 412.699 575.472 412.187 574.16C411.675 572.848 411.419 571.328 411.419 569.6C411.419 567.872 411.675 566.352 412.187 565.04C412.699 563.728 413.443 562.712 414.419 561.992C415.395 561.272 416.563 560.912 417.923 560.912C419.283 560.912 420.451 561.272 421.427 561.992C422.419 562.712 423.171 563.728 423.683 565.04C424.195 566.352 424.451 567.872 424.451 569.6C424.451 571.328 424.195 572.848 423.683 574.16C423.171 575.472 422.419 576.488 421.427 577.208C420.451 577.928 419.283 578.288 417.923 578.288ZM417.923 576.104C419.283 576.104 420.339 575.552 421.091 574.448C421.859 573.328 422.243 571.712 422.243 569.6C422.243 567.488 421.859 565.88 421.091 564.776C420.339 563.656 419.283 563.096 417.923 563.096C416.579 563.096 415.523 563.656 414.755 564.776C413.987 565.88 413.603 567.488 413.603 569.6C413.603 571.712 413.987 573.328 414.755 574.448C415.523 575.552 416.579 576.104 417.923 576.104Z" fill="#0E111B"/>
<path d="M425 593H122V595H425V593Z" fill="#C5C6CA" mask="url(#path-2-outside-1_205_358)"/>
<rect x="122" y="630" width="24" height="24" rx="12" fill="#E0C6FD"/>
<path d="M173.752 633.2C174.728 633.2 175.624 633.44 176.44 633.92C177.272 634.4 177.928 635.056 178.408 635.888C178.904 636.704 179.152 637.6 179.152 638.576C179.152 639.552 178.904 640.456 178.408 641.288C177.928 642.12 177.272 642.776 176.44 643.256C175.624 643.736 174.728 643.976 173.752 643.976H170.464V650H167.8V633.2H173.752ZM173.752 641.432C174.536 641.432 175.208 641.152 175.768 640.592C176.328 640.032 176.608 639.36 176.608 638.576C176.608 637.792 176.328 637.128 175.768 636.584C175.208 636.024 174.536 635.744 173.752 635.744H170.464V641.432H173.752ZM187.661 633.2C189.229 633.2 190.669 633.576 191.981 634.328C193.309 635.064 194.357 636.08 195.125 637.376C195.893 638.656 196.277 640.08 196.277 641.648C196.277 643.216 195.893 644.64 195.125 645.92C194.357 647.184 193.309 648.184 191.981 648.92C190.669 649.64 189.229 650 187.661 650H181.253V633.2H187.661ZM187.661 647.48C188.749 647.48 189.749 647.224 190.661 646.712C191.573 646.2 192.293 645.496 192.821 644.6C193.349 643.704 193.613 642.712 193.613 641.624C193.613 640.536 193.349 639.544 192.821 638.648C192.293 637.736 191.573 637.024 190.661 636.512C189.749 635.984 188.749 635.72 187.661 635.72H183.917V647.48H187.661ZM204.994 633.2C205.97 633.2 206.866 633.44 207.682 633.92C208.514 634.4 209.17 635.056 209.65 635.888C210.146 636.704 210.394 637.6 210.394 638.576C210.394 639.552 210.146 640.456 209.65 641.288C209.17 642.12 208.514 642.776 207.682 643.256C206.866 643.736 205.97 643.976 204.994 643.976H201.706V650H199.042V633.2H204.994ZM204.994 641.432C205.778 641.432 206.45 641.152 207.01 640.592C207.57 640.032 207.85 639.36 207.85 638.576C207.85 637.792 207.57 637.128 207.01 636.584C206.45 636.024 205.778 635.744 204.994 635.744H201.706V641.432H204.994Z" fill="#0E111B"/>
<path d="M359.056 641.024C359.824 641.472 360.424 642.056 360.856 642.776C361.288 643.496 361.504 644.296 361.504 645.176C361.504 646.152 361.248 647.024 360.736 647.792C360.224 648.56 359.512 649.168 358.6 649.616C357.704 650.048 356.704 650.264 355.6 650.264C354.64 650.264 353.736 650.088 352.888 649.736C352.056 649.368 351.368 648.864 350.824 648.224C350.28 647.568 349.944 646.84 349.816 646.04L352.12 645.848C352.328 646.52 352.76 647.08 353.416 647.528C354.072 647.96 354.8 648.176 355.6 648.176C356.688 648.176 357.584 647.888 358.288 647.312C358.992 646.72 359.344 645.976 359.344 645.08C359.344 644.184 358.984 643.448 358.264 642.872C357.56 642.28 356.672 641.984 355.6 641.984H354.76V640.136L355.6 640.16C356.544 640.16 357.328 639.912 357.952 639.416C358.576 638.92 358.888 638.288 358.888 637.52C358.888 636.768 358.576 636.144 357.952 635.648C357.328 635.152 356.536 634.904 355.576 634.904C354.904 634.904 354.272 635.08 353.68 635.432C353.088 635.768 352.672 636.192 352.432 636.704L350.248 636.536C350.392 635.848 350.712 635.232 351.208 634.688C351.72 634.128 352.352 633.696 353.104 633.392C353.872 633.072 354.696 632.912 355.576 632.912C356.616 632.912 357.552 633.112 358.384 633.512C359.216 633.912 359.864 634.464 360.328 635.168C360.792 635.856 361.023 636.64 361.023 637.52C361.023 638.24 360.848 638.904 360.496 639.512C360.16 640.12 359.68 640.624 359.056 641.024ZM374.196 644.264H376.236V646.328H374.196V650H371.988V646.328H363.372V644.264L369.06 633.2H371.484L365.82 644.264H371.988V639.92H374.196V644.264ZM379.449 650.192C379.049 650.128 378.769 650 378.609 649.808C378.465 649.616 378.393 649.296 378.393 648.848C378.393 648.4 378.513 648.056 378.753 647.816C379.009 647.576 379.345 647.456 379.761 647.456C380.193 647.456 380.537 647.592 380.793 647.864C381.049 648.12 381.177 648.464 381.177 648.896C381.161 649.392 381.089 649.816 380.961 650.168C380.833 650.52 380.593 650.976 380.241 651.536L379.305 652.952L378.513 652.304L379.449 650.192ZM389.658 650.288C388.298 650.288 387.13 649.928 386.154 649.208C385.178 648.488 384.434 647.472 383.922 646.16C383.41 644.848 383.154 643.328 383.154 641.6C383.154 639.872 383.41 638.352 383.922 637.04C384.434 635.728 385.178 634.712 386.154 633.992C387.13 633.272 388.298 632.912 389.658 632.912C391.018 632.912 392.186 633.272 393.162 633.992C394.154 634.712 394.906 635.728 395.418 637.04C395.93 638.352 396.186 639.872 396.186 641.6C396.186 643.328 395.93 644.848 395.418 646.16C394.906 647.472 394.154 648.488 393.162 649.208C392.186 649.928 391.018 650.288 389.658 650.288ZM389.658 648.104C391.018 648.104 392.074 647.552 392.826 646.448C393.594 645.328 393.978 643.712 393.978 641.6C393.978 639.488 393.594 637.88 392.826 636.776C392.074 635.656 391.018 635.096 389.658 635.096C388.314 635.096 387.258 635.656 386.49 636.776C385.722 637.88 385.338 639.488 385.338 641.6C385.338 643.712 385.722 645.328 386.49 646.448C387.258 647.552 388.314 648.104 389.658 648.104ZM403.79 650.288C402.43 650.288 401.262 649.928 400.286 649.208C399.31 648.488 398.566 647.472 398.054 646.16C397.542 644.848 397.286 643.328 397.286 641.6C397.286 639.872 397.542 638.352 398.054 637.04C398.566 635.728 399.31 634.712 400.286 633.992C401.262 633.272 402.43 632.912 403.79 632.912C405.15 632.912 406.318 633.272 407.294 633.992C408.286 634.712 409.038 635.728 409.55 637.04C410.062 638.352 410.318 639.872 410.318 641.6C410.318 643.328 410.062 644.848 409.55 646.16C409.038 647.472 408.286 648.488 407.294 649.208C406.318 649.928 405.15 650.288 403.79 650.288ZM403.79 648.104C405.15 648.104 406.206 647.552 406.958 646.448C407.726 645.328 408.11 643.712 408.11 641.6C408.11 639.488 407.726 637.88 406.958 636.776C406.206 635.656 405.15 635.096 403.79 635.096C402.446 635.096 401.39 635.656 400.622 636.776C399.854 637.88 399.47 639.488 399.47 641.6C399.47 643.712 399.854 645.328 400.622 646.448C401.39 647.552 402.446 648.104 403.79 648.104ZM417.923 650.288C416.563 650.288 415.395 649.928 414.419 649.208C413.443 648.488 412.699 647.472 412.187 646.16C411.675 644.848 411.419 643.328 411.419 641.6C411.419 639.872 411.675 638.352 412.187 637.04C412.699 635.728 413.443 634.712 414.419 633.992C415.395 633.272 416.563 632.912 417.923 632.912C419.283 632.912 420.451 633.272 421.427 633.992C422.419 634.712 423.171 635.728 423.683 637.04C424.195 638.352 424.451 639.872 424.451 641.6C424.451 643.328 424.195 644.848 423.683 646.16C423.171 647.472 422.419 648.488 421.427 649.208C420.451 649.928 419.283 650.288 417.923 650.288ZM417.923 648.104C419.283 648.104 420.339 647.552 421.091 646.448C421.859 645.328 422.243 643.712 422.243 641.6C422.243 639.488 421.859 637.88 421.091 636.776C420.339 635.656 419.283 635.096 417.923 635.096C416.579 635.096 415.523 635.656 414.755 636.776C413.987 637.88 413.603 639.488 413.603 641.6C413.603 643.712 413.987 645.328 414.755 646.448C415.523 647.552 416.579 648.104 417.923 648.104Z" fill="#0E111B"/>
<path d="M425 665H122V667H425V665Z" fill="#C5C6CA" mask="url(#path-7-outside-2_205_358)"/>
<rect x="122" y="702" width="24" height="24" rx="12" fill="#1748C9"/>
<path d="M173.272 722.312C171.656 722.312 170.288 721.944 169.168 721.208C168.064 720.472 167.288 719.48 166.84 718.232L169.12 716.912C169.44 717.792 169.952 718.48 170.656 718.976C171.36 719.456 172.256 719.696 173.344 719.696C174.368 719.696 175.144 719.456 175.672 718.976C176.216 718.48 176.488 717.912 176.488 717.272C176.488 716.648 176.192 716.144 175.6 715.76C175.008 715.376 174.032 714.984 172.672 714.584C171.584 714.248 170.68 713.904 169.96 713.552C169.256 713.2 168.672 712.712 168.208 712.088C167.76 711.464 167.536 710.672 167.536 709.712C167.536 708.736 167.776 707.888 168.256 707.168C168.752 706.432 169.408 705.872 170.224 705.488C171.04 705.088 171.936 704.888 172.912 704.888C174.256 704.888 175.424 705.216 176.416 705.872C177.408 706.528 178.16 707.424 178.672 708.56L176.392 709.856C175.72 708.304 174.56 707.528 172.912 707.528C172.096 707.528 171.44 707.744 170.944 708.176C170.448 708.592 170.2 709.096 170.2 709.688C170.2 710.136 170.32 710.504 170.56 710.792C170.8 711.064 171.152 711.312 171.616 711.536C172.096 711.744 172.784 711.992 173.68 712.28C174.832 712.632 175.784 713 176.536 713.384C177.288 713.752 177.912 714.264 178.408 714.92C178.904 715.576 179.152 716.408 179.152 717.416C179.152 718.392 178.896 719.256 178.384 720.008C177.888 720.744 177.192 721.312 176.296 721.712C175.416 722.112 174.408 722.312 173.272 722.312ZM188.153 705.2C189.721 705.2 191.161 705.576 192.473 706.328C193.801 707.064 194.849 708.08 195.617 709.376C196.385 710.656 196.769 712.08 196.769 713.648C196.769 715.216 196.385 716.64 195.617 717.92C194.849 719.184 193.801 720.184 192.473 720.92C191.161 721.64 189.721 722 188.153 722H181.745V705.2H188.153ZM188.153 719.48C189.241 719.48 190.241 719.224 191.153 718.712C192.065 718.2 192.785 717.496 193.313 716.6C193.841 715.704 194.105 714.712 194.105 713.624C194.105 712.536 193.841 711.544 193.313 710.648C192.785 709.736 192.065 709.024 191.153 708.512C190.241 707.984 189.241 707.72 188.153 707.72H184.409V719.48H188.153ZM205.486 705.2C206.462 705.2 207.358 705.44 208.174 705.92C209.006 706.4 209.662 707.056 210.142 707.888C210.638 708.704 210.886 709.6 210.886 710.576C210.886 711.552 210.638 712.456 210.142 713.288C209.662 714.12 209.006 714.776 208.174 715.256C207.358 715.736 206.462 715.976 205.486 715.976H202.198V722H199.534V705.2H205.486ZM205.486 713.432C206.27 713.432 206.942 713.152 207.502 712.592C208.062 712.032 208.342 711.36 208.342 710.576C208.342 709.792 208.062 709.128 207.502 708.584C206.942 708.024 206.27 707.744 205.486 707.744H202.198V713.432H205.486Z" fill="#0E111B"/>
<path d="M357.064 705.2V719.936H361.936V722H349.576V719.936H354.88V707.48L351.664 709.016L350.608 707.288L354.88 705.2H357.064ZM375.948 719.912V722H363.948V721.352C364.076 719.832 364.564 718.36 365.412 716.936C366.26 715.512 367.444 714.472 368.964 713.816L369.78 713.456C370.644 713.072 371.308 712.752 371.772 712.496C372.252 712.224 372.652 711.888 372.972 711.488C373.292 711.072 373.452 710.568 373.452 709.976C373.452 709.336 373.276 708.784 372.924 708.32C372.572 707.856 372.132 707.512 371.604 707.288C371.076 707.048 370.548 706.928 370.02 706.928C368.932 706.928 367.996 707.152 367.212 707.6C366.428 708.048 365.964 708.728 365.82 709.64L363.732 709.4C363.876 708.456 364.244 707.648 364.836 706.976C365.444 706.288 366.204 705.776 367.116 705.44C368.028 705.088 368.996 704.912 370.02 704.912C370.948 704.912 371.836 705.112 372.684 705.512C373.532 705.896 374.22 706.464 374.748 707.216C375.292 707.968 375.564 708.856 375.564 709.88C375.564 710.92 375.316 711.784 374.82 712.472C374.324 713.16 373.708 713.712 372.972 714.128C372.236 714.544 371.18 715.04 369.804 715.616C368.988 715.984 368.3 716.552 367.74 717.32C367.18 718.072 366.756 718.936 366.468 719.912H375.948ZM379.449 722.192C379.049 722.128 378.769 722 378.609 721.808C378.465 721.616 378.393 721.296 378.393 720.848C378.393 720.4 378.513 720.056 378.753 719.816C379.009 719.576 379.345 719.456 379.761 719.456C380.193 719.456 380.537 719.592 380.793 719.864C381.049 720.12 381.177 720.464 381.177 720.896C381.161 721.392 381.089 721.816 380.961 722.168C380.833 722.52 380.593 722.976 380.241 723.536L379.305 724.952L378.513 724.304L379.449 722.192ZM389.658 722.288C388.298 722.288 387.13 721.928 386.154 721.208C385.178 720.488 384.434 719.472 383.922 718.16C383.41 716.848 383.154 715.328 383.154 713.6C383.154 711.872 383.41 710.352 383.922 709.04C384.434 707.728 385.178 706.712 386.154 705.992C387.13 705.272 388.298 704.912 389.658 704.912C391.018 704.912 392.186 705.272 393.162 705.992C394.154 706.712 394.906 707.728 395.418 709.04C395.93 710.352 396.186 711.872 396.186 713.6C396.186 715.328 395.93 716.848 395.418 718.16C394.906 719.472 394.154 720.488 393.162 721.208C392.186 721.928 391.018 722.288 389.658 722.288ZM389.658 720.104C391.018 720.104 392.074 719.552 392.826 718.448C393.594 717.328 393.978 715.712 393.978 713.6C393.978 711.488 393.594 709.88 392.826 708.776C392.074 707.656 391.018 707.096 389.658 707.096C388.314 707.096 387.258 707.656 386.49 708.776C385.722 709.88 385.338 711.488 385.338 713.6C385.338 715.712 385.722 717.328 386.49 718.448C387.258 719.552 388.314 720.104 389.658 720.104ZM403.79 722.288C402.43 722.288 401.262 721.928 400.286 721.208C399.31 720.488 398.566 719.472 398.054 718.16C397.542 716.848 397.286 715.328 397.286 713.6C397.286 711.872 397.542 710.352 398.054 709.04C398.566 707.728 399.31 706.712 400.286 705.992C401.262 705.272 402.43 704.912 403.79 704.912C405.15 704.912 406.318 705.272 407.294 705.992C408.286 706.712 409.038 707.728 409.55 709.04C410.062 710.352 410.318 711.872 410.318 713.6C410.318 715.328 410.062 716.848 409.55 718.16C409.038 719.472 408.286 720.488 407.294 721.208C406.318 721.928 405.15 722.288 403.79 722.288ZM403.79 720.104C405.15 720.104 406.206 719.552 406.958 718.448C407.726 717.328 408.11 715.712 408.11 713.6C408.11 711.488 407.726 709.88 406.958 708.776C406.206 707.656 405.15 707.096 403.79 707.096C402.446 707.096 401.39 707.656 400.622 708.776C399.854 709.88 399.47 711.488 399.47 713.6C399.47 715.712 399.854 717.328 400.622 718.448C401.39 719.552 402.446 720.104 403.79 720.104ZM417.923 722.288C416.563 722.288 415.395 721.928 414.419 721.208C413.443 720.488 412.699 719.472 412.187 718.16C411.675 716.848 411.419 715.328 411.419 713.6C411.419 711.872 411.675 710.352 412.187 709.04C412.699 707.728 413.443 706.712 414.419 705.992C415.395 705.272 416.563 704.912 417.923 704.912C419.283 704.912 420.451 705.272 421.427 705.992C422.419 706.712 423.171 707.728 423.683 709.04C424.195 710.352 424.451 711.872 424.451 713.6C424.451 715.328 424.195 716.848 423.683 718.16C423.171 719.472 422.419 720.488 421.427 721.208C420.451 721.928 419.283 722.288 417.923 722.288ZM417.923 720.104C419.283 720.104 420.339 719.552 421.091 718.448C421.859 717.328 422.243 715.712 422.243 713.6C422.243 711.488 421.859 709.88 421.091 708.776C420.339 707.656 419.283 707.096 417.923 707.096C416.579 707.096 415.523 707.656 414.755 708.776C413.987 709.88 413.603 711.488 413.603 713.6C413.603 715.712 413.987 717.328 414.755 718.448C415.523 719.552 416.579 720.104 417.923 720.104Z" fill="#0E111B"/>
<path d="M425 737H122V739H425V737Z" fill="#C5C6CA" mask="url(#path-12-outside-3_205_358)"/>
<rect x="122" y="774" width="24" height="24" rx="12" fill="#151A28"/>
<path d="M170.464 777.2V791.48H177.832V794H167.8V777.2H170.464ZM186.01 777.2C186.986 777.2 187.882 777.44 188.698 777.92C189.53 778.4 190.186 779.056 190.666 779.888C191.162 780.704 191.41 781.6 191.41 782.576C191.41 783.552 191.162 784.456 190.666 785.288C190.186 786.12 189.53 786.776 188.698 787.256C187.882 787.736 186.986 787.976 186.01 787.976H182.722V794H180.058V777.2H186.01ZM186.01 785.432C186.794 785.432 187.466 785.152 188.026 784.592C188.586 784.032 188.866 783.36 188.866 782.576C188.866 781.792 188.586 781.128 188.026 780.584C187.466 780.024 186.794 779.744 186.01 779.744H182.722V785.432H186.01Z" fill="#0E111B"/>
<path d="M363.852 779.264V777.2H375.948V778.856L369.18 794H366.78L373.356 779.264H363.852ZM379.449 794.192C379.049 794.128 378.769 794 378.609 793.808C378.465 793.616 378.393 793.296 378.393 792.848C378.393 792.4 378.513 792.056 378.753 791.816C379.009 791.576 379.345 791.456 379.761 791.456C380.193 791.456 380.537 791.592 380.793 791.864C381.049 792.12 381.177 792.464 381.177 792.896C381.161 793.392 381.089 793.816 380.961 794.168C380.833 794.52 380.593 794.976 380.241 795.536L379.305 796.952L378.513 796.304L379.449 794.192ZM389.658 794.288C388.298 794.288 387.13 793.928 386.154 793.208C385.178 792.488 384.434 791.472 383.922 790.16C383.41 788.848 383.154 787.328 383.154 785.6C383.154 783.872 383.41 782.352 383.922 781.04C384.434 779.728 385.178 778.712 386.154 777.992C387.13 777.272 388.298 776.912 389.658 776.912C391.018 776.912 392.186 777.272 393.162 777.992C394.154 778.712 394.906 779.728 395.418 781.04C395.93 782.352 396.186 783.872 396.186 785.6C396.186 787.328 395.93 788.848 395.418 790.16C394.906 791.472 394.154 792.488 393.162 793.208C392.186 793.928 391.018 794.288 389.658 794.288ZM389.658 792.104C391.018 792.104 392.074 791.552 392.826 790.448C393.594 789.328 393.978 787.712 393.978 785.6C393.978 783.488 393.594 781.88 392.826 780.776C392.074 779.656 391.018 779.096 389.658 779.096C388.314 779.096 387.258 779.656 386.49 780.776C385.722 781.88 385.338 783.488 385.338 785.6C385.338 787.712 385.722 789.328 386.49 790.448C387.258 791.552 388.314 792.104 389.658 792.104ZM403.79 794.288C402.43 794.288 401.262 793.928 400.286 793.208C399.31 792.488 398.566 791.472 398.054 790.16C397.542 788.848 397.286 787.328 397.286 785.6C397.286 783.872 397.542 782.352 398.054 781.04C398.566 779.728 399.31 778.712 400.286 777.992C401.262 777.272 402.43 776.912 403.79 776.912C405.15 776.912 406.318 777.272 407.294 777.992C408.286 778.712 409.038 779.728 409.55 781.04C410.062 782.352 410.318 783.872 410.318 785.6C410.318 787.328 410.062 788.848 409.55 790.16C409.038 791.472 408.286 792.488 407.294 793.208C406.318 793.928 405.15 794.288 403.79 794.288ZM403.79 792.104C405.15 792.104 406.206 791.552 406.958 790.448C407.726 789.328 408.11 787.712 408.11 785.6C408.11 783.488 407.726 781.88 406.958 780.776C406.206 779.656 405.15 779.096 403.79 779.096C402.446 779.096 401.39 779.656 400.622 780.776C399.854 781.88 399.47 783.488 399.47 785.6C399.47 787.712 399.854 789.328 400.622 790.448C401.39 791.552 402.446 792.104 403.79 792.104ZM417.923 794.288C416.563 794.288 415.395 793.928 414.419 793.208C413.443 792.488 412.699 791.472 412.187 790.16C411.675 788.848 411.419 787.328 411.419 785.6C411.419 783.872 411.675 782.352 412.187 781.04C412.699 779.728 413.443 778.712 414.419 777.992C415.395 777.272 416.563 776.912 417.923 776.912C419.283 776.912 420.451 777.272 421.427 777.992C422.419 778.712 423.171 779.728 423.683 781.04C424.195 782.352 424.451 783.872 424.451 785.6C424.451 787.328 424.195 788.848 423.683 790.16C423.171 791.472 422.419 792.488 421.427 793.208C420.451 793.928 419.283 794.288 417.923 794.288ZM417.923 792.104C419.283 792.104 420.339 791.552 421.091 790.448C421.859 789.328 422.243 787.712 422.243 785.6C422.243 783.488 421.859 781.88 421.091 780.776C420.339 779.656 419.283 779.096 417.923 779.096C416.579 779.096 415.523 779.656 414.755 780.776C413.987 781.88 413.603 783.488 413.603 785.6C413.603 787.712 413.987 789.328 414.755 790.448C415.523 791.552 416.579 792.104 417.923 792.104Z" fill="#0E111B"/>
<path d="M425 809H122V811H425V809Z" fill="#C5C6CA" mask="url(#path-17-outside-4_205_358)"/>
<line x1="51" y1="80.5" x2="497" y2="80.5" stroke="#E5E5EF"/>
<path d="M58.272 49.288C56.656 49.288 55.296 48.928 54.192 48.208C53.088 47.488 52.328 46.504 51.912 45.256L53.784 44.176C54.104 45.104 54.64 45.832 55.392 46.36C56.16 46.888 57.128 47.152 58.296 47.152C59.08 47.152 59.736 47.024 60.264 46.768C60.808 46.496 61.208 46.152 61.464 45.736C61.736 45.304 61.872 44.848 61.872 44.368C61.872 43.68 61.544 43.12 60.888 42.688C60.232 42.256 59.2 41.824 57.792 41.392C56.672 41.056 55.752 40.72 55.032 40.384C54.328 40.048 53.744 39.584 53.28 38.992C52.832 38.384 52.608 37.6 52.608 36.64C52.608 35.696 52.84 34.864 53.304 34.144C53.784 33.424 54.424 32.872 55.224 32.488C56.04 32.104 56.928 31.912 57.888 31.912C59.216 31.912 60.368 32.24 61.344 32.896C62.32 33.536 63.064 34.416 63.576 35.536L61.68 36.592C61.344 35.792 60.856 35.176 60.216 34.744C59.576 34.296 58.8 34.072 57.888 34.072C56.944 34.072 56.192 34.328 55.632 34.84C55.072 35.336 54.792 35.936 54.792 36.64C54.792 37.152 54.928 37.568 55.2 37.888C55.488 38.208 55.872 38.48 56.352 38.704C56.848 38.912 57.576 39.168 58.536 39.472C59.752 39.856 60.728 40.232 61.464 40.6C62.2 40.952 62.816 41.44 63.312 42.064C63.808 42.688 64.056 43.488 64.056 44.464C64.056 45.44 63.808 46.296 63.312 47.032C62.816 47.752 62.128 48.312 61.248 48.712C60.384 49.096 59.392 49.288 58.272 49.288ZM69.4976 45.256C69.4976 45.992 69.6336 46.504 69.9056 46.792C70.1936 47.064 70.6496 47.2 71.2736 47.2C71.4656 47.2 71.8656 47.168 72.4736 47.104V49C71.7856 49.08 71.2096 49.12 70.7456 49.12C69.6096 49.12 68.7696 48.848 68.2256 48.304C67.6976 47.76 67.4336 46.784 67.4336 45.376V38.896H64.7696V37H67.4336V33.736L69.4976 32.992V37H72.4256V38.896H69.4976V45.256ZM84.4821 37H86.5701V49H84.4821V47.2C83.9221 47.856 83.2501 48.376 82.4661 48.76C81.6981 49.128 80.8741 49.312 79.9941 49.312C78.8261 49.312 77.7781 49.04 76.8501 48.496C75.9221 47.936 75.2021 47.176 74.6901 46.216C74.1781 45.256 73.9221 44.192 73.9221 43.024C73.9221 41.84 74.1781 40.776 74.6901 39.832C75.2021 38.872 75.9141 38.12 76.8261 37.576C77.7541 37.016 78.8101 36.736 79.9941 36.736C80.8741 36.736 81.6981 36.928 82.4661 37.312C83.2501 37.68 83.9221 38.192 84.4821 38.848V37ZM80.2101 47.32C80.9941 47.32 81.7141 47.136 82.3701 46.768C83.0261 46.384 83.5381 45.864 83.9061 45.208C84.2901 44.552 84.4821 43.816 84.4821 43C84.4821 42.2 84.2901 41.48 83.9061 40.84C83.5381 40.184 83.0261 39.672 82.3701 39.304C81.7141 38.936 80.9941 38.752 80.2101 38.752C79.4261 38.752 78.7141 38.936 78.0741 39.304C77.4341 39.672 76.9301 40.184 76.5621 40.84C76.1941 41.496 76.0101 42.224 76.0101 43.024C76.0101 43.84 76.1941 44.576 76.5621 45.232C76.9301 45.872 77.4341 46.384 78.0741 46.768C78.7141 47.136 79.4261 47.32 80.2101 47.32ZM93.0992 45.256C93.0992 45.992 93.2352 46.504 93.5072 46.792C93.7952 47.064 94.2512 47.2 94.8752 47.2C95.0672 47.2 95.4672 47.168 96.0752 47.104V49C95.3872 49.08 94.8112 49.12 94.3472 49.12C93.2112 49.12 92.3712 48.848 91.8272 48.304C91.2992 47.76 91.0352 46.784 91.0352 45.376V38.896H88.3712V37H91.0352V33.736L93.0992 32.992V37H96.0272V38.896H93.0992V45.256ZM99.5558 34.264C99.1558 34.264 98.8358 34.152 98.5958 33.928C98.3558 33.704 98.2358 33.392 98.2358 32.992C98.2358 32.608 98.3558 32.304 98.5958 32.08C98.8358 31.84 99.1558 31.72 99.5558 31.72C99.9558 31.72 100.276 31.84 100.516 32.08C100.756 32.304 100.876 32.608 100.876 32.992C100.876 33.392 100.756 33.704 100.516 33.928C100.292 34.152 99.9718 34.264 99.5558 34.264ZM98.5238 49V37H100.588V49H98.5238ZM105.126 40.288C105.126 40.752 105.342 41.088 105.774 41.296C106.222 41.504 106.934 41.728 107.91 41.968C108.854 42.192 109.622 42.416 110.214 42.64C110.822 42.864 111.334 43.216 111.75 43.696C112.182 44.176 112.398 44.824 112.398 45.64C112.398 46.744 111.942 47.632 111.03 48.304C110.118 48.96 108.974 49.288 107.598 49.288C106.366 49.288 105.326 49.048 104.478 48.568C103.63 48.088 103.014 47.416 102.63 46.552L104.334 45.664C104.59 46.304 104.998 46.784 105.558 47.104C106.118 47.408 106.798 47.56 107.598 47.56C108.35 47.56 108.998 47.392 109.542 47.056C110.102 46.72 110.382 46.256 110.382 45.664C110.382 45.296 110.246 44.992 109.974 44.752C109.718 44.512 109.39 44.328 108.99 44.2C108.606 44.072 108.054 43.912 107.334 43.72C106.422 43.496 105.678 43.28 105.102 43.072C104.542 42.848 104.054 42.52 103.638 42.088C103.238 41.656 103.038 41.072 103.038 40.336C103.038 39.632 103.238 39.008 103.638 38.464C104.038 37.904 104.582 37.472 105.27 37.168C105.958 36.864 106.726 36.712 107.574 36.712C108.582 36.712 109.47 36.928 110.238 37.36C111.022 37.792 111.622 38.392 112.038 39.16L110.334 40.024C110.094 39.512 109.742 39.12 109.278 38.848C108.814 38.56 108.246 38.416 107.574 38.416C106.822 38.416 106.222 38.592 105.774 38.944C105.342 39.28 105.126 39.728 105.126 40.288ZM118.084 45.256C118.084 45.992 118.22 46.504 118.492 46.792C118.78 47.064 119.236 47.2 119.86 47.2C120.052 47.2 120.452 47.168 121.06 47.104V49C120.372 49.08 119.796 49.12 119.332 49.12C118.196 49.12 117.356 48.848 116.812 48.304C116.284 47.76 116.02 46.784 116.02 45.376V38.896H113.356V37H116.02V33.736L118.084 32.992V37H121.012V38.896H118.084V45.256ZM124.54 34.264C124.14 34.264 123.82 34.152 123.58 33.928C123.34 33.704 123.22 33.392 123.22 32.992C123.22 32.608 123.34 32.304 123.58 32.08C123.82 31.84 124.14 31.72 124.54 31.72C124.94 31.72 125.26 31.84 125.5 32.08C125.74 32.304 125.86 32.608 125.86 32.992C125.86 33.392 125.74 33.704 125.5 33.928C125.276 34.152 124.956 34.264 124.54 34.264ZM123.508 49V37H125.572V49H123.508ZM138.968 46.672C138.392 47.472 137.656 48.112 136.76 48.592C135.88 49.056 134.92 49.288 133.88 49.288C132.744 49.288 131.696 49.008 130.736 48.448C129.776 47.888 129.008 47.128 128.432 46.168C127.872 45.192 127.592 44.136 127.592 43C127.592 41.864 127.872 40.816 128.432 39.856C129.008 38.896 129.776 38.136 130.736 37.576C131.696 37.016 132.744 36.736 133.88 36.736C134.904 36.736 135.856 36.968 136.736 37.432C137.616 37.896 138.352 38.52 138.944 39.304L137.24 40.456C136.824 39.928 136.328 39.52 135.752 39.232C135.176 38.944 134.552 38.8 133.88 38.8C133.112 38.8 132.408 38.992 131.768 39.376C131.128 39.744 130.616 40.248 130.232 40.888C129.864 41.528 129.68 42.232 129.68 43C129.68 43.768 129.864 44.48 130.232 45.136C130.616 45.776 131.128 46.288 131.768 46.672C132.408 47.04 133.112 47.224 133.88 47.224C134.552 47.224 135.176 47.08 135.752 46.792C136.344 46.488 136.84 46.072 137.24 45.544L138.968 46.672ZM142.954 40.288C142.954 40.752 143.17 41.088 143.602 41.296C144.05 41.504 144.762 41.728 145.738 41.968C146.682 42.192 147.45 42.416 148.042 42.64C148.65 42.864 149.162 43.216 149.578 43.696C150.01 44.176 150.226 44.824 150.226 45.64C150.226 46.744 149.77 47.632 148.858 48.304C147.946 48.96 146.802 49.288 145.426 49.288C144.194 49.288 143.154 49.048 142.306 48.568C141.458 48.088 140.842 47.416 140.458 46.552L142.162 45.664C142.418 46.304 142.826 46.784 143.386 47.104C143.946 47.408 144.626 47.56 145.426 47.56C146.178 47.56 146.826 47.392 147.37 47.056C147.93 46.72 148.21 46.256 148.21 45.664C148.21 45.296 148.074 44.992 147.802 44.752C147.546 44.512 147.218 44.328 146.818 44.2C146.434 44.072 145.882 43.912 145.162 43.72C144.25 43.496 143.506 43.28 142.93 43.072C142.37 42.848 141.882 42.52 141.466 42.088C141.066 41.656 140.866 41.072 140.866 40.336C140.866 39.632 141.066 39.008 141.466 38.464C141.866 37.904 142.41 37.472 143.098 37.168C143.786 36.864 144.554 36.712 145.402 36.712C146.41 36.712 147.298 36.928 148.066 37.36C148.85 37.792 149.45 38.392 149.866 39.16L148.162 40.024C147.922 39.512 147.57 39.12 147.106 38.848C146.642 38.56 146.074 38.416 145.402 38.416C144.65 38.416 144.05 38.592 143.602 38.944C143.17 39.28 142.954 39.728 142.954 40.288Z" fill="#BDC4DB"/>
</g>
<defs>
<filter id="filter0_i_205_358" x="0" y="0" width="551" height="862" filterUnits="userSpaceOnUse" color-interpolation-filters="sRGB">
<feFlood flood-opacity="0" result="BackgroundImageFix"/>
<feBlend mode="normal" in="SourceGraphic" in2="BackgroundImageFix" result="shape"/>
<feColorMatrix in="SourceAlpha" type="matrix" values="0 0 0 0 0 0 0 0 0 0 0 0 0 0 0 0 0 0 127 0" result="hardAlpha"/>
<feOffset dx="5" dy="5"/>
<feGaussianBlur stdDeviation="2"/>
<feComposite in2="hardAlpha" operator="arithmetic" k2="-1" k3="1"/>
<feColorMatrix type="matrix" values="0 0 0 0 0 0 0 0 0 0 0 0 0 0 0 0 0 0 0.25 0"/>
<feBlend mode="normal" in2="shape" result="effect1_innerShadow_205_358"/>
</filter>
</defs>
</svg>
